<?xml version="1.0" encoding="UTF-8"?>
<svg id="Capa_2" xmlns="http://www.w3.org/2000/svg" viewBox="0 0 24 41">
  <defs>
    <style>
      .cls-1 {
        fill: none;
      }

      .cls-2 {
        fill: #039;
      }

      .cls-3 {
        fill: #fff;
      }
    </style>
  </defs>
  <g id="Horizontal_version">
    <g>
      <g>
        <path class="cls-2" d="M0,21.7289381633C0,21.6609553171.0339914231,21.626963894.1019742693,21.626963894h1.8766427541c.0644256042,0,.0968360309.0324104267.0968360309.0964407818v.3130372918c0,.0600778641-.0339914231.0909072943-.1019742693.0909072943H.5814114346v.882196004h1.2339677081c.0679828462,0,.1019742693.030038932.1019742693.0916977925v.3161992846c0,.0608683623-.0339914231.0916977925-.1019742693.0916977925H.5814114346v1.0047232268h1.4280350191c.0608683623,0,.0916977925.0324104267.0916977925.0964407818v.3114562953c0,.0608683623-.0324104267.0916977925-.0968360309.0916977925H.1019742693C.0339914231,25.0134582321,0,24.9826288018,0,24.9217604395v-3.1928222762Z"/>
        <path class="cls-2" d="M4.6710539317,25.0134582321h-.3620481809c-.037548665,0-.0628446078-.0086954803-.0762830774-.0252959428-.0138337187-.0173909607-.0205529535-.041105907-.0205529535-.0719353372v-.1580996423l-.0102764768-.0047429893c-.0509871346.0339914231-.1094840023.0687733444-.1758858521.1043457639s-.1367561906.0687733444-.2114582716.0996027746c-.0750973301.0308294302-.1521709057.0553348748-.2320112251.0743068319-.0802355685.0181814589-.1592853896.0276674374-.2371494634.0276674374-.1735143574,0-.310270548-.0237149463-.4106638209-.071144839s-.1758858521-.1138317425-.2268729867-.1992055493c-.0509871346-.0845833086-.0833975613-.1849765815-.0968360309-.3003893204-.0138337187-.1162032371-.0205529535-.2403114563-.0205529535-.3723246576v-1.4995751072c0-.0679828462.0324104267-.1019742693.0976265291-.1019742693h.3758818996c.0616588605,0,.0924882907.0339914231.0924882907.1019742693v1.4331732574c0,.0782593229.0051382384.1478231656.0154147151.2086915278.0098812276.0616588605.0284579356.1130412442.0557301239.1557281477.0268769392.0426869034.0644256042.0758878283.1114602478.0996027746.0474298927.0237149463.1102745005.0355724195.1881385743.0355724195.0541491275,0,.1142269916-.0086954803.1798383431-.0252959428.0660066007-.0173909607.1312227031-.0387344124.1956483074-.0640303551.0640303551-.0252959428.123317721-.0505918855.1774668485-.0766783265.0541491275-.0252959428.0980217782-.0466393945.1320132013-.0632398569v-1.7035236458c0-.0308294302.0067192348-.0553348748.0205529535-.0743068319.0134384696-.0181814589.0387344124-.0276674374.0762830774-.0276674374h.3620481809c.0644256042,0,.0968360309.0339914231.0968360309.1019742693v2.2995592972c0,.0648208533-.0324104267.09723128-.0968360309.09723128Z"/>
        <path class="cls-2" d="M5.9714234897,24.916226952c0,.0648208533-.0324104267.09723128-.0976265291.09723128h-.3707436612c-.0652161024,0-.0976265291-.0324104267-.0976265291-.09723128v-2.2995592972c0-.0679828462.0324104267-.1019742693.0976265291-.1019742693h.3656054228c.0683780953,0,.1027647675.0339914231.1027647675.1019742693v.2245014921l.0102764767.0102764768c.0371534159-.0339914231.0865595542-.071144839.1478231656-.1098792514s.1264797138-.0750973301.1964388056-.1067172586c.0695638426-.0324104267.1403134325-.0624493587.2114582716-.0893262979.0715400881-.0276674374.1379419379-.0458488963.1988103002-.056125373.0339914231-.0071144839.0612636114-.0055334875.0818165649.0047429893s.0339914231.0371534159.0407106579.0814213158l.0355724195.3422857256c.003557242.0371534159.0019762455.0640303551-.0047429893.0814213158-.0071144839.0166004624-.037548665.030038932-.0920930416.0403154088-.071144839.0142289678-.1462421691.030038932-.224106243.0490108891-.0782593229.0181814589-.1549376495.0387344124-.2296397304.0608683623s-.1446611727.0434774016-.2090867769.0640303551-.1189699808.0403154088-.1632378807.0608683623v1.6418647853Z"/>
        <path class="cls-2" d="M9.3318313867,23.7233651509c0,.1462421691-.0090907294.2972273275-.0276674374.4537459734-.0189719571.1565186459-.0656113516.3003893204-.1399181834.4308215253-.074702081.1312227031-.186952827.2379399617-.3359617399.3217327721-.149404162.0830023122-.3561194443.1248987174-.620541096.1248987174-.2545404241,0-.4549317207-.0418964052-.6003833916-.1248987174-.1462421691-.0837928104-.2553309223-.190510069-.3284520069-.3217327721-.0727258355-.1304322049-.1177842335-.2743028794-.1347799451-.4308215253s-.0252959428-.3075038043-.0252959428-.4537459734c0-.1193652299.011066975-.2513784313.0328056758-.3976206004.0221339499-.1462421691.0703543408-.2829983597.1450564218-.41105907.074702081-.1272702121.1841860833-.2339874706.3280567578-.3209422739.1442659236-.0869548033.3383332345-.1304322049.582992431-.1304322049.2474259402,0,.4450504931.0379439142.5924784095.112250746.1474279164.0750973301.2604691607.1731191083.3383332345.2932748365.0778640738.1209462264.1296417067.2561214205.1553328986.4055255825.0252959428.149404162.0379439142.2995988222.0379439142.4490029841ZM8.7658346673,23.7589375704c0-.1359656924-.0067192348-.2537499259-.0201577044-.3541431988-.0138337187-.1003932729-.041105907-.1841860833-.0818165649-.2497974348-.0407106579-.0664018498-.0968360309-.1169937353-.168376119-.1509851584-.071144839-.0339914231-.1648188771-.0505918855-.280231616-.0505918855-.1090887532,0-.1972293038.0166004624-.26521215.0505918855s-.1217367246.0853738068-.160866386.153356653-.0660066007.1517756566-.0814213158.2521689295-.0229244481.21659651-.0229244481.3494002095c0,.1359656924.007509733.2545404241.0229244481.3541431988.0154147151.1003932729.0415011561.1841860833.0790498211.2497974348.0371534159.0664018498.0901167961.1169937353.1580996423.1509851584s.1561233968.0505918855.26521215.0505918855c.1154127389,0,.2098772752-.0158099642.2829983597-.0482203909s.1300369558-.0814213158.1707476137-.1478231655.0679828462-.1501946602.0818165649-.2521689295c.0134384696-.1019742693.0201577044-.2213394992.0201577044-.3573051916Z"/>
        <path class="cls-2" d="M12.0400782593,23.7486610937c0,.2071105314-.0154147151.3928776111-.0462441454.5557202427-.0304341811.1636331298-.0837928104.3011798186-.1604711369.4134305646s-.1802335922.1968340547-.3110610462.2545404241-.2968320784.0869548033-.497223375.0869548033c-.0849785577,0-.1826050869-.0086954803-.2932748365-.0252959428-.1106697496-.0173909607-.2252919903-.0458488963-.3442619711-.0869548033l-.0051382384.0055334875v.89721547c0,.0268769392-.0059287366.0513823837-.0177862098.071144839-.0118574732.0205529535-.0383391633.0308294302-.0790498211.0308294302h-.3620481809c-.0407106579,0-.067192348-.0086954803-.0790498211-.0252959428-.0118574732-.0173909607-.0177862098-.0426869034-.0177862098-.0766783265v-3.233137685c0-.0679828462.0324104267-.1019742693.0968360309-.1019742693h.3620481809c.037548665,0,.0620541096.0094859785.0739115828.0276674374.0118574732.0189719571.0177862098.0434774016.0177862098.0743068319v.1525661548l.0154147151.0102764768c.0442678998-.030038932.0976265291-.0632398569.160866386-.0988122764.0628446078-.0363629177.1300369558-.0695638426.2011817948-.0996027746.0715400881-.0308294303.1446611727-.056125373.2193632537-.0766783265s.149404162-.0308294302.2245014921-.0308294302c.1663998735,0,.3039465623.0308294302.4130353155.0916977925.1086935041.0616588605.19446256.1478231655.2573071678.2577024169.0628446078.1106697496.1071125077.2442639474.1328036995.4007825932.0252959428.1557281477.0383391633.3312187506.0383391633.5248908124ZM11.4638050631,23.7439181044c0-.1636331298-.0079049821-.2940653347-.0229244481-.3928776111-.0154147151-.0988122764-.0403154088-.175490603-.0743068319-.2292444813-.0339914231-.0545443766-.0754925792-.0909072943-.1248987174-.1098792514-.0490108891-.0189719571-.1079030059-.0284579356-.1758858521-.0284579356-.0509871346,0-.1086935041.0086954803-.1731191083.026086441-.0648208533.0166004624-.1284559594.0363629177-.1913005672.0584968677-.0632398569.0221339499-.1225272228.0466393945-.1786525958.0735163337-.056125373.0276674374-.1027647675.0513823837-.1403134325.0719353372v1.2750736151c.115807988.0339914231.2201537519.0569158712.31382779.0687733444.093278789.0118574732.1841860833.0173909607.272721883.0173909607.0916977925,0,.1691666173-.0126479714.2320112251-.0379439142s.1138317425-.0703543408.1529614039-.1351751942.067192348-.1501946602.0841880595-.2577024169c.0169957115-.1067172586.0256911919-.2403114563.0256911919-.399992095Z"/>
        <path class="cls-2" d="M13.0191102943,23.9170372127c.0031619928.1288512085.0177862098.2363589652.0430821525.3209422739.0256911919.0853738068.0640303551.1525661548.1150174898.2015770439.0509871346.0498013873.1138317425.0845833086.1885338234.1043457639.074702081.0205529535.1648188771.0308294303.2703503883.0308294303.0916977925,0,.2003912966-.0063239857.3264757613-.0205529535.1256892156-.0134384696.2379399617-.0252959428.336356989-.0355724195.0478251418-.0063239857.0806308176-.0055334875.0996027746.0023714946.018576708.0086954803.0312246794.0371534159.0383391633.0845833086l.0304341811.168376119c.0067192348.0371534159.0059287366.0679828462-.0023714946.0916977925-.0086954803.0237149463-.0367581668.0458488963-.0841880595.0664018498-.0509871346.0205529535-.1106697496.0379439142-.1786525958.0537538784-.0679828462.015019466-.1395229343.0276674374-.2142250153.0379439142s-.149404162.0181814589-.2245014921.0252959428c-.074702081.0071144839-.1426849272.0102764767-.2039485386.0102764767-.2446591965,0-.4403075038-.0355724195-.5861544238-.1067172586-.1462421691-.0719353372-.2584929152-.1667951226-.3367522381-.2861603526-.0782593229-.1185747317-.1300369558-.2553309223-.1557281477-.4102685718-.0252959428-.1549376495-.0379439141-.3154087864-.0379439141-.482203909,0-.1217367246.0102764767-.2600739116.0304341811-.4126400664.0205529535-.153356653.067192348-.2956463311.1403134325-.4284500306s.1818145886-.2442639474.3264757613-.3343807435c.1442659236-.0901167961.3407047292-.1351751942.5889211676-.1351751942.2276634849,0,.4122448173.0339914231.5533487481.1019742693.1411039308.0687733444.250587933.1557281477.328847256.2632359044.0782593229.1067172586.1316179522.2292444813.1604711369.3667911701s.0450583981.2750933776.04861564.4102685718c.0031619928.0924882907-.0118574732.1667951226-.0458488963.2245014921-.0339914231.0584968677-.1019742693.0869548033-.2039485386.0869548033h-1.3513566926ZM13.5289816407,22.9273334519c-.0952550345,0-.1735143574.0142289678-.2347779688.041105907-.0608683623.0268769392-.1110649987.0664018498-.1501946602.1185747317s-.067192348.1162032371-.0841880595.1920910654-.0288531847.1612616351-.0355724195.2553309223h1.0094662161c0-.0774688247-.0067192348-.1525661548-.0201577044-.2252919903-.0138337187-.0719353372-.0383391633-.1367561906-.0739115828-.19446256-.0359676686-.0569158712-.0869548033-.1027647675-.153356653-.1367561906-.0660066007-.0332009249-.1521709057-.0505918855-.2573071678-.0505918855Z"/>
        <path class="cls-2" d="M16.6601450564,24.7225548902c-.1292464576.0988122764-.2746981285.1786525958-.4363550127.2395209581-.1612616351.0616588605-.328847256.0924882907-.5019663643.0924882907-.1363609415,0-.2494021857-.0181814589-.3391237327-.0537538784-.0901167961-.0355724195-.1616568843-.0853738068-.2142250153-.1478231656-.0529633802-.0632398569-.0901167961-.138337187-.112250746-.2268729867s-.0332009249-.1873480761-.0332009249-.2956463311c-.003557242-.2995988222.074702081-.5161953321.2343827197-.6505800281.1600758878-.134384696.4011778423-.2015770439.7244916108-.2015770439h.6525562736v-.1335941977c0-.0758878283-.007509733-.1399181834-.0229244481-.1928815636-.0154147151-.0537538784-.0434774016-.09723128-.0841880595-.1312227031-.0407106579-.0347819213-.0952550345-.0584968677-.1632378807-.0719353372-.0679828462-.0142289678-.1545424003-.0213434517-.2600739116-.0213434517-.0407106579,0-.0909072943.0023714946-.1501946602.0055334875-.059682615.0031619928-.1209462264.0071144839-.1837908342.0102764768s-.1256892156.0086954803-.1885338234.015019466c-.0632398569.0071144839-.119760479.0118574732-.1711428628.0158099642-.0509871346.0063239857-.085769056.0071144839-.1043457639.0023714946-.018576708-.0055334875-.0316199285-.0268769392-.0383391633-.0640303551l-.0458488963-.1865575779c-.0067192348-.0332009249-.0035572419-.0608683623.0102764767-.0830023122.0134384696-.0221339499.0490108891-.0442678998.1071125077-.0679828462.0541491275-.0205529535.1189699808-.0371534159.1936720618-.0505918855s.1513804075-.0245054446.2296397304-.0332009249c.0782593229-.0079049821.1553328986-.015019466.2320112251-.0197624553.0762830774-.0047429893.1454516709-.0079049821.2063200332-.0079049821.2209442501,0,.3972253513.0221339499.5280528053.0664018498s.2300349795.1067172585.2984130748.1865575779c.0679828462.0798403194.1118554969.1778620976.1324084504.2932748365s.0304341811.2442639474.0304341811.3873441236v.9841702733c0,.0513823837.0027667437.0909072943.0079049821.1201557281.0051382384.0284579356.0134384696.0505918855.0252959428.0664018498.0118574732.015019466.0296436829.026086441.0537538784.0324104267.0237149463.0071144839.056125373.0126479714.0968360309.0158099642.0371534159.0031619928.0628446078.0102764767.0762830774.0205529535.0138337187.0102764768.0205529535.0284579356.0205529535.056125373v.2142250153c0,.0577063694-.0407106579.093278789-.1225272228.1067172586-.0407106579.0071144839-.0814213158.0126479714-.1221319737.0181814589-.0407106579.0047429893-.0798403194.0071144839-.1173889844.0071144839-.1189699808,0-.2150155135-.0221339499-.2881365981-.0664018498-.0731210846-.0434774016-.123317721-.1256892156-.1505899093-.2442639474l-.0098812276-.0055334875ZM16.6293156262,23.8759313057h-.6221220924c-.1292464576,0-.2312207269.030038932-.3059228078.0893262979-.074702081.0600778641-.112250746.1731191083-.112250746.3391237327,0,.112250746.0229244481.1897195708.0687733444.2324064742s.1284559594.0632398569.2474259402.0632398569c.0545443766,0,.1138317425-.0063239857.1786525958-.0197624553.0644256042-.0134384696.1288512085-.0324104267.1936720618-.056125373.0644256042-.0237149463.127270212-.0505918855.1885338234-.0790498211.0612636114-.0292484338.115807988-.0569158712.1632378807-.0845833086v-.4845754036Z"/>
        <path class="cls-2" d="M19.9794470465,24.9881622893c-.0138337187.0166004624-.0395249106.0252959428-.0770735756.0252959428h-.3703484121c-.0652161024,0-.0980217782-.0324104267-.0980217782-.09723128l.0051382384-1.4323827592c0-.1501946602-.0245054446-.2703503883-.0739115828-.3620481809-.0494061382-.0924882907-.1470326673-.138337187-.2932748365-.138337187-.0509871346,0-.1094840023.0086954803-.1758858521.026086441-.0664018498.0166004624-.1324084504.0379439142-.1988103002.0632398569-.0664018498.026086441-.1284559594.0513823837-.1861623288.0766783265-.0581016185.0252959428-.1039505148.0466393945-.1379419379.0640303551v1.7027331476c0,.0648208533-.0320151776.09723128-.0968360309.09723128h-.3620481809c-.0644256042,0-.0968360309-.0324104267-.0968360309-.09723128v-2.2995592972c0-.0679828462.0324104267-.1019742693.0968360309-.1019742693h.3620481809c.0648208533,0,.0968360309.0339914231.0968360309.1019742693v.1525661548c.003557242,0,.0059287366.0015809964.0079049821.0031619928.0015809964.0015809964.0043477402.0023714946.007509733.0023714946.0478251418-.0339914231.104741013-.0687733444.1715381119-.1043457639.0664018498-.0355724195.1371514397-.0687733444.2122487698-.0996027747s.153356653-.0553348748.2351732179-.0743068319c.0818165649-.0181814589.1620521334-.0276674374.2407067054-.0276674374.1739096065,0,.310270548.026086441.4090828244.0790498211s.1739096065.123317721.2252919903.2118535207c.0509871346.0877453015.0833975613.190510069.09723128.3082943025.0134384696.1169937353.0201577044.2403114563.0201577044.369953163v1.4782316555c0,.0308294303-.0067192348.0545443766-.0205529535.0719353372Z"/>
        <path class="cls-2" d="M1.091282781,31c-.0644256042,0-.1391276852-.0023714946-.224106243-.0079049821-.0849785577-.0047429893-.1727238592-.0134384696-.2628406553-.0252959428s-.179443094-.0268769392-.2675836446-.0458488963c-.0885357997-.0189719571-.1648188771-.0418964052-.2296397304-.0687733444-.0577063694-.0237149463-.0909072943-.0474298927-.0992075255-.071144839-.0086954803-.0237149463-.0094859785-.0529633802-.0027667437-.0869548033l.0458488963-.209482026c.0102764767-.0434774016.0249006937-.0695638426.0434774016-.0758878283.018576708-.0071144839.0501966364-.0071144839.0944645363,0,.0644256042.0063239857.1375466888.0142289678.2193632537.0229244481.0814213158.0086954803.1628426316.0158099642.2446591965.0229244481.0814213158.0063239857.1604711369.0126479714.2371494635.0173909607.0762830774.0055334875.1434754254.0079049821.2011817948.0079049821.4351692654,0,.6529515227-.149404162.6529515227-.4490029841,0-.0916977925-.0102764767-.1667951226-.0304341811-.2268729867-.0205529535-.0592873659-.0545443766-.1090887532-.1023695184-.1501946602-.0474298927-.041105907-.1094840023-.0727258355-.1857670797-.09723128-.0766783265-.0237149463-.1727238592-.0458488963-.2881365981-.0656113516-.1497994111-.0308294302-.2932748365-.0648208533-.4312167744-.1027647675-.1375466888-.0371534159-.2592834134-.0893262979-.3644196755-.1580996423-.1055315112-.067192348-.1889290725-.1573091441-.2497974348-.2695598901C.0308294303,28.8482638683,0,28.705183692,0,28.5320645837,0,28.2087508152.1027647675,27.9621153732.3086895516,27.7921582577c.205529535-.1699571155.4885278947-.2545404241.8489950791-.2545404241.0478251418,0,.1098792514.0015809964.1861623288.0047429893.0766783265.0031619928.1580996423.0094859785.2446591965.0181814589.0869548033.0086954803.1743048556.0221339499.2628406553.0403154088.0881405506.0189719571.1699571155.0434774016.2446591965.0743068319.0577063694.0237149463.0909072943.0474298927.0996027746.071144839.0083002312.0237149463.0090907294.0529633802.0023714946.0869548033l-.0509871346.2086915278c-.0102764768.041105907-.0252959428.0656113516-.0458488963.0743068319s-.0545443766.011066975-.1019742693.0079049821c-.1154127389-.0173909607-.2422877018-.0324104267-.3798343906-.0458488963-.1379419379-.0142289678-.2829983597-.0205529535-.4359597636-.0205529535-.2177822573,0-.369953163.0395249106-.4565127171.1193652299s-.1300369558.1913005672-.1300369558.3343807435c0,.0814213158.011066975.1470326673.0332009249.1960435565.0221339499.0498013873.0569158712.0893262979.1043457639.1201557281.0478251418.0308294302.1098792514.0553348748.1861623288.0735163337.0766783265.0189719571.1707476137.0387344124.2829983597.0592873659.1462421691.030038932.2873460999.0640303551.4233117923.1019742693.1359656924.0371534159.2557261714.0916977925.3596766862.1628426316.1035552657.071144839.186952827.1667951226.2497974348.2853698544.0628446078.1193652299.0944645363.2758838758.0944645363.4695559376s-.0339914231.354933697-.1019742693.4845754036c-.0683780953.1288512085-.1592853896.2331969724-.2731171321.3130372918-.1138317425.0806308176-.2454496947.1375466888-.3952491057.1715381119-.149404162.0332009249-.3059228078.0505918855-.4691606885.0505918855Z"/>
        <path class="cls-2" d="M4.3908223158,30.7604790419c.0102764767.0577063694-.0118574732.1003932729-.0664018498.1272702121-.0442678998.0205529535-.0960455327.0379439142-.1553328986.0513823837-.059682615.0134384696-.1209462264.0245054446-.1837908342.0332009249-.0628446078.0079049821-.1221319737.0142289678-.1782573467.0173909607s-.104741013.0055334875-.1454516709.0055334875c-.1497994111,0-.2660026482-.0213434517-.3494002095-.0640303551s-.1454516709-.1011837711-.1861623288-.1762811012c-.0407106579-.0743068319-.0664018498-.1612616351-.0762830774-.2600739116-.0102764767-.0980217782-.0154147151-.2015770439-.0154147151-.3106657971v-1.2798166044h-.2549356732c-.037548665,0-.0628446078-.0079049821-.0766783265-.0229244481-.0134384696-.0158099642-.0201577044-.0403154088-.0201577044-.0743068319v-.2497974348c0-.0339914231.0067192348-.0592873659.0201577044-.0766783265.0138337187-.0166004624.0391296615-.0252959428.0766783265-.0252959428h.2600739116v-.5256813106c0-.0371534159.0090907294-.0632398569.0280626865-.0790498211.018576708-.015019466.0415011561-.026086441.0687733444-.0324104267l.3414952274-.0924882907c.0679828462-.0166004624.1019742693.0039524911.1019742693.0616588605v.6679709887h.545839015c.0407106579,0,.067192348.0086954803.0790498211.0252959428.0118574732.0173909607.0177862098.041105907.0177862098.071144839v.2553309223c0,.0339914231-.0059287366.0584968676-.0177862098.0743068319-.0118574732.015019466-.0383391633.0229244481-.0790498211.0229244481h-.545839015v1.2695401277c0,.0679828462.0051382384.1209462264.0154147151.1580996423s.0280626865.0656113516.0537538784.0837928104c.0252959428.0189719571.0600778641.030038932.1043457639.0332009249.0442678998.0039524911.1003932729.0055334875.168376119.0055334875.0371534159,0,.0909072943-.0015809964.1604711369-.0055334875.0699590917-.0031619928.1300369558-.0079049821.1810240904-.015019466.0272721883-.0031619928.0478251418,0,.0612636114.0102764768.0138337187.0102764767.0237149463.0308294302.0308294302.0608683623l.0355724195.2553309223Z"/>
        <path class="cls-2" d="M6.7417639968,30.9541511037h-.3620481809c-.037548665,0-.0628446078-.0086954803-.0762830774-.0252959428-.0138337187-.0173909607-.0205529535-.041105907-.0205529535-.0719353372v-.1580996423l-.0102764767-.0047429893c-.0509871346.0339914231-.1094840023.0687733444-.1758858521.1043457639s-.1367561906.0687733444-.2114582716.0996027746c-.0750973301.0308294302-.1521709057.0553348748-.2320112251.0743068319-.0802355685.0181814589-.1592853896.0276674374-.2371494635.0276674374-.1735143574,0-.310270548-.0237149463-.4106638209-.071144839s-.1758858521-.1138317425-.2268729867-.1992055493c-.0509871346-.0845833086-.0833975613-.1849765815-.0968360309-.3003893204-.0138337187-.1162032371-.0205529535-.2403114563-.0205529535-.3723246576v-1.4995751072c0-.0679828462.0324104267-.1019742693.0976265291-.1019742693h.3758818996c.0616588605,0,.0924882907.0339914231.0924882907.1019742693v1.4331732574c0,.0782593229.0051382384.1478231655.0154147151.2086915278.0098812276.0616588605.0284579356.1130412442.0557301239.1557281477.0268769392.0426869034.0644256042.0758878283.1114602478.0996027746.0474298927.0237149463.1102745005.0355724195.1881385743.0355724195.0541491275,0,.1142269916-.0086954803.1798383431-.0252959428.0660066007-.0173909607.1312227031-.0387344124.1956483073-.0640303551.0640303551-.0252959428.123317721-.0505918855.1774668485-.0766783265.0541491275-.0252959428.0980217782-.0466393945.1320132013-.0632398569v-1.7035236458c0-.0308294302.0067192348-.0553348748.0205529535-.0743068319.0134384696-.0181814589.0387344124-.0276674374.0762830774-.0276674374h.3620481809c.0644256042,0,.0968360309.0339914231.0968360309.1019742693v2.2995592972c0,.0648208533-.0324104267.09723128-.0968360309.09723128Z"/>
        <path class="cls-2" d="M9.5314321851,30.8569198237c0,.0308294303-.0059287366.0545443766-.0181814589.0719353372-.0118574732.0166004624-.0363629177.0252959428-.0739115828.0252959428h-.3671864192c-.0608683623,0-.0916977925-.030038932-.0916977925-.0909072943v-.1612616351c-.0031619928,0-.0059287366-.0007904982-.007509733-.0023714946-.0019762455-.0015809964-.0043477402-.0023714946-.0079049821-.0023714946-.0438726507.030038932-.0968360309.0632398569-.1580996423.0980217782-.0608683623.0355724195-.1272702121.0687733444-.1988103002.0988122764-.071144839.030038932-.1450564218.0545443766-.2217347483.0735163337-.0762830774.0181814589-.1521709057.0276674374-.2268729867.0276674374-.1667951226,0-.3035513132-.030038932-.4106638209-.0893262979s-.1920910654-.1438706745-.2549356732-.2529594277c-.0628446078-.108298255-.1071125077-.2403114563-.1324084504-.3952491057-.0256911919-.1541471512-.0383391633-.328847256-.0383391633-.5225193178,0-.2071105314.0142289678-.3936681093.0434774016-.5580917373.0288531847-.1652141262.0806308176-.3051323096.1553328986-.4205450485.074702081-.1162032371.1774668485-.2031580404.3086895516-.2632359044.130827454-.0592873659.2999940713-.0893262979.5071046027-.0893262979.2110630225,0,.4217307958.0395249106.6323985692.1177842335.003557242,0,.0051382384-.0007904982.0051382384-.0023714946,0-.0023714946.0019762455-.0031619928.0051382384-.0031619928v-1.0553151123c0-.0339914231.0059287366-.0592873659.0177862098-.0766783265.0118574732-.0166004624.0383391633-.0252959428.0790498212-.0252959428h.3620481809c.041105907,0,.0664018498.0094859785.0766783265.0276674374.0102764767.0189719571.0154147151.0434774016.0154147151.0743068319v3.3959803166ZM8.9753166933,28.9810675678c-.1193652299-.0339914231-.2260824885-.0569158712-.3201517757-.0695638426-.0940692872-.0118574732-.1833955851-.0173909607-.269164641-.0173909607-.0920930416,0-.1707476137.0134384696-.235568467.041105907-.0648208533.0268769392-.1162032371.0727258355-.1537519021.1375466888s-.0648208533.1509851584-.0818165649.2584929152-.0256911919.2411019545-.0256911919.4015730914c0,.1636331298.007509733.2956463311.0229244481.3968301022.0154147151.1003932729.0403154088.1770715994.0743068319.2300349795.0343866722.0529633802.0754925792.0885357997.1229224719.1075077568.0478251418.0189719571.1059267603.0276674374.1743048556.0276674374.0513823837,0,.1094840023-.0079049821.1743048556-.0252959428s.1296417067-.0371534159.1948578091-.0616588605c.0648208533-.0237149463.1252939665-.0482203909.1818145886-.0735163337.056125373-.026086441.1031600166-.0490108891.1407086816-.0695638426v-1.2837690955Z"/>
        <path class="cls-2" d="M10.607300251,29.8577300844c.0031619928.1288512085.0177862098.2363589652.0430821525.3209422739.0256911919.0853738068.0640303551.1525661548.1150174898.2015770439.0509871346.0498013873.1138317425.0845833086.1885338234.1043457639.074702081.0205529535.1648188771.0308294303.2703503883.0308294303.0916977925,0,.2003912966-.0063239857.3264757614-.0205529535.1256892156-.0134384696.2379399617-.0252959428.336356989-.0355724195.0478251418-.0063239857.0806308176-.0055334875.0996027747.0023714946.018576708.0086954803.0312246793.0371534159.0383391633.0845833086l.0304341811.168376119c.0067192348.0371534159.0059287366.0679828462-.0023714946.0916977925-.0086954803.0237149463-.0367581668.0458488963-.0841880595.0664018498-.0509871346.0205529535-.1106697496.0379439142-.1786525958.0537538784-.0679828462.015019466-.1395229343.0276674374-.2142250153.0379439142s-.149404162.0181814589-.2245014921.0252959428c-.074702081.0071144839-.1426849272.0102764767-.2039485386.0102764767-.2446591965,0-.4403075038-.0355724195-.5861544238-.1067172586-.1462421691-.0719353372-.2584929152-.1667951226-.3367522381-.2861603526-.0782593229-.1185747317-.1300369558-.2553309223-.1557281477-.4102685718-.0252959428-.1549376494-.0379439141-.3154087864-.0379439141-.482203909,0-.1217367246.0102764768-.2600739116.0304341811-.4126400664.0205529535-.153356653.067192348-.2956463311.1403134325-.4284500306s.1818145886-.2442639474.3264757614-.3343807435c.1442659236-.0901167961.3407047292-.1351751942.5889211676-.1351751942.2276634849,0,.4122448173.0339914231.553348748.1019742693.1411039308.0687733444.250587933.1557281477.328847256.2632359044.0782593229.1067172586.1316179522.2292444813.1604711369.3667911701s.0450583981.2750933776.04861564.4102685718c.0031619928.0924882907-.0118574732.1667951226-.0458488963.2245014921-.0339914231.0584968677-.1019742693.0869548033-.2039485386.0869548033h-1.3513566926ZM11.1171715974,28.8680263236c-.0952550345,0-.1735143574.0142289678-.2347779688.041105907-.0608683623.0268769392-.1110649987.0664018498-.1501946602.1185747317s-.067192348.1162032371-.0841880595.1920910654-.0288531847.1612616351-.0355724195.2553309223h1.0094662161c0-.0774688247-.0067192348-.1525661548-.0201577044-.2252919903-.0138337187-.0719353372-.0383391633-.1367561906-.0739115828-.19446256-.0359676686-.0569158712-.0869548033-.1027647675-.153356653-.1367561906-.0660066007-.0332009249-.1521709057-.0505918855-.2573071678-.0505918855Z"/>
        <path class="cls-2" d="M14.8139364835,30.928855161c-.0138337187.0166004624-.0395249106.0252959428-.0770735756.0252959428h-.3703484121c-.0652161024,0-.0980217782-.0324104267-.0980217782-.09723128l.0051382384-1.4323827592c0-.1501946602-.0245054446-.2703503883-.0739115828-.3620481809-.0494061382-.0924882907-.1470326673-.138337187-.2932748365-.138337187-.0509871346,0-.1094840023.0086954803-.1758858521.026086441-.0664018498.0166004624-.1324084504.0379439142-.1988103002.0632398569-.0664018498.026086441-.1284559594.0513823837-.1861623288.0766783265-.0581016185.0252959428-.1039505148.0466393945-.1379419379.0640303551v1.7027331476c0,.0648208533-.0320151776.09723128-.0968360309.09723128h-.3620481809c-.0644256042,0-.0968360309-.0324104267-.0968360309-.09723128v-2.2995592972c0-.0679828462.0324104267-.1019742693.0968360309-.1019742693h.3620481809c.0648208533,0,.0968360309.0339914231.0968360309.1019742693v.1525661548c.003557242,0,.0059287366.0015809964.0079049821.0031619928.0015809964.0015809964.0043477402.0023714946.007509733.0023714946.0478251418-.0339914231.104741013-.0687733444.1715381119-.1043457639.0664018498-.0355724195.1371514397-.0687733444.2122487698-.0996027746s.153356653-.0553348748.2351732179-.0743068319c.0818165649-.0181814589.1620521334-.0276674374.2407067054-.0276674374.1739096065,0,.310270548.026086441.4090828244.0790498211s.1739096065.123317721.2252919903.2118535207c.0509871346.0877453015.0833975613.190510069.09723128.3082943025.0134384696.1169937353.0201577044.2403114563.0201577044.369953163v1.4782316555c0,.0308294303-.0067192348.0545443766-.0205529535.0719353372Z"/>
        <path class="cls-2" d="M16.920218968,30.7604790419c.0102764767.0577063694-.0118574732.1003932729-.0664018498.1272702121-.0442678998.0205529535-.0960455327.0379439142-.1553328986.0513823837-.059682615.0134384696-.1209462264.0245054446-.1837908342.0332009249-.0628446078.0079049821-.1221319737.0142289678-.1782573467.0173909607s-.104741013.0055334875-.1454516709.0055334875c-.1497994111,0-.2660026482-.0213434517-.3494002095-.0640303551s-.1454516709-.1011837711-.1861623288-.1762811012c-.0407106579-.0743068319-.0664018498-.1612616351-.0762830774-.2600739116-.0102764768-.0980217782-.0154147151-.2015770439-.0154147151-.3106657971v-1.2798166044h-.2549356732c-.037548665,0-.0628446078-.0079049821-.0766783265-.0229244481-.0134384696-.0158099642-.0201577044-.0403154088-.0201577044-.0743068319v-.2497974348c0-.0339914231.0067192348-.0592873659.0201577044-.0766783265.0138337187-.0166004624.0391296615-.0252959428.0766783265-.0252959428h.2600739116v-.5256813106c0-.0371534159.0090907294-.0632398569.0280626865-.0790498211.018576708-.015019466.0415011561-.026086441.0687733444-.0324104267l.3414952274-.0924882907c.0679828462-.0166004624.1019742693.0039524911.1019742693.0616588605v.6679709887h.545839015c.0407106579,0,.067192348.0086954803.0790498212.0252959428.0118574732.0173909607.0177862098.041105907.0177862098.071144839v.2553309223c0,.0339914231-.0059287366.0584968676-.0177862098.0743068319-.0118574732.015019466-.0383391633.0229244481-.0790498212.0229244481h-.545839015v1.2695401277c0,.0679828462.0051382384.1209462264.0154147151.1580996423s.0280626865.0656113516.0537538784.0837928104c.0252959428.0189719571.0600778641.030038932.1043457639.0332009249.0442678998.0039524911.1003932729.0055334875.168376119.0055334875.0371534159,0,.0909072943-.0015809964.1604711369-.0055334875.0699590917-.0031619928.1300369558-.0079049821.1810240904-.015019466.0272721883-.0031619928.0478251418,0,.0612636114.0102764768.0138337187.0102764767.0237149463.0308294302.0308294302.0608683623l.0355724195.2553309223Z"/>
        <path class="cls-2" d="M.0715400881,35.291733365c0-.2173870082.0169957115-.4316120235.0509871346-.642675046s.1011837711-.3984110986.2015770439-.5636252248c.0999980238-.164423628.2395209581-.2980178257.4181735539-.399992095.1782573467-.1019742693.4138258137-.153356653.706310152-.153356653.0608683623,0,.1316179522.0023714946.2114582716.0079049821.0798403194.0047429893.1624473825.0134384696.2474259402.0252959428s.168376119.0276674374.2497974348.0458488963c.0814213158.0189719571.1565186459.0418964052.2245014921.0687733444.0407106579.0173909607.0687733444.0379439142.0841880595.0616588605.015019466.0237149463.0193672062.056125373.0126479714.0964407818l-.0458488963.209482026c-.0071144839.0308294302-.0189719571.0529633802-.0359676686.0664018498s-.0490108891.0166004624-.0968360309.0102764768c-.1256892156-.0173909607-.2608644098-.0324104267-.4051303334-.0458488963-.1446611727-.0142289678-.2833936088-.0205529535-.4158020592-.0205529535-.1735143574,0-.3126420426.0324104267-.4181735539.0964407818-.1055315112.0648208533-.1861623288.153356653-.2422877018.2656073991s-.0924882907.2418924527-.1094840023.3897156183-.0256911919.3051323096-.0256911919.4719274323.0102764768.3233137685.0308294302.4695559376c.0201577044.1454516709.0592873659.272721883.1169937353.3794391415.0581016185.1075077568.1387324361.1913005672.2422877018.2521689295.1039505148.0616588605.2387304599.0924882907.4055255825.0924882907.149404162,0,.2889270963-.0071144839.4181735539-.0205529535s.2632359044-.0292484338.4027588388-.0458488963c.0478251418-.0071144839.0798403194-.0039524911.0968360309.0102764767.0169957116.0134384696.0308294303.0371534159.041105907.071144839l.0407106579.1936720618c.0201577044.0750973301-.0086954803.1296417067-.0865595542.1636331298-.0612636114.0268769392-.1335941977.0498013873-.2169917591.0687733444-.0833975613.0181814589-.168376119.0347819213-.2549356732.0482203909s-.1715381119.0229244481-.2549356732.0276674374c-.0833975613.0055334875-.1557281477.0079049821-.2165965099.0079049821-.2857651035,0-.5177763285-.0482203909-.6964289243-.1454516709-.1782573467-.0964407818-.317780281-.2252919903-.4181735539-.384972629-.0999980238-.1596806387-.1691666173-.3414952274-.2063200332-.5454437659-.037548665-.2039485386-.056125373-.415011561-.056125373-.6323985692Z"/>
        <path class="cls-2" d="M4.4726388807,36.6632477619c-.1292464576.0988122764-.2746981285.1786525958-.4363550127.2395209581-.1612616351.0616588605-.328847256.0924882907-.5019663643.0924882907-.1363609415,0-.2494021857-.0181814589-.3391237327-.0537538784-.0901167961-.0355724195-.1616568843-.0853738068-.2142250153-.1478231656-.0529633802-.0632398569-.0901167961-.138337187-.112250746-.2268729867s-.0332009249-.1873480761-.0332009249-.2956463311c-.003557242-.2995988222.074702081-.5161953321.2343827197-.6505800281.1600758878-.134384696.4011778423-.2015770439.7244916108-.2015770439h.6525562736v-.1335941977c0-.0758878283-.007509733-.1399181834-.0229244481-.1928815636-.0154147151-.0537538784-.0434774016-.09723128-.0841880595-.1312227031-.0407106579-.0347819213-.0952550345-.0584968677-.1632378807-.0719353372-.0679828462-.0142289678-.1545424004-.0213434517-.2600739116-.0213434517-.0407106579,0-.0909072943.0023714946-.1501946602.0055334875-.059682615.0031619928-.1209462264.0071144839-.1837908342.0102764768s-.1256892156.0086954803-.1885338234.015019466c-.0632398569.0071144839-.119760479.0118574732-.1711428628.0158099642-.0509871346.0063239857-.0857690559.0071144839-.1043457639.0023714946-.018576708-.0055334875-.0316199285-.0268769392-.0383391633-.0640303551l-.0458488963-.1865575779c-.0067192348-.0332009249-.003557242-.0608683623.0102764767-.0830023122.0134384696-.0221339499.0490108891-.0442678998.1071125077-.0679828462.0541491275-.0205529535.1189699808-.0371534159.1936720618-.0505918855s.1513804075-.0245054446.2296397304-.0332009249c.0782593229-.0079049821.1553328986-.015019466.2320112251-.0197624553.0762830774-.0047429893.1454516709-.0079049821.2063200332-.0079049821.2209442501,0,.3972253513.0221339499.5280528053.0664018498s.2300349795.1067172586.2984130748.1865575779c.0679828462.0798403194.1118554969.1778620976.1324084504.2932748365s.0304341811.2442639474.0304341811.3873441236v.9841702733c0,.0513823837.0027667437.0909072943.0079049821.1201557281.0051382384.0284579356.0134384696.0505918855.0252959428.0664018498.0118574732.015019466.0296436829.026086441.0537538784.0324104267.0237149463.0071144839.056125373.0126479714.0968360309.0158099642.0371534159.0031619928.0628446078.0102764767.0762830774.0205529535.0138337187.0102764767.0205529535.0284579356.0205529535.056125373v.2142250153c0,.0577063694-.0407106579.093278789-.1225272228.1067172586-.0407106579.0071144839-.0814213158.0126479714-.1221319737.0181814589-.0407106579.0047429893-.0798403194.0071144839-.1173889844.0071144839-.1189699808,0-.2150155135-.0221339499-.2881365981-.0664018498-.0731210846-.0434774016-.123317721-.1256892156-.1505899093-.2442639474l-.0098812276-.0055334875ZM4.4418094504,35.8166241774h-.6221220924c-.1292464576,0-.2312207269.030038932-.3059228079.0893262979-.074702081.0600778641-.112250746.1731191083-.112250746.3391237327,0,.112250746.0229244481.1897195708.0687733444.2324064742s.1284559594.0632398569.2474259402.0632398569c.0545443766,0,.1138317425-.0063239857.1786525958-.0197624553.0644256042-.0134384696.1288512085-.0324104267.1936720618-.056125373.0644256042-.0237149463.127270212-.0505918855.1885338234-.0790498212.0612636114-.0292484338.115807988-.0569158712.1632378807-.0845833086v-.4845754037Z"/>
        <path class="cls-2" d="M6.3081757278,36.8569198237c0,.0648208533-.0324104267.09723128-.0976265291.09723128h-.3707436612c-.0652161024,0-.0976265291-.0324104267-.0976265291-.09723128v-2.2995592972c0-.0679828462.0324104267-.1019742693.0976265291-.1019742693h.3656054228c.0683780953,0,.1027647675.0339914231.1027647675.1019742693v.2245014921l.0102764767.0102764767c.0371534159-.0339914231.0865595542-.071144839.1478231656-.1098792514s.1264797138-.0750973301.1964388056-.1067172585c.0695638426-.0324104267.1403134325-.0624493587.2114582716-.0893262979.0715400881-.0276674374.1379419379-.0458488963.1988103002-.056125373.0339914231-.0071144839.0612636114-.0055334875.0818165649.0047429893s.0339914231.0371534159.0407106579.0814213158l.0355724195.3422857256c.003557242.0371534159.0019762455.0640303551-.0047429893.0814213158-.0071144839.0166004624-.037548665.030038932-.0920930416.0403154088-.071144839.0142289678-.1462421691.030038932-.224106243.0490108891-.0782593229.0181814589-.1549376495.0387344124-.2296397304.0608683623s-.1446611727.0434774016-.2090867769.0640303551-.1189699808.0403154088-.1632378807.0608683623v1.6418647853Z"/>
        <path class="cls-2" d="M9.6535641588,36.8569198237c0,.0308294302-.0059287366.0545443766-.0181814589.0719353372-.0118574732.0166004624-.0363629177.0252959428-.0739115828.0252959428h-.3671864192c-.0608683623,0-.0916977925-.030038932-.0916977925-.0909072943v-.1612616351c-.0031619928,0-.0059287366-.0007904982-.007509733-.0023714946-.0019762455-.0015809964-.0043477402-.0023714946-.0079049821-.0023714946-.0438726507.030038932-.0968360309.0632398569-.1580996423.0980217782-.0608683623.0355724195-.1272702121.0687733444-.1988103002.0988122764-.071144839.030038932-.1450564218.0545443766-.2217347483.0735163337-.0762830774.0181814589-.1521709057.0276674374-.2268729867.0276674374-.1667951226,0-.3035513132-.030038932-.4106638209-.0893262979s-.1920910654-.1438706745-.2549356732-.2529594277c-.0628446078-.108298255-.1071125077-.2403114563-.1324084504-.3952491057-.0256911919-.1541471512-.0383391633-.328847256-.0383391633-.5225193178,0-.2071105314.0142289678-.3936681093.0434774016-.5580917373.0288531847-.1652141262.0806308176-.3051323096.1553328986-.4205450485.074702081-.1162032371.1774668485-.2031580404.3086895516-.2632359044.130827454-.0592873659.2999940713-.0893262979.5071046027-.0893262979.2110630225,0,.4217307958.0395249106.6323985692.1177842335.003557242,0,.0051382384-.0007904982.0051382384-.0023714946,0-.0023714946.0019762455-.0031619928.0051382384-.0031619928v-1.0553151123c0-.0339914231.0059287366-.0592873659.0177862098-.0766783265.0118574732-.0166004624.0383391633-.0252959428.0790498212-.0252959428h.3620481809c.041105907,0,.0664018498.0094859785.0766783265.0276674374.0102764767.0189719571.0154147151.0434774016.0154147151.0743068319v3.3959803166ZM9.097448667,34.9810675678c-.1193652299-.0339914231-.2260824885-.0569158712-.3201517757-.0695638426-.0940692872-.0118574732-.1833955851-.0173909607-.269164641-.0173909607-.0920930416,0-.1707476137.0134384696-.235568467.041105907-.0648208533.0268769392-.1162032371.0727258355-.1537519021.1375466888s-.0648208533.1509851584-.0818165649.2584929152-.0256911919.2411019545-.0256911919.4015730914c0,.1636331298.007509733.2956463311.0229244481.3968301022.0154147151.1003932729.0403154088.1770715994.0743068319.2300349795.0343866722.0529633802.0754925792.0885357997.1229224719.1075077568.0478251418.0189719571.1059267603.0276674374.1743048556.0276674374.0513823838,0,.1094840023-.0079049821.1743048556-.0252959428s.1296417067-.0371534159.1948578091-.0616588605c.0648208533-.0237149463.1252939665-.0482203909.1818145886-.0735163337.056125373-.026086441.1031600166-.0490108891.1407086816-.0695638426v-1.2837690955Z"/>
      </g>
      <g>
        <rect class="cls-2" x="0" y="4" width="20" height="13.3335185196"/>
        <g>
          <polygon class="cls-3" points="9.5738417958 6.9051537733 9.9958635246 6.5971723395 10.417892844 6.9051537733 10.2572937254 6.4070957783 10.6859303697 6.0991143445 10.157569292 6.0991143445 9.9958635246 5.5949985538 9.8341648093 6.0996635653 9.3060787655 6.0991143445 9.7344403759 6.4070957783 9.5738417958 6.9051537733"/>
          <polygon class="cls-3" points="7.3898759993 7.4919136935 7.8119047803 7.1839314404 8.2336585274 7.4919136935 8.073327929 6.9938556985 8.5016895394 6.6858742647 7.9733359906 6.6858742647 7.8116302191 6.1812084064 7.6499244475 6.6864243323 7.1218379352 6.6858742647 7.5502070638 6.9938556985 7.3898759993 7.4919136935"/>
          <polygon class="cls-3" points="6.2138738026 7.7828148234 6.0521750873 8.2880378014 5.5240890435 8.2874877338 5.9524506539 8.5954691676 5.7918520738 9.0935271627 6.2138738026 8.78554495 6.6359025836 9.0935271627 6.4753040034 8.5954691676 6.9036660636 8.2874877338 6.37557957 8.2874877338 6.2138738026 7.7828148234"/>
          <polygon class="cls-3" points="5.62766395 10.9667541353 6.0494176972 11.2747285169 5.8890941508 10.7766705218 6.3174557613 10.4686961402 5.7893697175 10.4686961402 5.62766395 9.9640232297 5.4659652347 10.4697962754 4.9376041571 10.4686961402 5.3662408013 10.7766705218 5.2056422212 11.2747285169 5.62766395 10.9667541353"/>
          <polygon class="cls-3" points="6.37557957 12.6565124098 6.2138738026 12.1518394994 6.0521750873 12.6570624774 5.5240890435 12.6565124098 5.9524506539 12.9644938436 5.7918520738 13.4625518387 6.2138738026 13.1540203373 6.6359025836 13.4625518387 6.4753040034 12.9644938436 6.9036660636 12.6565124098 6.37557957 12.6565124098"/>
          <polygon class="cls-3" points="7.9766359195 14.2575687592 7.8149372042 13.7534529685 7.6535064705 14.2581188268 7.1251453929 14.2575687592 7.5535070033 14.565550193 7.393183457 15.0636081881 7.815212238 14.7556267543 8.236958933 15.0636081881 8.0766353867 14.565550193 8.5049974872 14.2575687592 7.9766359195 14.2575687592"/>
          <polygon class="cls-3" points="10.1578443258 14.8377208162 9.9961456105 14.333047267 9.8347148769 14.8382708838 9.3063537993 14.8377208162 9.7347154097 15.14570225 9.5743918633 15.6437596394 9.9964206443 15.3357788112 10.4181673394 15.6437596394 10.2575687592 15.14570225 10.6862054034 14.8377208162 10.1578443258 14.8377208162"/>
          <polygon class="cls-3" points="12.3390527322 14.2575687592 12.1776219985 13.7534529685 12.0156482494 14.2581188268 11.4878372394 14.2575687592 11.915923816 14.565550193 11.7556002697 15.0636081881 12.1776219985 14.7556267543 12.5996507795 15.0636081881 12.4387771656 14.565550193 12.8674138098 14.2575687592 12.3390527322 14.2575687592"/>
          <polygon class="cls-3" points="13.9406591492 12.6565124098 13.7786854001 12.1518394994 13.6167045989 12.6570624774 13.0888941948 12.6565124098 13.5175302331 12.9644938436 13.3566566191 13.4625518387 13.7786854001 13.1540203373 14.2007071289 13.4625518387 14.039833515 12.9644938436 14.4684701592 12.6565124098 13.9406591492 12.6565124098"/>
          <polygon class="cls-3" points="15.0486222162 10.4626312924 14.5202611386 10.4626312924 14.3582809753 9.9579646848 14.1968572897 10.4631806235 13.6684955782 10.4626312924 14.0971322224 10.7706127262 13.9368086761 11.2686707212 14.3582809753 10.9601392199 14.7803091183 11.2686707212 14.6199862166 10.7706127262 15.0486222162 10.4626312924"/>
          <polygon class="cls-3" points="13.3566566191 9.0869122473 13.7786854001 8.7789308135 14.2007071289 9.0869122473 14.039833515 8.5888542522 14.4684701592 8.281422886 13.9406591492 8.281422886 13.7786854001 7.7767570277 13.6167045989 8.2819729536 13.0888941948 8.281422886 13.5175302331 8.5888542522 13.3566566191 9.0869122473"/>
          <polygon class="cls-3" points="12.1836868463 6.181758474 12.0222566917 6.686981452 11.4938950351 6.6858742647 11.9219816117 6.994405766 11.7616580654 7.4924629495 12.1842369139 7.1839314404 12.6057156273 7.4924629495 12.4453856185 6.994405766 12.8740216731 6.6858742647 12.3451105279 6.6858742647 12.1836868463 6.181758474"/>
        </g>
      </g>
      <rect class="cls-1" width="24" height="41"/>
    </g>
  </g>
</svg>