<?xml version="1.0" encoding="UTF-8"?>
<svg id="Capa_2" xmlns="http://www.w3.org/2000/svg" viewBox="0 0 41 10">
  <defs>
    <style>
      .cls-1 {
        fill: none;
      }

      .cls-2 {
        fill: #fff;
      }
    </style>
  </defs>
  <g id="Horizontal_version">
    <g>
      <g>
        <path class="cls-2" d="M17,4.0720036458c0-.0480024305.0240012153-.0720036458.0723074586-.0720036458h1.327965973c.0458757405,0,.0686617044.022482151.0686617044.0677502658v.2214795686c0,.042837612-.0240012153.0644083245-.0723074586.0644083245h-.9849612639v.6243354094h.8731581346c.0480024305,0,.0723074586.0215707124.0723074586.0650159502v.2236062585c0,.0434452377-.0243050281.0650159502-.0723074586.0650159502h-.8731581346v.710922072h1.0101777305c.0434452377,0,.0650159502.0227859638.0650159502.0686617044v.2199605043c0,.0434452377-.0227859638.0650159502-.0683578915.0650159502h-1.346194744c-.0483062434,0-.0723074586-.0215707124-.0723074586-.0650159502v-2.2591523621Z"/>
        <path class="cls-2" d="M20.3057876348,6.3961719581h-.2561142336c-.0264317181,0-.0446604891-.006076257-.0540786875-.0179249582-.0097220112-.0121525141-.0145830169-.0288622209-.0145830169-.0507367462v-.1118031293l-.0072915084-.0036457542c-.0358499165.0240012153-.0774722771.0489138691-.1242594562.0741303357-.0470909919.0252164667-.0969162996.0486100562-.1497797357.0701807686-.053167249.0218745253-.1078535622.0391918578-.1643627525.0525596233-.0565091903.0130639526-.112410755.0197478353-.1677046939.0197478353-.1227403919,0-.2196566915-.0170135197-.2904450858-.0504329333-.0710922072-.0337232265-.124563269-.0808142184-.1607169983-.140969163-.0361537293-.0598511317-.0589396931-.1309433389-.0686617044-.2126689959-.0094181984-.0820294698-.014279204-.1698313839-.014279204-.2637095549v-1.0609144767c0-.0480024305.0230897767-.0720036458.0692693301-.0720036458h.2658362449c.0434452377,0,.065319763.0240012153.065319763.0720036458v1.0141272976c0,.0552939389.0036457542.1045116208.0109372626.1479568586.0069876956.0434452377.020355461.0799027799.0394956707.1099802522s.0452681148.0537748747.0789913413.0704845815c.0334194136.0167097068.0777760899.0252164667.132766216.0252164667.0382804193,0,.0808142184-.006076257.1276013975-.0179249582.0467871791-.0121525141.0926629196-.0270393438.1382348473-.0452681148.0455719277-.0179249582.0874981012-.0361537293.1257785204-.0540786875s.0692693301-.0331156008.0932705453-.044964302v-1.2055293939c0-.0215707124.0048610056-.038888045.0145830169-.0522558104.0094181984-.0133677655.0276469695-.0197478353.0540786875-.0197478353h.2561142336c.0458757405,0,.0686617044.0240012153.0686617044.0720036458v1.6275254443c0,.0458757405-.0227859638.0686617044-.0686617044.0686617044Z"/>
        <path class="cls-2" d="M21.2260367614,6.3275102537c0,.0458757405-.0230897767.0686617044-.0692693301.0686617044h-.2621904907c-.0461795534,0-.0692693301-.0227859638-.0692693301-.0686617044v-1.6275254443c0-.0480024305.0230897767-.0720036458.0692693301-.0720036458h.2585447364c.0486100562,0,.0729150843.0240012153.0729150843.0720036458v.1588941212l.0072915084.0072915084c.0264317181-.0243050281.0610663831-.0501291205.1045116208-.0777760899s.0896247911-.0528634361.138842473-.0756494c.0495214948-.0227859638.0993468024-.0440528634.1497797357-.0631930731.0507367462-.0191402096.0975239253-.0325079751.140969163-.0397994835.0240012153-.0048610056.0431414249-.0036457542.0577244417.0036457542.014279204.0072915084.0240012153.0264317181.0288622209.0577244417l.0252164667.2418350296c.0024305028.0264317181.0012152514.0455719277-.0036457542.0577244417s-.0264317181.0215707124-.0650159502.0288622209c-.0504329333.0097220112-.1036001823.0209630867-.1588941212.0343308522s-.1093726265.0276469695-.1622360626.0431414249c-.0528634361.0157982683-.1023849309.030685098-.1479568586.0452681148-.0458757405.014279204-.0841561598.0288622209-.1154488835.0431414249v1.1620841562Z"/>
        <path class="cls-2" d="M23.6042837612,5.48321434c0,.1032963694-.0066838827.2105423059-.0197478353.3211301838-.0133677655.1105878779-.0461795534.212365183-.0990429895.3050281027s-.1321585903.1683123196-.2375816497.2272520128c-.1057268722.0589396931-.2521646666.0884095397-.439313383.0884095397-.1801610208,0-.3217378095-.0294698466-.4250341789-.0884095397-.1029925566-.0589396932-.1804648337-.1345890931-.2321130184-.2272520128s-.0835485341-.1944402248-.0953972353-.3050281027c-.0121525141-.1105878779-.0179249582-.2178338144-.0179249582-.3211301838,0-.0841561598.0075953213-.1780343309.0233935896-.2816345131.0154944554-.1032963694.0498253076-.200212669.1023849309-.2904450858.0528634361-.0902324168.1303357132-.1658818168.2324168312-.2272520128s.2394045268-.0920552939.4122740392-.0920552939c.1753000152,0,.3150539268.0264317181.4192617348.0792951542.1045116208.0528634361.1844144007.1221327662.2394045268.2075041774.0552939389.0853714112.0920552939.1810724594.1099802522.2867993316.0179249582.1060306851.0270393438.2117575573.0270393438.3177882424ZM23.2035546104,5.5084308066c0-.0963086739-.0048610056-.179857208-.014279204-.2509494152-.0097220112-.0707883944-.0288622209-.1297280875-.0577244417-.1768190794-.0288622209-.0467871791-.0686617044-.0823332827-.1190946377-.1063344979s-.1166641349-.0361537293-.1983897919-.0361537293c-.0771684642,0-.1397539116.0121525141-.1877563421.0361537293-.0483062434.0240012153-.0859790369.0601549446-.1136260064.1081573751-.0276469695.0483062434-.0470909919.1078535622-.0577244417.1786419566-.0109372626.0710922072-.016405894.1534254899-.016405894.2473036609,0,.0963086739.0054686313.179857208.016405894.2506456023.0106334498.0710922072.0291660337.1300319003.0559015646.1771228923.0264317181.0467871791.0634968859.0823332827.1118031293.1063344979.0480024305.0240012153.1105878779.0361537293.1877563421.0361537293.081725657,0,.1482606714-.0115448883.200212669-.0343308522.0516481847-.0227859638.0920552939-.0577244417.1209175148-.1048154337.0288622209-.0467871791.0480024305-.1063344979.0577244417-.1786419566.0094181984-.0720036458.014279204-.1561598056.014279204-.2524684794Z"/>
        <path class="cls-2" d="M25.5204314143,5.5011392982c0,.1467416072-.0109372626.2779887589-.0325079751.3934376424s-.0595473189.2129728087-.1136260064.2922679629-.1276013975.1394500987-.2202643172.1804648337-.2099346802.061370196-.3518152818.061370196c-.0601549446,0-.1294242746-.006076257-.2075041774-.0179249582-.0780799028-.0121525141-.1595017469-.0325079751-.2436579067-.061370196l-.0036457542.0033419414v.635272672c0,.0191402096-.0039495671.0361537293-.0124563269.0504329333-.0085067598.0145830169-.0270393438.0218745253-.0559015646.0218745253h-.2564180465c-.0288622209,0-.0473948048-.006076257-.0559015646-.0182287711-.0085067598-.0118487012-.0124563269-.0300774723-.0124563269-.0540786875v-2.288014583c0-.0480024305.0227859638-.0720036458.0683578915-.0720036458h.2564180465c.0264317181,0,.0437490506.0063800699.0522558104.0197478353s.0127601398.030685098.0127601398.0522558104v.1084611879l.0106334498.0069876956c.0312927237-.0215707124.0692693301-.044964302.1136260064-.0701807686.0446604891-.0255202795.0920552939-.0489138691.1427920401-.0704845815.0504329333-.0215707124.102081118-.0397994835.1549445542-.0540786875.0528634361-.0145830169.1060306851-.0215707124.1588941212-.0215707124.1178793863,0,.2154033116.0215707124.2922679629.0647121373.0768646514.0434452377.1376272216.104207808.1822877108.1822877108.0443566763.0783837156.0756494.1728695124.093878171.2834573902.0179249582.1105878779.0270393438.2345435212.0270393438.3715631171ZM25.1127145678,5.497493544c0-.1154488835-.0054686313-.2081118031-.016405894-.2776849461-.0106334498-.0698769558-.0282545952-.1239556433-.0522558104-.1625398754-.0240012153-.0382804193-.0534710618-.0644083245-.0884095397-.0774722771-.0349384779-.0133677655-.0765608385-.0200516482-.124563269-.0200516482-.0361537293,0-.0768646514.006076257-.1227403919.0182287711-.0455719277.0121525141-.0908400425.0258240924-.1351967188.0413185478-.0446604891.0157982683-.0865866626.0331156008-.1263861461.0525596233-.0397994835.0191402096-.0729150843.0358499165-.0993468024.0504329333v.9023241683c.0820294698.0240012153.1558559927.0401032964.2220871943.0486100562s.1303357132.0124563269.1929211606.0124563269c.0650159502,0,.1197022634-.0088105727.1643627525-.0270393438.0443566763-.0179249582.0805104056-.0498253076.1081573751-.0953972353.0276469695-.0458757405.0476986177-.1066383108.0595473189-.1822877108.0121525141-.0759532128.0182287711-.1701351967.0182287711-.2834573902Z"/>
        <path class="cls-2" d="M26.213428528,5.6202339359c.0024305028.0914476682.0124563269.1674008811.030685098.2272520128.0179249582.0604587574.044964302.1078535622.0811180313.1427920401s.0805104056.0595473189.1336776546.0738265229c.0528634361.0145830169.1166641349.0215707124.1910982835.0215707124.0650159502,0,.1418806015-.0045571928.230897767-.014279204s.1686161325-.0179249582.2381892754-.0252164667c.0337232265-.0048610056.057116816-.0042533799.0704845815.0018228771.0130639526.006076257.0221783381.0258240924.0270393438.0595473188l.0215707124.1190946377c.0048610056.0264317181.0042533799.0480024305-.0018228771.0650159502-.0057724442.0167097068-.0258240924.0322041622-.0595473189.0467871791-.0358499165.014279204-.0780799028.0270393438-.1260823333.0379766064-.0483062434.0106334498-.0987391767.0197478353-.1516026128.0270393438s-.1060306851.0130639526-.1588941212.0179249582-.1008658666.0072915084-.1443111044.0072915084c-.1731733252,0-.3117119854-.0252164667-.4150083549-.0759532128-.1036001823-.0504329333-.1828953365-.1175755734-.2381892754-.2020355461-.0552939389-.0841561598-.0920552939-.1810724594-.1099802522-.2904450858-.0182287711-.1093726265-.0270393438-.2229986328-.0270393438-.3408780191,0-.0868904755.0069876956-.1841105879.0215707124-.2925717758.014279204-.1081573751.0473948048-.2093270545.0993468024-.3029014127.0516481847-.093878171.1285128361-.1728695124.230897767-.2363663983.102081118-.0638006988.2412274039-.0957010482.416831232-.0957010482.1610208112,0,.2916603372.0240012153.3916147653.0720036458.0996506152.0483062434.1771228923.110284065.2327206441.185933465.0552939389.0759532128.0932705453.1625398754.1136260064.2597599878.020355461.0975239253.0319003494.1944402248.0343308522.2907488987.0024305028.0647121373-.0085067598.1178793863-.0325079751.1585903084-.0240012153.0410147349-.0723074586.061370196-.1443111044.061370196h-.9564028558ZM26.5743581954,4.9202491265c-.067446453,0-.1227403919.0094181984-.1661856297.028558408-.0431414249.0191402096-.0786875285.0470909919-.1063344979.0841561598s-.0476986177.0823332827-.0595473189.1358043445c-.0121525141.0537748747-.020355461.1142336321-.0252164667.1807686465h.7145678262c0-.0546863132-.0048610056-.1078535622-.0145830169-.1591979341s-.0270393438-.0972201124-.0522558104-.1376272216c-.0252164667-.0407109221-.061370196-.0729150843-.1081573751-.0966124867-.0470909919-.0240012153-.1078535622-.0358499165-.1822877108-.0358499165Z"/>
        <path class="cls-2" d="M28.7900653198,6.1904906578c-.0914476682.0698769558-.1944402248.1263861461-.3086738569.169527571-.1142336321.0434452377-.2327206441.0650159502-.355461036.0650159502-.0963086739,0-.1762114537-.0127601398-.2400121525-.0379766064s-.1142336321-.0601549446-.1516026128-.1045116208c-.0370651679-.0446604891-.0634968859-.098131551-.0792951542-.1607169983-.0154944554-.0625854474-.0233935896-.1321585903-.0233935896-.2093270545-.0024305028-.2114537445.0528634361-.3648792344.1658818168-.4599726568s.284065016-.1424882273.5125322801-.1424882273h.4617955339v-.0947896096c0-.0534710618-.0051648185-.0990429895-.0161020811-.1367157831s-.030685098-.0683578915-.0595473189-.0926629196-.067446453-.0413185478-.1154488835-.051040559c-.0483062434-.0097220112-.1096764393-.0145830169-.1841105879-.0145830169-.0288622209,0-.0644083245.0012152514-.1063344979.0036457542-.0422299863.0024305028-.0853714112.0048610056-.1300319004.0069876956-.0446604891.0024305028-.0890171654.006076257-.1333738417.0109372626-.0446604891.0048610056-.0850675984.0085067598-.1209175148.0109372626-.0361537293.0048610056-.0607625703.0051648185-.0741303357.0018228771-.0130639526-.0036457542-.0221783381-.0188363968-.0270393438-.0452681148l-.0325079751-.1318547775c-.0048610056-.0240012153-.0024305028-.0434452377.0072915084-.0589396931.0094181984-.0154944554.0349384779-.0315965365.0756494-.0483062434.0385842321-.014279204.0841561598-.0261279052.1373234088-.0355461036.0528634361-.0097220112.1069421237-.0173173325.1622360626-.0233935895.0552939389-.0057724442.110284065-.0106334498.1643627525-.014279204.0540786875-.0033419414.1026887437-.0051648185.1461339815-.0051648185.1561598056,0,.2807230746.0154944554.3733859942.0467871791s.1631475011.0753455871.2111499316.1318547775.0792951542.1257785204.093878171.2075041774c.014279204.081725657.0215707124.1731733252.0215707124.2743430047v.6963390551c0,.0361537293.0018228771.0644083245.0054686313.0847637855.0036457542.0206592739.0097220112.0361537293.0179249582.047090992.0085067598.0106334498.0212668996.0185325839.0379766064.0233935895s.0397994835.0085067598.0686617044.0106334498c.0264317181.0024305028.0443566763.0072915084.0540786875.0145830169s.0145830169.020355461.0145830169.0397994835v.1516026128c0,.0407109221-.0291660337.0659273887-.0868904755.0756494-.0288622209.0048610056-.0577244417.0091143855-.0865866626.0127601398-.0288622209.0033419414-.0565091903.0051648185-.0829409084.0051648185-.0841561598,0-.1522102385-.0154944554-.2038584232-.0467871791s-.0871942883-.0890171654-.1063344979-.1731733252l-.0072915084-.0036457542ZM28.7684946073,5.591371715h-.4405286344c-.0914476682,0-.163451314.0212668996-.2163147501.0631930731-.053167249.0422299863-.079598967.1221327662-.079598967.2400121525,0,.0792951542.016405894.1339814674.0489138691.1640589397s.0908400425.0452681148.1749962023.0452681148c.0382804193,0,.0805104056-.0048610056.1263861461-.0145830169.0455719277-.0094181984.0911438554-.0227859638.1370195959-.0394956707.0455719277-.0170135197.0902324168-.0355461036.1333738417-.0559015646.0434452377-.0206592739.0820294698-.0404071092.1157526963-.0595473189v-.3430047091Z"/>
        <path class="cls-2" d="M31.1391462859,6.3782469998c-.0097220112.0118487012-.0279507823.0179249582-.0546863132.0179249582h-.2621904907c-.0461795534,0-.0692693301-.0227859638-.0692693301-.0686617044l.0036457542-1.0141272976c0-.1057268722-.0173173325-.1910982835-.0522558104-.2561142336s-.104207808-.0975239253-.2075041774-.0975239253c-.0361537293,0-.0774722771.006076257-.124563269.0182287711-.0467871791.0121525141-.093878171.0270393438-.1406653501.044964302-.0467871791.0182287711-.0908400425.0361537293-.1318547775.0540786875-.0407109221.0182287711-.0732188972.0331156008-.0972201124.0452681148v1.205225581c0,.0458757405-.0230897767.0686617044-.0686617044.0686617044h-.2561142336c-.0458757405,0-.0686617044-.0227859638-.0686617044-.0686617044v-1.6275254443c0-.0480024305.0227859638-.0720036458.0686617044-.0720036458h.2561142336c.0455719277,0,.0686617044.0240012153.0686617044.0720036458v.1084611879c.00212669,0,.0039495671.0006076257.0051648185.0015190643.0012152514.0015190643.0030381285.0018228771.0054686313.0018228771.0337232265-.0240012153.0744341486-.0486100562.1215251405-.0738265229.0467871791-.0252164667.0969162996-.0486100562.1500835485-.0704845815.053167249-.0215707124.1084611879-.038888045.1664894425-.0522558104.0580282546-.0130639526.1145374449-.0197478353.1701351967-.0197478353.1230442048,0,.2196566915.0185325839.2895336473.0559015646.0701807686.0373689807.1233480176.0871942883.1595017469.1497797357s.0589396931.1351967188.0686617044.2181376272c.0097220112.0832447213.0145830169.1704390096.0145830169.2618866778v1.0463314598c0,.0218745253-.0048610056.0385842321-.0145830169.0507367462Z"/>
        <path class="cls-2" d="M17.772292268,10c-.0455719277,0-.0987391767-.0018228771-.1588941212-.0054686313s-.1221327662-.0097220112-.1856296521-.0179249582c-.0638006988-.0085067598-.1269937718-.0194440225-.1895792192-.0325079751-.0625854474-.0133677655-.1166641349-.0294698466-.1622360626-.0489138691-.0410147349-.0167097068-.0644083245-.0334194136-.0704845815-.0504329333-.006076257-.0167097068-.0066838827-.0373689807-.0018228771-.061370196l.0325079751-.1479568586c.0072915084-.0312927237.0173173325-.0492176819.030685098-.0540786875.0130639526-.0048610056.0355461036-.0048610056.0668388273,0,.0455719277.0048610056.0972201124.0103296369.1549445542.0161020811.0577244417.006076257.1157526963.0115448883.1734771381.016405894s.1136260064.0091143855.1677046939.0124563269c.0540786875.0036457542.1014734923.0054686313.1424882273.0054686313.3080662312,0,.4620993468-.1057268722.4620993468-.3174844296,0-.0650159502-.0072915084-.118487012-.0218745253-.1607169983-.014279204-.0419261735-.0382804193-.0774722771-.0720036458-.106334498s-.0777760899-.0516481847-.1318547775-.0686617044c-.0540786875-.0167097068-.1221327662-.0325079751-.2038584232-.0467871791-.1060306851-.0215707124-.2075041774-.0455719277-.3050281027-.0723074586-.0972201124-.0264317181-.1835029622-.0634968859-.2579371107-.1118031293-.0747379614-.0480024305-.1333738417-.1118031293-.1768190794-.1910982835-.0434452377-.079598967-.0650159502-.1804648337-.0650159502-.3032052256,0-.2284672642.0729150843-.4031596537.2184414401-.5234695428.1455263558-.1200060763.3457390248-.1804648337.6009418198-.1804648337.0334194136,0,.0774722771.0015190643.1315509646.0036457542.0540786875.0024305028.1118031293.0066838827.1731733252.0127601398s.1233480176.0157982683.185933465.0288622209c.0625854474.0133677655.1203098891.030685098.1731733252.0522558104.0410147349.0170135197.0644083245.0337232265.0704845815.0504329333.0057724442.0170135197.0066838827.0373689807.0018228771.061370196l-.0361537293.1479568586c-.0072915084.0288622209-.0179249582.0464833662-.0325079751.0525596233-.014279204.006076257-.0385842321.0075953213-.0723074586.0051648185-.081725657-.0118487012-.1713504481-.0227859638-.2685705605-.0322041622-.0975239253-.0097220112-.2005164818-.0145830169-.3086738569-.0145830169-.1540331156,0-.261582865.0282545952-.3229530609.0847637855s-.0920552939.1355005317-.0920552939.2363663983c0,.0577244417.0078991341.104207808.0233935896.1391462859.0157982683.034634665.0404071092.0628892602.0741303357.0847637855.0334194136.0215707124.0774722771.0391918578.1315509646.0522558104.0540786875.0133677655.1209175148.0270393438.200212669.0416223606.1036001823.0215707124.2035546104.0455719277.2995594714.0720036458.0963086739.0264317181.1810724594.0650159502.2545951694.1154488835.0732188972.0507367462.1321585903.1178793863.1768190794.2020355461.0443566763.0844599727.0668388273.1950478505.0668388273.3320674465,0,.1373234088-.0243050281.2515570409-.0723074586.3430047091s-.112410755.1652741911-.1929211606.2217833814c-.0808142184.0565091903-.1740847638.0969162996-.279811636.1209175148-.1060306851.0240012153-.216618563.0361537293-.3320674465.0361537293Z"/>
        <path class="cls-2" d="M20.1070940301,9.830472429c.0072915084.0407109221-.008202947.0707883943-.0467871791.0902324168-.0312927237.014279204-.0680540787.0264317181-.1099802522.0358499164-.0422299863.0097220112-.0856752241.0176211454-.1300319003.0236974024-.0446604891.0057724442-.0865866626.0100258241-.1263861461.0124563269-.0394956707.0024305028-.0738265229.0036457542-.1026887437.0036457542-.1060306851,0-.1883639678-.0151906426-.2473036609-.044964302-.0589396932-.0300774723-.1026887437-.0716998329-.1315509646-.124563269-.0291660337-.0528634361-.0470909919-.1142336321-.0543825004-.1841105879-.0069876956-.0698769558-.0106334498-.143095853-.0106334498-.2202643172v-.9056661097h-.1804648337c-.0264317181,0-.0446604891-.0054686313-.0540786875-.016405894-.0097220112-.0106334498-.0145830169-.0282545952-.0145830169-.0522558104v-.1768190794c0-.0240012152.0048610056-.0419261735.0145830169-.0540786875.0094181984-.0121525141.0276469695-.0179249582.0540786875-.0179249582h.1841105879v-.37186693c0-.0264317181.0063800699-.044964302.0197478353-.0559015646.0130639526-.0109372626.0294698466-.0185325839.0486100562-.0233935895l.2418350296-.0650159502c.0480024305-.0121525141.0723074586.0024305028.0723074586.0434452377v.4727327966h.386146134c.0288622209,0,.0473948048.0057724442.0559015646.0179249582.008202947.0121525141.0124563269.0288622209.0124563269.0504329333v.1804648337c0,.0240012153-.0042533799.0416223606-.0124563269.0522558104-.0085067598.0109372626-.0270393438.016405894-.0559015646.016405894h-.386146134v.8986784141c0,.0480024305.0036457542.0853714112.0106334498.1118031293.0072915084.0264317181.0200516482.0461795534.0379766064.0595473189.0179249582.0130639526.042837612.0209630867.0741303357.0233935895.0309889108.0024305028.0707883943.0036457542.1190946377.0036457542.0264317181,0,.0641045116-.0012152514.1136260064-.0036457542.0492176819-.0024305028.0920552939-.006076257.1279052104-.0109372626.0194440225-.00212669.0337232265,0,.0434452377.0072915084.0094181984.0072915084.0167097068.0215707124.0215707124.0434452377l.0252164667.1804648337Z"/>
        <path class="cls-2" d="M21.7707732037,9.9674920249h-.2561142336c-.0264317181,0-.0446604891-.006076257-.0540786875-.0179249582-.0097220112-.0121525141-.0145830169-.0288622209-.0145830169-.0507367462v-.1118031293l-.0072915084-.0036457542c-.0358499165.0240012153-.0774722771.0489138691-.1242594562.0741303357-.0470909919.0252164667-.0969162996.0486100562-.1497797357.0701807686-.053167249.0218745253-.1078535622.0391918578-.1643627525.0525596233-.0565091903.0130639526-.112410755.0197478353-.1677046939.0197478353-.1227403919,0-.2196566915-.0170135197-.2904450858-.0504329333-.0710922072-.0337232265-.124563269-.0808142184-.1607169983-.140969163-.0361537293-.0598511317-.0589396931-.1309433389-.0686617044-.2126689959-.0094181984-.0820294698-.014279204-.1698313839-.014279204-.2637095549v-1.0609144767c0-.0480024305.0230897767-.0720036458.0692693301-.0720036458h.2658362449c.0434452377,0,.065319763.0240012153.065319763.0720036458v1.0141272976c0,.0552939389.0036457542.1045116208.0109372626.1479568586.0069876956.0434452377.020355461.0799027799.0394956707.1099802522s.0452681148.0537748747.0789913413.0704845815c.0334194136.0167097068.0777760899.0252164667.132766216.0252164667.0382804193,0,.0808142184-.006076257.1276013975-.0179249582.0467871791-.0121525141.0926629196-.0270393438.1382348473-.0452681148.0455719277-.0179249582.0874981012-.0361537293.1257785204-.0540786875s.0692693301-.0331156008.0932705453-.044964302v-1.2055293939c0-.0215707124.0048610056-.038888045.0145830169-.0522558104.0094181984-.0133677655.0276469695-.0197478353.0540786875-.0197478353h.2561142336c.0458757405,0,.0686617044.0240012153.0686617044.0720036458v1.6275254443c0,.0458757405-.0227859638.0686617044-.0686617044.0686617044Z"/>
        <path class="cls-2" d="M23.7446452985,9.8988303205c0,.0218745253-.0042533799.0385842321-.0124563269.0507367462-.0085067598.0118487012-.0261279052.0179249582-.0525596233.0179249582h-.2597599878c-.0431414249,0-.0650159502-.0212668996-.0650159502-.0641045116v-.1142336321c-.0024305028,0-.0042533799-.0006076257-.0051648185-.0018228771-.0015190643-.0012152514-.0030381285-.0018228771-.0054686313-.0018228771-.0312927237.0215707124-.0686617044.0446604891-.1118031293.0698769558-.0434452377.0249126538-.0902324168.0480024305-.140969163.0695731429-.0504329333.0212668996-.1026887437.0385842321-.1567674313.0516481847-.0543825004.0130639526-.1078535622.0197478353-.1607169983.0197478353-.1178793863,0-.2147956859-.0209630867-.2904450858-.0631930731-.0759532128-.0419261735-.1361081574-.1014734923-.1804648337-.1786419566-.0446604891-.0768646514-.0759532128-.1701351967-.093878171-.2795078232-.0179249582-.1096764393-.0270393438-.2330244569-.0270393438-.3700440529,0-.1467416072.0100258241-.2782925718.030685098-.3952605195.020355461-.1166641349.057116816-.2157071244.1099802522-.2977365943.0528634361-.081725657.1257785204-.1437034787.2184414401-.1856296521.0926629196-.0422299863.212365183-.0631930731.3591067902-.0631930731.14917211,0,.29834422.0276469695.4475163299.0829409084.00212669,0,.0033419414-.0006076257.0033419414-.0018228771,0-.0012152514.0012152514-.0018228771.0036457542-.0018228771v-.7470758013c0-.0240012153.0042533799-.0419261735.0127601398-.0540786875.0085067598-.0118487012.0270393438-.0179249582.0559015646-.0179249582h.2561142336c.0288622209,0,.0470909919.0066838827.0543825004.0197478353.0069876956.0133677655.0106334498.030685098.0106334498.0522558104v2.4034634665ZM23.3512076561,8.5711681604c-.0844599727-.0243050281-.1601093726-.0404071092-.2263405742-.0489138691-.0665350144-.0085067598-.1300319003-.0127601398-.1904906578-.0127601398-.065319763,0-.1209175148.0097220112-.1667932554.0291660337-.0458757405.0191402096-.0820294698.0516481847-.1087650008.0975239253s-.0458757405.1069421237-.0580282546.1828953365-.0182287711.1707428224-.0182287711.284065016c0,.1160565092.0054686313.2096308674.016405894.2807230746s.028558408.1254747076.0525596233.1628436883c.0243050281.0373689807.053167249.0628892602.0871942883.0759532128.0337232265.0133677655.0747379614.0200516482.1230442048.0200516482.0364575422,0,.0774722771-.006076257.1233480176-.0182287711.0458757405-.0118487012.0917514811-.0264317181.1379310345-.0434452377.0458757405-.0167097068.0887133526-.0343308522.1285128361-.0522558104.0401032964-.0182287711.0732188972-.034634665.0996506152-.0489138691v-.9087042382Z"/>
        <path class="cls-2" d="M24.5063041167,9.1915540027c.0024305028.0914476682.0124563269.1674008811.030685098.2272520128.0179249582.0604587574.044964302.1078535622.0811180313.1427920401s.0805104056.0595473189.1336776546.0738265229c.0528634361.0145830169.1166641349.0215707124.1910982835.0215707124.0650159502,0,.1418806015-.0045571928.230897767-.014279204s.1686161325-.0179249582.2381892754-.0252164667c.0337232265-.0048610056.057116816-.0042533799.0704845815.0018228771.0130639526.006076257.0221783381.0258240924.0270393438.0595473189l.0215707124.1190946377c.0048610056.0264317181.0042533799.0480024305-.0018228771.0650159502-.0057724442.0167097068-.0258240924.0322041622-.0595473189.0467871791-.0358499165.014279204-.0780799028.0270393438-.1260823333.0379766064-.0483062434.0106334498-.0987391767.0197478353-.1516026128.0270393438s-.1060306851.0130639526-.1588941212.0179249582-.1008658666.0072915084-.1443111044.0072915084c-.1731733252,0-.3117119854-.0252164667-.4150083549-.0759532128-.1036001823-.0504329333-.1828953365-.1175755734-.2381892754-.2020355461-.0552939389-.0841561598-.0920552939-.1810724594-.1099802522-.2904450858-.0182287711-.1093726265-.0270393438-.2229986328-.0270393438-.3408780191,0-.0868904755.0069876956-.1841105879.0215707124-.2925717758.014279204-.1081573751.0473948048-.2093270545.0993468024-.3029014127.0516481847-.093878171.1285128361-.1728695124.230897767-.2363663983.102081118-.0638006988.2412274039-.0957010482.416831232-.0957010482.1610208112,0,.2916603372.0240012153.3916147653.0720036458.0996506152.0483062434.1771228923.110284065.2327206441.185933465.0552939389.0759532128.0932705453.1625398754.1136260064.2597599878.020355461.0975239253.0319003494.1944402248.0343308522.2907488987.0024305028.0647121373-.0085067598.1178793863-.0325079751.1585903084-.0240012152.0410147349-.0723074586.061370196-.1443111044.061370196h-.9564028558ZM24.867233784,8.4915691934c-.067446453,0-.1227403919.0094181984-.1661856297.028558408-.0431414249.0191402096-.0786875285.0470909919-.1063344979.0841561598s-.0476986176.0823332827-.0595473189.1358043445c-.0121525141.0537748747-.020355461.1142336321-.0252164667.1807686465h.7145678262c0-.0546863132-.0048610056-.1078535622-.0145830169-.1591979341s-.0270393438-.0972201124-.0522558104-.1376272216c-.0252164667-.0407109221-.061370196-.0729150843-.1081573751-.0966124867-.0470909919-.0240012153-.1078535622-.0358499165-.1822877108-.0358499165Z"/>
        <path class="cls-2" d="M27.4833662464,9.9495670667c-.0097220112.0118487012-.0279507823.0179249582-.0546863132.0179249582h-.2621904907c-.0461795534,0-.0692693301-.0227859638-.0692693301-.0686617044l.0036457542-1.0141272976c0-.1057268722-.0173173325-.1910982835-.0522558104-.2561142336s-.104207808-.0975239253-.2075041774-.0975239253c-.0361537293,0-.0774722771.006076257-.124563269.0182287711-.0467871791.0121525141-.093878171.0270393438-.1406653501.044964302-.0467871791.0182287711-.0908400425.0361537293-.1318547775.0540786875-.0407109221.0182287711-.0732188972.0331156008-.0972201124.0452681148v1.205225581c0,.0458757405-.0230897767.0686617044-.0686617044.0686617044h-.2561142336c-.0458757405,0-.0686617044-.0227859638-.0686617044-.0686617044v-1.6275254443c0-.0480024305.0227859638-.0720036458.0686617044-.0720036458h.2561142336c.0455719277,0,.0686617044.0240012153.0686617044.0720036458v.1084611879c.00212669,0,.0039495671.0006076257.0051648185.0015190643.0012152514.0015190643.0030381285.0018228771.0054686313.0018228771.0337232265-.0240012152.0744341486-.0486100562.1215251405-.0738265229.0467871791-.0252164667.0969162996-.0486100562.1500835485-.0704845815.053167249-.0215707124.1084611879-.038888045.1664894425-.0522558104.0580282546-.0130639526.1145374449-.0197478353.1701351967-.0197478353.1230442048,0,.2196566915.0185325839.2895336473.0559015646.0701807686.0373689807.1233480176.0871942883.1595017469.1497797357s.0589396932.1351967188.0686617044.2181376272c.0097220112.0832447213.0145830169.1704390096.0145830169.2618866778v1.0463314598c0,.0218745253-.0048610056.0385842321-.0145830169.0507367462Z"/>
        <path class="cls-2" d="M28.9738720948,9.830472429c.0072915084.0407109221-.008202947.0707883943-.0467871791.0902324168-.0312927237.014279204-.0680540787.0264317181-.1099802522.0358499164-.0422299863.0097220112-.0856752241.0176211454-.1300319003.0236974024-.0446604891.0057724442-.0865866626.0100258241-.1263861461.0124563269-.0394956707.0024305028-.0738265229.0036457542-.1026887437.0036457542-.1060306851,0-.1883639678-.0151906426-.2473036609-.044964302-.0589396931-.0300774723-.1026887437-.0716998329-.1315509646-.124563269-.0291660337-.0528634361-.0470909919-.1142336321-.0543825004-.1841105879-.0069876956-.0698769558-.0106334498-.143095853-.0106334498-.2202643172v-.9056661097h-.1804648337c-.0264317181,0-.0446604891-.0054686313-.0540786875-.016405894-.0097220112-.0106334498-.0145830169-.0282545952-.0145830169-.0522558104v-.1768190794c0-.0240012152.0048610056-.0419261735.0145830169-.0540786875.0094181984-.0121525141.0276469695-.0179249582.0540786875-.0179249582h.1841105879v-.37186693c0-.0264317181.0063800699-.044964302.0197478353-.0559015646.0130639526-.0109372626.0294698466-.0185325839.0486100562-.0233935895l.2418350296-.0650159502c.0480024305-.0121525141.0723074586.0024305028.0723074586.0434452377v.4727327966h.386146134c.0288622209,0,.0473948048.0057724442.0559015646.0179249582.008202947.0121525141.0124563269.0288622209.0124563269.0504329333v.1804648337c0,.0240012153-.0042533799.0416223606-.0124563269.0522558104-.0085067598.0109372626-.0270393438.016405894-.0559015646.016405894h-.386146134v.8986784141c0,.0480024305.0036457542.0853714112.0106334498.1118031293.0072915084.0264317181.0200516482.0461795534.0379766064.0595473189.0179249582.0130639526.042837612.0209630867.0741303357.0233935895.0309889108.0024305028.0707883943.0036457542.1190946377.0036457542.0264317181,0,.0641045116-.0012152514.1136260064-.0036457542.0492176819-.0024305028.0920552939-.006076257.1279052104-.0109372626.0194440225-.00212669.0337232265,0,.0434452377.0072915084.0094181984.0072915084.0167097068.0215707124.0215707124.0434452377l.0252164667.1804648337Z"/>
        <path class="cls-2" d="M30.2188971593,8.7911286647c0-.1540331156.0121525141-.3056357284.0361537293-.4548078384s.0716998329-.281938326.1424882273-.3989062737c.0710922072-.1166641349.1698313839-.2108461188.2959137171-.2831535774.1263861461-.0723074586.2928755886-.1081573751.5000759532-.1081573751.0431414249,0,.0929667325.0018228771.1497797357.0051648185.0565091903.0036457542.1148412578.0097220112.1749962023.0182287711s.1190946377.0191402096.1768190794.0325079751c.0577244417.0130639526.1105878779.0294698466.1585903084.0486100562.0288622209.0121525141.0489138691.0264317181.0595473189.0434452377.0109372626.0167097068.0139753912.0394956707.0091143855.0683578915l-.0325079751.1479568586c-.0048610056.0218745253-.0130639526.0373689807-.0252164667.0470909919-.0121525141.0094181984-.0349384779.0118487012-.0686617044.0069876956-.0890171654-.0118487012-.1847182136-.0227859638-.2867993316-.0322041622-.1023849309-.0097220112-.200212669-.0145830169-.29409084-.0145830169-.1227403919,0-.2214795686.0227859638-.2959137172.0686617044-.0747379614.0455719277-.1318547775.1081573751-.1713504481.1874525292-.0397994835.079598967-.0656235759.171654261-.0777760899.2761658818-.0118487012.1048154337-.0179249582.2160109373-.0179249582.3338903236s.0072915084.2284672642.0215707124.3320674465c.0145830169.1032963694.0422299863.1929211606.0829409084.2688743734.0410147349.0756494.098131551.1351967188.171654261.1786419566.0732188972.0431414249.1689199453.0647121373.2867993316.0647121373.1057268722,0,.2044660489-.0045571928.2959137172-.014279204s.1865410907-.020355461.2849764545-.0325079751c.0337232265-.0048610056.0565091903-.0024305028.0686617044.0072915084s.0215707124.0264317181.0288622209.0504329333l.0288622209.1370195959c.0145830169.053167249-.006076257.0914476682-.061370196.1157526963-.0431414249.0191402096-.0944857967.0352422907-.1534254899.0486100562s-.1190946377.024608841-.1804648337.0343308522c-.061370196.0094181984-.1215251405.0161020811-.1804648337.0197478353s-.1099802522.0054686313-.153121677.0054686313c-.202339359,0-.3663982986-.0343308522-.4927844448-.1029925566-.1263861461-.0683578915-.2248215099-.1591979341-.2959137172-.2722163148-.0707883943-.1133221935-.1197022634-.2418350296-.1461339815-.386146134-.0264317181-.1446149172-.0397994835-.2934832143-.0397994835-.4475163299Z"/>
        <path class="cls-2" d="M33.3335865107,9.7618107246c-.0914476682.0698769558-.1944402248.1263861461-.3086738569.169527571-.1142336321.0434452377-.2327206441.0650159502-.355461036.0650159502-.0963086739,0-.1762114537-.0127601398-.2400121525-.0379766064s-.1142336321-.0601549446-.1516026128-.1045116208c-.0370651679-.0446604891-.0634968859-.098131551-.0792951542-.1607169983-.0154944554-.0625854474-.0233935895-.1321585903-.0233935895-.2093270545-.0024305028-.2114537445.0528634361-.3648792344.1658818168-.4599726568s.284065016-.1424882273.5125322801-.1424882273h.461795534v-.0947896096c0-.0534710618-.0051648185-.0990429895-.0161020811-.1367157831s-.030685098-.0683578915-.0595473189-.0926629196-.067446453-.0413185478-.1154488835-.051040559c-.0483062434-.0097220112-.1096764393-.0145830169-.1841105879-.0145830169-.0288622209,0-.0644083245.0012152514-.1063344979.0036457542-.0422299863.0024305028-.0853714112.0048610056-.1300319004.0069876956-.0446604891.0024305028-.0890171654.006076257-.1333738417.0109372626-.0446604891.0048610056-.0850675984.0085067598-.1209175148.0109372626-.0361537293.0048610056-.0607625703.0051648185-.0741303357.0018228771-.0130639526-.0036457542-.0221783381-.0188363968-.0270393438-.0452681148l-.0325079751-.1318547775c-.0048610056-.0240012153-.0024305028-.0434452377.0072915084-.0589396932.0094181984-.0154944554.0349384779-.0315965365.0756494-.0483062434.0385842321-.014279204.0841561598-.0261279052.1373234088-.0355461036.0528634361-.0097220112.1069421237-.0173173325.1622360626-.0233935895.0552939389-.0057724442.110284065-.0106334498.1643627525-.014279204.0540786875-.0033419414.1026887437-.0051648185.1461339815-.0051648185.1561598056,0,.2807230746.0154944554.3733859942.0467871791s.1631475011.0753455871.2111499316.1318547775.0792951542.1257785204.093878171.2075041774c.014279204.081725657.0215707124.1731733252.0215707124.2743430047v.6963390551c0,.0361537293.0018228771.0644083245.0054686313.0847637855.0036457542.0206592739.0097220112.0361537293.0179249582.047090992.0085067598.0106334498.0212668996.0185325839.0379766064.0233935895s.0397994835.0085067598.0686617044.0106334498c.0264317181.0024305028.0443566763.0072915084.0540786875.0145830169s.0145830169.020355461.0145830169.0397994835v.1516026128c0,.0407109221-.0291660337.0659273887-.0868904755.0756494-.0288622209.0048610056-.0577244417.0091143855-.0865866626.0127601398-.0288622209.0033419414-.0565091903.0051648185-.0829409084.0051648185-.0841561598,0-.1522102385-.0154944554-.2038584232-.0467871791s-.0871942883-.0890171654-.1063344979-.1731733252l-.0072915084-.0036457542ZM33.3120157983,9.1626917819h-.4405286344c-.0914476682,0-.163451314.0212668996-.2163147501.0631930731-.053167249.0422299863-.079598967.1221327662-.079598967.2400121525,0,.0792951542.016405894.1339814674.0489138691.1640589397s.0908400425.0452681148.1749962023.0452681148c.0382804193,0,.0805104056-.0048610056.1263861461-.0145830169.0455719277-.0094181984.0911438554-.0227859638.1370195959-.0394956707.0455719277-.0170135197.0902324168-.0355461036.1333738417-.0559015646.0434452377-.0206592739.0820294698-.0404071092.1157526963-.0595473189v-.3430047091Z"/>
        <path class="cls-2" d="M34.6326902628,9.8988303205c0,.0458757405-.0230897767.0686617044-.0692693301.0686617044h-.2621904907c-.0461795534,0-.0692693301-.0227859638-.0692693301-.0686617044v-1.6275254443c0-.0480024305.0230897767-.0720036458.0692693301-.0720036458h.2585447364c.0486100562,0,.0729150843.0240012153.0729150843.0720036458v.1588941212l.0072915084.0072915084c.0264317181-.0243050281.0610663831-.0501291205.1045116208-.0777760899s.0896247911-.0528634361.138842473-.0756494c.0495214948-.0227859638.0993468024-.0440528634.1497797357-.0631930731.0507367462-.0191402096.0975239253-.0325079751.140969163-.0397994835.0240012153-.0048610056.0431414249-.0036457542.0577244417.0036457542.014279204.0072915084.0240012153.0264317181.0288622209.0577244417l.0252164667.2418350296c.0024305028.0264317181.0012152514.0455719277-.0036457542.0577244417-.0048610056.0121525141-.0264317181.0215707124-.0650159502.0288622209-.0504329333.0097220112-.1036001823.0209630867-.1588941212.0343308522s-.1093726265.0276469695-.1622360626.0431414249c-.0528634361.0157982683-.1023849309.030685098-.1479568586.0452681148-.0458757405.014279204-.0841561598.0288622209-.1154488835.0431414249v1.1620841562Z"/>
        <path class="cls-2" d="M37,9.8988303205c0,.0218745253-.0042533799.0385842321-.0124563269.0507367462-.0085067598.0118487012-.0261279052.0179249582-.0525596233.0179249582h-.2597599878c-.0431414249,0-.0650159502-.0212668996-.0650159502-.0641045116v-.1142336321c-.0024305028,0-.0042533799-.0006076257-.0051648185-.0018228771-.0015190643-.0012152514-.0030381285-.0018228771-.0054686313-.0018228771-.0312927237.0215707124-.0686617044.0446604891-.1118031293.0698769558-.0434452377.0249126538-.0902324168.0480024305-.140969163.0695731429-.0504329333.0212668996-.1026887437.0385842321-.1567674313.0516481847-.0543825004.0130639526-.1078535622.0197478353-.1607169983.0197478353-.1178793863,0-.2147956859-.0209630867-.2904450858-.0631930731-.0759532128-.0419261735-.1361081574-.1014734923-.1804648337-.1786419566-.0446604891-.0768646514-.0759532128-.1701351967-.093878171-.2795078232-.0179249582-.1096764393-.0270393438-.2330244569-.0270393438-.3700440529,0-.1467416072.0100258241-.2782925718.030685098-.3952605195.020355461-.1166641349.057116816-.2157071244.1099802522-.2977365943.0528634361-.081725657.1257785204-.1437034787.2184414401-.1856296521.0926629196-.0422299863.212365183-.0631930731.3591067902-.0631930731.14917211,0,.29834422.0276469695.4475163299.0829409084.00212669,0,.0033419414-.0006076257.0033419414-.0018228771,0-.0012152514.0012152514-.0018228771.0036457542-.0018228771v-.7470758013c0-.0240012153.0042533799-.0419261735.0127601398-.0540786875.0085067598-.0118487012.0270393438-.0179249582.0559015646-.0179249582h.2561142336c.0288622209,0,.047090992.0066838827.0543825004.0197478353.0069876956.0133677655.0106334498.030685098.0106334498.0522558104v2.4034634665ZM36.6065623576,8.5711681604c-.0844599727-.0243050281-.1601093726-.0404071092-.2263405742-.0489138691-.0665350144-.0085067598-.1300319003-.0127601398-.1904906578-.0127601398-.065319763,0-.1209175148.0097220112-.1667932554.0291660337-.0458757405.0191402096-.0820294698.0516481847-.1087650008.0975239253s-.0458757405.1069421237-.0580282546.1828953365-.0182287711.1707428224-.0182287711.284065016c0,.1160565092.0054686313.2096308674.016405894.2807230746s.028558408.1254747076.0525596233.1628436883c.0243050281.0373689807.053167249.0628892602.0871942883.0759532128.0337232265.0133677655.0747379614.0200516482.1230442048.0200516482.0364575422,0,.0774722771-.006076257.1233480176-.0182287711.0458757405-.0118487012.0917514811-.0264317181.1379310345-.0434452377.0458757405-.0167097068.0887133526-.0343308522.1285128361-.0522558104.0401032964-.0182287711.0732188972-.034634665.0996506152-.0489138691v-.9087042382Z"/>
      </g>
      <g>
        <rect class="cls-2" x="4" y="4" width="8.999875001" height="6"/>
        <g>
          <polygon points="8.3081689721 5.3073010409 8.4980761124 5.1687113206 8.6879866685 5.3073010409 8.6157180689 5.083178056 8.8086018798 4.9445883357 8.5708426971 4.9445883357 8.4980761124 4.7177393805 8.4253127011 4.9448354816 8.1876772819 4.9445883357 8.3804373294 5.083178056 8.3081689721 5.3073010409"/>
          <polygon points="7.3253980133 5.5713393378 7.5153083271 5.4327492488 7.7050948774 5.5713393378 7.6329471101 5.3472163529 7.8257071576 5.2086266325 7.5879513628 5.2086266325 7.5151847763 4.9815301504 7.4424181898 5.2088741595 7.2047825597 5.2086266325 7.3975459903 5.3472163529 7.3253980133 5.5713393378"/>
          <polygon points="6.7962043748 5.7022430281 6.7234409635 5.9295902106 6.4858055443 5.9293426836 6.6785655917 6.067932404 6.6062972344 6.2920553889 6.7962043748 6.1534653181 6.9861146886 6.2920553889 6.9138463312 6.067932404 7.106606581 5.9293426836 6.8689709595 5.9293426836 6.7962043748 5.7022430281"/>
          <polygon points="6.5324136049 7.134995819 6.7222001552 7.2735823659 6.6500555613 7.049459381 6.8428156088 6.9108728341 6.6051801896 6.9108728341 6.5324136049 6.6837731785 6.4596501936 6.911367888 6.2218910109 6.9108728341 6.4147748219 7.049459381 6.3425064645 7.2735823659 6.5324136049 7.134995819"/>
          <polygon points="6.8689709595 7.8953764817 6.7962043748 7.6682768261 6.7234409635 7.8956240086 6.4858055443 7.8953764817 6.6785655917 8.033966202 6.6062972344 8.2580891869 6.7962043748 8.1192519396 6.9861146886 8.2580891869 6.9138463312 8.033966202 7.106606581 7.8953764817 6.8689709595 7.8953764817"/>
          <polygon points="7.5894363102 8.6158418324 7.5166728989 8.3889928773 7.4440300777 8.6160893594 7.206270895 8.6158418324 7.3990309425 8.7544315527 7.3268863486 8.9785545376 7.5167966624 8.8399648173 7.7065800393 8.9785545376 7.6344354454 8.7544315527 7.8271957135 8.6158418324 7.5894363102 8.6158418324"/>
          <polygon points="8.5709664606 8.8769066321 8.4982030493 8.6498066891 8.4255602281 8.8771541591 8.1878010454 8.8769066321 8.3805610929 9.0154963524 8.308416499 9.2396190648 8.4983268128 9.101029617 8.6881101897 9.2396190648 8.6158418324 9.0154963524 8.8087256433 8.8769066321 8.5709664606 8.8769066321"/>
          <polygon points="9.5524966111 8.6158418324 9.4798537898 8.3889928773 9.4069666151 8.6160893594 9.1694549593 8.6158418324 9.3620912433 8.7544315527 9.2899466495 8.9785545376 9.4798537898 8.8399648173 9.6697641036 8.9785545376 9.5973719828 8.7544315527 9.7902557937 8.6158418324 9.5524966111 8.6158418324"/>
          <polygon points="10.2732094887 7.8953764817 10.200322314 7.6682768261 10.1274319658 7.8956240086 9.8899205827 7.8953764817 10.082804121 8.033966202 10.0104120002 8.2580891869 10.200322314 8.1192519396 10.3902294543 8.2580891869 10.3178373335 8.033966202 10.5107211445 7.8953764817 10.2732094887 7.8953764817"/>
          <polygon points="10.7717859442 6.9081436905 10.5340267615 6.9081436905 10.4611367004 6.6810468712 10.3884970508 6.908390886 10.1507375828 6.9081436905 10.3436213937 7.0467334108 10.2714767999 7.2708563957 10.4611367004 7.1320191484 10.6510467271 7.2708563957 10.5789024233 7.0467334108 10.7717859442 6.9081436905"/>
          <polygon points="10.0104120002 6.2890787183 10.200322314 6.150488998 10.3902294543 6.2890787183 10.3178373335 6.0649557334 10.5107211445 5.92661354 10.2732094887 5.92661354 10.200322314 5.6995170579 10.1274319658 5.926861067 9.8899205827 5.92661354 10.082804121 6.0649557334 10.0104120002 6.2890787183"/>
          <polygon points="9.4825829334 4.9817776774 9.4099403728 5.2091248599 9.1721809295 5.2086266325 9.3648172135 5.3474638798 9.2926726197 5.5715864996 9.4828304604 5.4327492488 9.6724932472 5.5715864996 9.6003457453 5.3474638798 9.7932292909 5.2086266325 9.5552225812 5.2086266325 9.4825829334 4.9817776774"/>
        </g>
      </g>
      <rect class="cls-1" width="41" height="10"/>
    </g>
  </g>
</svg>