<?xml version="1.0" encoding="UTF-8" standalone="no"?>
<svg
   id="Capa_2"
   viewBox="0 0 20 33"
   version="1.1"
   width="400"
   height="660"
   xmlns="http://www.w3.org/2000/svg"
   xmlns:svg="http://www.w3.org/2000/svg">
  <defs
     id="defs1260">
    <style
       id="style1258">
      .cls-1 {
        fill: none;
      }

      .cls-2 {
        fill: #039;
      }

      .cls-3 {
        fill: #fff;
      }
    </style>
  </defs>
  <g
     id="Horizontal_version"
     transform="translate(0,-4)">
    <g
       id="g1334">
      <g
         id="g1300">
        <path
           class="cls-2"
           d="m 0,21.728938 c 0,-0.06798 0.03399142,-0.101974 0.10197427,-0.101974 H 1.978617 c 0.064426,0 0.096836,0.03241 0.096836,0.09644 v 0.313037 c 0,0.06008 -0.033991,0.09091 -0.1019743,0.09091 H 0.58141143 v 0.882196 H 1.8153791 c 0.067983,0 0.1019743,0.03004 0.1019743,0.0917 v 0.316199 c 0,0.06087 -0.033991,0.0917 -0.1019743,0.0917 H 0.58141143 v 1.004723 H 2.0094465 c 0.060868,0 0.091698,0.03241 0.091698,0.09644 v 0.311456 c 0,0.06087 -0.03241,0.0917 -0.096836,0.0917 H 0.10197427 C 0.03399142,25.013458 0,24.982629 0,24.92176 Z"
           id="path1262" />
        <path
           class="cls-2"
           d="M 4.6710539,25.013458 H 4.3090058 c -0.037549,0 -0.062845,-0.0087 -0.076283,-0.0253 -0.013834,-0.01739 -0.020553,-0.04111 -0.020553,-0.07193 v -0.1581 l -0.010276,-0.0047 c -0.050987,0.03399 -0.109484,0.06877 -0.1758858,0.104346 -0.066402,0.03557 -0.1367562,0.06877 -0.2114583,0.0996 -0.075097,0.03083 -0.1521709,0.05534 -0.2320112,0.07431 -0.080236,0.01818 -0.1592854,0.02767 -0.2371495,0.02767 -0.1735143,0 -0.3102705,-0.02371 -0.4106638,-0.07115 -0.1003933,-0.04743 -0.1758858,-0.113831 -0.226873,-0.199205 -0.050987,-0.08458 -0.083398,-0.184977 -0.096836,-0.30039 -0.013834,-0.116203 -0.020553,-0.240311 -0.020553,-0.372324 V 22.61671 c 0,-0.06798 0.032411,-0.101975 0.097627,-0.101975 h 0.3758819 c 0.061659,0 0.092488,0.03399 0.092488,0.101975 v 1.433173 c 0,0.07826 0.00514,0.147823 0.015415,0.208691 0.00988,0.06166 0.028458,0.113042 0.05573,0.155729 0.026877,0.04269 0.064426,0.07589 0.1114602,0.0996 0.04743,0.02371 0.1102745,0.03557 0.1881386,0.03557 0.054149,0 0.114227,-0.0087 0.1798384,-0.0253 0.066007,-0.01739 0.1312227,-0.03873 0.1956483,-0.06403 0.06403,-0.02529 0.1233177,-0.05059 0.1774668,-0.07668 0.054149,-0.0253 0.098022,-0.04664 0.1320132,-0.06324 V 22.6167 c 0,-0.03083 0.00672,-0.05533 0.020553,-0.07431 0.013438,-0.01818 0.038734,-0.02767 0.076283,-0.02767 h 0.3620481 c 0.064426,0 0.096836,0.03399 0.096836,0.101975 v 2.299559 c 0,0.06482 -0.032411,0.09723 -0.096836,0.09723 z"
           id="path1264" />
        <path
           class="cls-2"
           d="m 5.9714235,24.916227 c 0,0.06482 -0.03241,0.09723 -0.097627,0.09723 H 5.5030533 c -0.065216,0 -0.097627,-0.03241 -0.097627,-0.09723 v -2.299559 c 0,-0.06798 0.03241,-0.101975 0.097627,-0.101975 h 0.3656054 c 0.068378,0 0.1027648,0.03399 0.1027648,0.101975 v 0.224501 l 0.010276,0.01028 c 0.037153,-0.03399 0.086559,-0.07114 0.1478231,-0.10988 0.061264,-0.03873 0.1264797,-0.0751 0.1964388,-0.106717 0.069564,-0.03241 0.1403135,-0.06245 0.2114583,-0.08933 0.07154,-0.02767 0.1379419,-0.04585 0.1988103,-0.05613 0.033991,-0.0071 0.061264,-0.0055 0.081817,0.0047 0.020553,0.01028 0.033991,0.03715 0.040711,0.08142 l 0.035572,0.342285 c 0.00356,0.03715 0.00198,0.06403 -0.00474,0.08142 -0.00711,0.0166 -0.037549,0.03004 -0.092093,0.04031 -0.071145,0.01423 -0.1462421,0.03004 -0.2241062,0.04901 -0.078259,0.01818 -0.1549377,0.03873 -0.2296398,0.06087 -0.074702,0.02213 -0.1446611,0.04348 -0.2090867,0.06403 -0.064426,0.02055 -0.11897,0.04031 -0.1632379,0.06087 z"
           id="path1266" />
        <path
           class="cls-2"
           d="m 9.3318314,23.723365 c 0,0.146242 -0.00909,0.297227 -0.027667,0.453746 -0.018972,0.156519 -0.065611,0.300389 -0.1399181,0.430822 -0.074702,0.131222 -0.1869529,0.23794 -0.3359618,0.321732 -0.1494041,0.083 -0.3561194,0.124899 -0.6205411,0.124899 -0.2545404,0 -0.4549317,-0.0419 -0.6003834,-0.124899 C 7.4611174,24.845873 7.3520286,24.739155 7.2789075,24.607933 7.2061817,24.4775 7.1611233,24.33363 7.1441276,24.177111 c -0.016996,-0.156519 -0.025296,-0.307504 -0.025296,-0.453746 0,-0.119365 0.011067,-0.251378 0.032806,-0.39762 0.022134,-0.146243 0.070354,-0.282999 0.1450564,-0.41106 0.074702,-0.12727 0.1841861,-0.233987 0.3280568,-0.320942 0.1442659,-0.08695 0.3383332,-0.130432 0.5829924,-0.130432 0.247426,0 0.4450505,0.03794 0.5924784,0.112251 0.147428,0.0751 0.2604692,0.173119 0.3383333,0.293275 0.077864,0.120946 0.1296417,0.256121 0.1553329,0.405525 0.025296,0.149404 0.037944,0.299599 0.037944,0.449003 z m -0.5659967,0.03557 c 0,-0.135966 -0.00672,-0.25375 -0.020158,-0.354144 -0.013834,-0.100393 -0.041106,-0.184186 -0.081817,-0.249797 -0.040711,-0.0664 -0.096836,-0.116994 -0.1683761,-0.150985 -0.071145,-0.03399 -0.1648189,-0.05059 -0.2802316,-0.05059 -0.1090888,0 -0.1972293,0.0166 -0.2652122,0.05059 -0.067983,0.03399 -0.1217367,0.08537 -0.1608664,0.153356 -0.03913,0.06798 -0.066007,0.151776 -0.081421,0.252169 -0.015415,0.100394 -0.022924,0.216597 -0.022924,0.349401 0,0.135965 0.00751,0.25454 0.022924,0.354143 0.015415,0.100393 0.041501,0.184186 0.07905,0.249797 0.037153,0.0664 0.090117,0.116994 0.1580997,0.150985 0.067983,0.03399 0.1561234,0.05059 0.2652121,0.05059 0.1154128,0 0.2098773,-0.01581 0.2829984,-0.04822 0.073121,-0.03241 0.1300369,-0.08142 0.1707476,-0.147823 0.040711,-0.0664 0.067983,-0.150195 0.081817,-0.252169 0.013438,-0.101975 0.020158,-0.22134 0.020158,-0.357305 z"
           id="path1268" />
        <path
           class="cls-2"
           d="m 12.040078,23.748661 c 0,0.207111 -0.01541,0.392878 -0.04624,0.55572 -0.03043,0.163633 -0.08379,0.30118 -0.160471,0.413431 -0.07668,0.112251 -0.180234,0.196834 -0.311061,0.25454 -0.130828,0.05771 -0.296832,0.08695 -0.497223,0.08695 -0.08498,0 -0.182606,-0.0087 -0.293275,-0.0253 -0.11067,-0.01739 -0.225292,-0.04585 -0.344262,-0.08695 l -0.0051,0.0055 v 0.897215 c 0,0.02688 -0.0059,0.05138 -0.01779,0.07115 -0.01186,0.02055 -0.03834,0.03083 -0.07905,0.03083 H 9.9235193 c -0.040711,0 -0.067192,-0.0087 -0.07905,-0.0253 -0.011858,-0.01739 -0.017786,-0.04269 -0.017786,-0.07668 V 22.61663 c 0,-0.06798 0.03241,-0.101975 0.096836,-0.101975 h 0.3620477 c 0.03755,0 0.06205,0.0095 0.07391,0.02767 0.01186,0.01897 0.01779,0.04348 0.01779,0.07431 v 0.152566 l 0.01542,0.01028 c 0.04427,-0.03004 0.09763,-0.06324 0.160866,-0.09881 0.06284,-0.03636 0.130037,-0.06956 0.201182,-0.0996 0.07154,-0.03083 0.144661,-0.05613 0.219363,-0.07668 0.0747,-0.02055 0.149405,-0.03083 0.224502,-0.03083 0.1664,0 0.303946,0.03083 0.413035,0.0917 0.108694,0.06166 0.194463,0.147823 0.257307,0.257703 0.06284,0.110669 0.107113,0.244264 0.132804,0.400782 0.0253,0.155728 0.03834,0.331219 0.03834,0.524891 z m -0.576273,-0.0047 c 0,-0.163633 -0.0079,-0.294065 -0.02292,-0.392878 -0.01541,-0.09881 -0.04032,-0.17549 -0.07431,-0.229244 -0.03399,-0.05454 -0.07549,-0.09091 -0.124899,-0.109879 -0.04901,-0.01897 -0.107903,-0.02846 -0.175886,-0.02846 -0.05099,0 -0.108693,0.0087 -0.173119,0.02609 -0.06482,0.0166 -0.128456,0.03636 -0.1913,0.0585 -0.06324,0.02213 -0.122528,0.04664 -0.178653,0.07352 -0.05612,0.02767 -0.102765,0.05138 -0.140313,0.07194 v 1.275073 c 0.115807,0.03399 0.220153,0.05692 0.313827,0.06877 0.09328,0.01186 0.184186,0.01739 0.272722,0.01739 0.0917,0 0.169167,-0.01265 0.232011,-0.03794 0.06284,-0.0253 0.113832,-0.07036 0.152962,-0.135175 0.03913,-0.06482 0.06719,-0.150195 0.08419,-0.257703 0.017,-0.106717 0.02569,-0.240311 0.02569,-0.399992 z"
           id="path1270" />
        <path
           class="cls-2"
           d="m 13.01911,23.917037 c 0.0032,0.128851 0.01779,0.236359 0.04308,0.320942 0.02569,0.08537 0.06403,0.152567 0.115018,0.201578 0.05099,0.0498 0.113832,0.08458 0.188534,0.104345 0.0747,0.02055 0.164819,0.03083 0.27035,0.03083 0.0917,0 0.200391,-0.0063 0.326476,-0.02055 0.125689,-0.01344 0.23794,-0.0253 0.336357,-0.03557 0.04782,-0.0063 0.08063,-0.0055 0.0996,0.0024 0.01858,0.0087 0.03122,0.03715 0.03834,0.08458 l 0.03043,0.168376 c 0.0067,0.03715 0.0059,0.06798 -0.0024,0.0917 -0.0087,0.02371 -0.03676,0.04585 -0.08419,0.0664 -0.05099,0.02055 -0.110669,0.03794 -0.178652,0.05375 -0.06798,0.01502 -0.139523,0.02767 -0.214225,0.03794 -0.0747,0.01028 -0.149404,0.01818 -0.224502,0.0253 -0.0747,0.0071 -0.142685,0.01028 -0.203948,0.01028 -0.244659,0 -0.440308,-0.03557 -0.586155,-0.106717 -0.146242,-0.07193 -0.258493,-0.166795 -0.336752,-0.28616 -0.07826,-0.118575 -0.130037,-0.255331 -0.155728,-0.410269 -0.0253,-0.154938 -0.03794,-0.315409 -0.03794,-0.482204 0,-0.121737 0.01028,-0.260074 0.03043,-0.41264 0.02055,-0.153357 0.06719,-0.295646 0.140314,-0.42845 0.07312,-0.132804 0.181814,-0.244264 0.326475,-0.334381 0.144266,-0.09012 0.340705,-0.135175 0.588922,-0.135175 0.227663,0 0.412244,0.03399 0.553348,0.101974 0.141104,0.06877 0.250588,0.155728 0.328848,0.263236 0.07826,0.106717 0.131618,0.229245 0.160471,0.366791 0.02885,0.137547 0.04506,0.275094 0.04861,0.410269 0.0032,0.09249 -0.01186,0.166795 -0.04585,0.224501 -0.03399,0.0585 -0.101975,0.08695 -0.203949,0.08695 z m 0.509872,-0.989704 c -0.09525,0 -0.173515,0.01423 -0.234778,0.04111 -0.06087,0.02688 -0.111065,0.0664 -0.150195,0.118575 -0.03913,0.05217 -0.06719,0.116203 -0.08419,0.192091 -0.017,0.07589 -0.02885,0.161262 -0.03557,0.255331 h 1.009466 c 0,-0.07747 -0.0067,-0.152566 -0.02016,-0.225292 -0.01383,-0.07193 -0.03834,-0.136756 -0.07391,-0.194462 -0.03597,-0.05692 -0.08695,-0.102765 -0.153356,-0.136757 -0.06601,-0.0332 -0.152171,-0.05059 -0.257307,-0.05059 z"
           id="path1272" />
        <path
           class="cls-2"
           d="m 16.660145,24.722555 c -0.129246,0.09881 -0.274698,0.178652 -0.436355,0.239521 -0.161262,0.06166 -0.328847,0.09249 -0.501966,0.09249 -0.136361,0 -0.249403,-0.01818 -0.339124,-0.05375 -0.09012,-0.03557 -0.161657,-0.08537 -0.214225,-0.147823 -0.05296,-0.06324 -0.09012,-0.138337 -0.112251,-0.226873 -0.02213,-0.08854 -0.0332,-0.187348 -0.0332,-0.295646 -0.0036,-0.299599 0.0747,-0.516196 0.234383,-0.65058 0.160076,-0.134385 0.401178,-0.201577 0.724492,-0.201577 h 0.652556 v -0.133594 c 0,-0.07589 -0.0075,-0.139919 -0.02293,-0.192882 -0.01541,-0.05375 -0.04348,-0.09723 -0.08419,-0.131223 -0.04071,-0.03478 -0.09525,-0.0585 -0.163238,-0.07193 -0.06798,-0.01423 -0.154542,-0.02134 -0.260073,-0.02134 -0.04071,0 -0.09091,0.0024 -0.150195,0.0055 -0.05968,0.0032 -0.120946,0.0071 -0.183791,0.01028 -0.06285,0.0032 -0.125689,0.0087 -0.188534,0.01502 -0.06324,0.0071 -0.11976,0.01186 -0.171143,0.01581 -0.05099,0.0063 -0.08577,0.0071 -0.104345,0.0024 -0.01858,-0.0055 -0.03162,-0.02688 -0.03834,-0.06403 l -0.04585,-0.186558 c -0.0067,-0.0332 -0.0036,-0.06087 0.01028,-0.083 0.01344,-0.02213 0.04901,-0.04427 0.107113,-0.06798 0.05415,-0.02055 0.11897,-0.03715 0.193672,-0.05059 0.0747,-0.01344 0.15138,-0.02451 0.229639,-0.0332 0.07826,-0.0079 0.155333,-0.01502 0.232012,-0.01976 0.07628,-0.0047 0.145451,-0.0079 0.20632,-0.0079 0.220944,0 0.397225,0.02213 0.528052,0.0664 0.130828,0.04427 0.230035,0.106717 0.298413,0.186557 0.06798,0.07984 0.111856,0.177863 0.132409,0.293275 0.02055,0.115413 0.03043,0.244264 0.03043,0.387344 v 0.984171 c 0,0.05138 0.0028,0.09091 0.0079,0.120155 0.0051,0.02846 0.01344,0.05059 0.0253,0.0664 0.01186,0.01502 0.02964,0.02609 0.05375,0.03241 0.02372,0.0071 0.05613,0.01265 0.09684,0.01581 0.03715,0.0032 0.06285,0.01028 0.07628,0.02055 0.01383,0.01028 0.02055,0.02846 0.02055,0.05613 v 0.214225 c 0,0.05771 -0.04071,0.09328 -0.122527,0.106717 -0.04071,0.0071 -0.08142,0.01265 -0.122132,0.01818 -0.04071,0.0047 -0.07984,0.0071 -0.117389,0.0071 -0.11897,0 -0.215016,-0.02213 -0.288137,-0.0664 -0.07312,-0.04348 -0.123318,-0.125689 -0.15059,-0.244264 z m -0.03083,-0.846624 h -0.622122 c -0.129247,0 -0.231221,0.03004 -0.305923,0.08933 -0.0747,0.06008 -0.112251,0.173119 -0.112251,0.339123 0,0.112251 0.02292,0.18972 0.06877,0.232407 0.04585,0.04269 0.128456,0.06324 0.247426,0.06324 0.05454,0 0.113832,-0.0063 0.178653,-0.01976 0.06442,-0.01344 0.128851,-0.03241 0.193672,-0.05613 0.06443,-0.02371 0.12727,-0.05059 0.188534,-0.07905 0.06126,-0.02925 0.115808,-0.05692 0.163238,-0.08458 z"
           id="path1274" />
        <path
           class="cls-2"
           d="m 19.979447,24.988162 c -0.01383,0.0166 -0.03953,0.0253 -0.07707,0.0253 h -0.370348 c -0.06522,0 -0.09802,-0.03241 -0.09802,-0.09723 l 0.0051,-1.432383 c 0,-0.150194 -0.02451,-0.27035 -0.07391,-0.362048 -0.04941,-0.09249 -0.147033,-0.138337 -0.293275,-0.138337 -0.05099,0 -0.109484,0.0087 -0.175886,0.02609 -0.0664,0.0166 -0.132408,0.03794 -0.19881,0.06324 -0.0664,0.02609 -0.128456,0.05138 -0.186162,0.07668 -0.0581,0.0253 -0.103951,0.04664 -0.137942,0.06403 v 1.702733 c 0,0.06482 -0.03202,0.09723 -0.09684,0.09723 H 17.91427 c -0.06442,0 -0.09684,-0.03241 -0.09684,-0.09723 v -2.299559 c 0,-0.06798 0.03241,-0.101975 0.09684,-0.101975 h 0.362049 c 0.06482,0 0.09684,0.03399 0.09684,0.101975 v 0.152566 c 0.0036,0 0.0059,0.0016 0.0079,0.0032 0.0016,0.0016 0.0043,0.0024 0.0075,0.0024 0.04783,-0.03399 0.104741,-0.06877 0.171539,-0.104345 0.0664,-0.03557 0.137151,-0.06877 0.212248,-0.0996 0.0751,-0.03083 0.153357,-0.05533 0.235173,-0.07431 0.08182,-0.01818 0.162053,-0.02767 0.240707,-0.02767 0.17391,0 0.310271,0.02609 0.409083,0.07905 0.09881,0.05296 0.17391,0.123318 0.225292,0.211854 0.05099,0.08775 0.0834,0.19051 0.09723,0.308294 C 19.993281,23.185036 20,23.308354 20,23.437995 v 1.478232 c 0,0.03083 -0.0067,0.05454 -0.02055,0.07193 z"
           id="path1276" />
        <path
           class="cls-2"
           d="M 1.0912828,31 C 1.0268568,31 0.9521551,30.9976 0.86717654,30.9921 0.78219794,30.9874 0.69445268,30.97866 0.60433588,30.9668 0.51421908,30.95494 0.42489279,30.93992 0.33675224,30.92095 0.24821644,30.90198 0.17193336,30.87905 0.10711251,30.85218 0.04940614,30.82846 0.01620521,30.80475 0.00790498,30.78103 -7.90498e-4,30.75732 -0.001581,30.72807 0.00513824,30.69408 l 0.04584889,-0.209482 c 0.01027648,-0.04348 0.0249007,-0.06956 0.04347741,-0.07589 0.0185767,-0.0071 0.05019663,-0.0071 0.09446453,0 0.0644256,0.0063 0.13754669,0.01423 0.21936326,0.02293 0.0814213,0.0087 0.16284263,0.01581 0.24465919,0.02292 0.0814213,0.0063 0.16047114,0.01265 0.23714947,0.01739 0.0762831,0.0055 0.14347541,0.0079 0.20118181,0.0079 0.4351692,0 0.6529515,-0.149404 0.6529515,-0.449003 0,-0.0917 -0.010277,-0.166795 -0.030434,-0.226873 -0.020553,-0.05929 -0.054544,-0.109089 -0.1023695,-0.150194 -0.04743,-0.04111 -0.109484,-0.07273 -0.1857671,-0.09723 -0.076678,-0.02372 -0.1727238,-0.04585 -0.2881366,-0.06561 C 0.98772752,29.460109 0.84425209,29.426118 0.70631015,29.388174 0.56876346,29.351021 0.44702674,29.298848 0.34189048,29.230075 0.23635897,29.162882 0.1529614,29.072765 0.09209304,28.960515 0.03082943,28.848264 0,28.705184 0,28.532065 c 0,-0.323314 0.10276477,-0.56995 0.30868955,-0.739907 0.20552954,-0.169957 0.4885279,-0.25454 0.84899505,-0.25454 0.047825,0 0.1098793,0.0016 0.1861624,0.0047 0.076678,0.0032 0.1580996,0.0095 0.2446592,0.01818 0.086955,0.0087 0.1743048,0.02213 0.2628406,0.04032 0.088141,0.01897 0.1699571,0.04348 0.2446592,0.07431 0.057706,0.02371 0.090907,0.04743 0.099603,0.07114 0.0083,0.02371 0.00909,0.05296 0.00237,0.08695 L 2.146992,28.04191 C 2.136716,28.08302 2.121696,28.10752 2.101143,28.11622 2.08059,28.12492 2.046599,28.12729 1.9991688,28.12412 1.883756,28.10673 1.7568811,28.09171 1.6193344,28.07827 1.4813924,28.06404 1.336336,28.05772 1.1833746,28.05772 c -0.21778223,0 -0.36995314,0.03952 -0.45651269,0.119365 -0.0865596,0.07984 -0.13003696,0.1913 -0.13003696,0.334381 0,0.08142 0.011067,0.147032 0.0332009,0.196043 0.0221339,0.0498 0.0569159,0.08933 0.10434577,0.120156 0.0478251,0.03083 0.10987925,0.05533 0.18616233,0.07352 0.0766783,0.01897 0.17074765,0.03874 0.28299835,0.05929 0.1462422,0.03004 0.2873461,0.06403 0.4233118,0.101974 0.1359657,0.03715 0.2557262,0.0917 0.3596767,0.162843 0.1035553,0.07114 0.1869528,0.166795 0.2497974,0.285369 0.062845,0.119366 0.094465,0.275884 0.094465,0.469556 0,0.193672 -0.033991,0.354934 -0.1019743,0.484576 C 2.1604316,30.593684 2.0695243,30.69803 1.9556926,30.77787 1.8418608,30.858501 1.7102429,30.915417 1.5604435,30.949408 1.4110393,30.982609 1.2545207,31 1.0912828,31 Z"
           id="path1278" />
        <path
           class="cls-2"
           d="m 4.3908223,30.760479 c 0.010276,0.05771 -0.011857,0.100393 -0.066402,0.12727 -0.044268,0.02055 -0.096046,0.03794 -0.1553329,0.05138 -0.059683,0.01344 -0.1209463,0.0245 -0.1837909,0.0332 -0.062845,0.0079 -0.1221319,0.01423 -0.1782573,0.01739 -0.056125,0.0032 -0.104741,0.0055 -0.1454517,0.0055 -0.1497994,0 -0.2660026,-0.02134 -0.3494002,-0.06403 C 3.2287893,30.888499 3.1667356,30.830005 3.126025,30.754908 3.085314,30.680598 3.059623,30.593646 3.049742,30.494834 3.039466,30.396814 3.034327,30.293257 3.034327,30.184168 V 28.904389 H 2.7793917 c -0.037549,0 -0.062845,-0.0079 -0.076678,-0.02292 -0.013438,-0.01581 -0.020158,-0.04032 -0.020158,-0.07431 v -0.249797 c 0,-0.03399 0.00672,-0.05929 0.020158,-0.07668 0.013834,-0.0166 0.03913,-0.0253 0.076678,-0.0253 h 0.2600739 v -0.525681 c 0,-0.03715 0.00909,-0.06324 0.028063,-0.07905 0.018577,-0.01502 0.041501,-0.02609 0.068773,-0.03241 l 0.3414952,-0.09249 c 0.067983,-0.0166 0.1019743,0.004 0.1019743,0.06166 v 0.667971 h 0.545839 c 0.040711,0 0.067192,0.0087 0.07905,0.0253 0.011858,0.01739 0.017786,0.04111 0.017786,0.07114 v 0.255331 c 0,0.03399 -0.00593,0.0585 -0.017786,0.07431 -0.011857,0.01502 -0.038339,0.02292 -0.07905,0.02292 h -0.545839 v 1.26954 c 0,0.06798 0.00514,0.120947 0.015415,0.1581 0.010276,0.03715 0.028063,0.06561 0.053754,0.08379 0.025296,0.01897 0.060078,0.03004 0.1043458,0.0332 0.044268,0.004 0.1003933,0.0055 0.1683761,0.0055 0.037153,0 0.090907,-0.0016 0.1604712,-0.0055 0.069959,-0.0032 0.1300369,-0.0079 0.1810241,-0.01502 0.027272,-0.0032 0.047825,0 0.061264,0.01028 0.013834,0.01028 0.023715,0.03083 0.030829,0.06087 z"
           id="path1280" />
        <path
           class="cls-2"
           d="M 6.741764,30.954151 H 6.3797158 c -0.037549,0 -0.062845,-0.0087 -0.076283,-0.0253 -0.013834,-0.01739 -0.020553,-0.04111 -0.020553,-0.07193 v -0.1581 l -0.010276,-0.0047 c -0.050987,0.03399 -0.109484,0.06877 -0.1758858,0.104346 -0.066402,0.03557 -0.1367562,0.06877 -0.2114583,0.0996 -0.075097,0.03083 -0.1521709,0.05533 -0.2320112,0.07431 C 5.5730124,30.990514 5.4939626,31 5.4160985,31 5.2425841,31 5.1058279,30.976285 5.0054347,30.928855 4.9050414,30.881425 4.8295488,30.815023 4.7785617,30.72965 4.7275746,30.645066 4.6951641,30.544673 4.6817257,30.42926 4.6678919,30.313057 4.6611727,30.188949 4.6611727,30.056936 v -1.499575 c 0,-0.06798 0.03241,-0.101975 0.097627,-0.101975 h 0.3758819 c 0.061659,0 0.092488,0.03399 0.092488,0.101975 v 1.433173 c 0,0.07826 0.00514,0.147823 0.015415,0.208691 0.00988,0.06166 0.028458,0.113042 0.05573,0.155728 0.026877,0.04269 0.064426,0.07589 0.1114602,0.0996 0.04743,0.02371 0.1102745,0.03557 0.1881386,0.03557 0.054149,0 0.114227,-0.0087 0.1798383,-0.0253 0.066007,-0.01739 0.1312227,-0.03873 0.1956483,-0.06403 0.06403,-0.0253 0.1233178,-0.05059 0.1774669,-0.07668 0.054149,-0.0253 0.098022,-0.04664 0.1320132,-0.06324 V 28.55735 c 0,-0.03083 0.00672,-0.05533 0.020553,-0.07431 0.013438,-0.01818 0.038734,-0.02767 0.076283,-0.02767 H 6.741764 c 0.064426,0 0.096836,0.03399 0.096836,0.101975 v 2.299559 c 0,0.06482 -0.03241,0.09723 -0.096836,0.09723 z"
           id="path1282" />
        <path
           class="cls-2"
           d="m 9.5314322,30.85692 c 0,0.03083 -0.00593,0.05454 -0.018181,0.07193 -0.011857,0.0166 -0.036363,0.0253 -0.073912,0.0253 H 9.0721527 c -0.060868,0 -0.091698,-0.03004 -0.091698,-0.09091 v -0.161262 c -0.00316,0 -0.00593,-7.9e-4 -0.00751,-0.0024 -0.00198,-0.0016 -0.00435,-0.0024 -0.0079,-0.0024 -0.043873,0.03004 -0.096836,0.06324 -0.1580996,0.09802 -0.060868,0.03557 -0.1272702,0.06877 -0.1988103,0.09881 -0.071145,0.03004 -0.1450564,0.05455 -0.2217348,0.07352 -0.076283,0.01818 -0.1521709,0.02767 -0.226873,0.02767 -0.1667951,0 -0.3035513,-0.03004 -0.4106638,-0.08933 C 7.6417462,30.846643 7.5567677,30.76206 7.493923,30.652971 7.4310784,30.544673 7.3868105,30.41266 7.3615146,30.257722 c -0.025691,-0.154147 -0.038339,-0.328847 -0.038339,-0.522519 0,-0.207111 0.014229,-0.393668 0.043477,-0.558092 0.028853,-0.165214 0.080631,-0.305132 0.1553329,-0.420545 0.074702,-0.116203 0.1774669,-0.203158 0.3086896,-0.263236 0.1308274,-0.05929 0.2999941,-0.08933 0.5071046,-0.08933 0.211063,0 0.4217308,0.03953 0.6323986,0.117784 0.00356,0 0.00514,-7.9e-4 0.00514,-0.0024 0,-0.0024 0.00198,-0.0032 0.00514,-0.0032 V 27.46094 c 0,-0.03399 0.00593,-0.05929 0.017786,-0.07668 0.011857,-0.0166 0.038339,-0.0253 0.07905,-0.0253 h 0.3620481 c 0.041106,0 0.066402,0.0095 0.076678,0.02767 0.010276,0.01897 0.015415,0.04348 0.015415,0.07431 z M 8.9753167,28.981068 c -0.1193652,-0.03399 -0.2260825,-0.05692 -0.3201518,-0.06956 -0.094069,-0.01186 -0.1833956,-0.01739 -0.2691646,-0.01739 -0.092093,0 -0.1707476,0.01344 -0.2355685,0.04111 -0.064821,0.02688 -0.1162032,0.07273 -0.1537519,0.137546 -0.037549,0.06482 -0.064821,0.150986 -0.081817,0.258493 -0.016996,0.107508 -0.025691,0.241102 -0.025691,0.401573 0,0.163633 0.00751,0.295647 0.022924,0.39683 0.015415,0.100394 0.040315,0.177072 0.074307,0.230035 0.034387,0.05296 0.075493,0.08854 0.1229225,0.107508 0.047825,0.01897 0.1059268,0.02767 0.1743049,0.02767 0.051382,0 0.109484,-0.0079 0.1743048,-0.0253 0.064821,-0.01739 0.1296417,-0.03715 0.1948578,-0.06166 0.064821,-0.02372 0.125294,-0.04822 0.1818146,-0.07352 0.056125,-0.02609 0.10316,-0.04901 0.1407087,-0.06956 z"
           id="path1284" />
        <path
           class="cls-2"
           d="m 10.6073,29.85773 c 0.0032,0.128851 0.01779,0.236359 0.04308,0.320942 0.02569,0.08537 0.06403,0.152567 0.115018,0.201577 0.05099,0.0498 0.113832,0.08458 0.188534,0.104346 0.0747,0.02055 0.164819,0.03083 0.27035,0.03083 0.0917,0 0.200391,-0.0063 0.326476,-0.02055 0.125689,-0.01344 0.23794,-0.0253 0.336357,-0.03557 0.04782,-0.0063 0.08063,-0.0055 0.0996,0.0024 0.01858,0.0087 0.03122,0.03715 0.03834,0.08458 l 0.03043,0.168376 c 0.0067,0.03715 0.0059,0.06798 -0.0024,0.0917 -0.0087,0.02371 -0.03676,0.04585 -0.08419,0.0664 -0.05099,0.02055 -0.110669,0.03794 -0.178652,0.05375 -0.06798,0.01502 -0.139523,0.02767 -0.214225,0.03794 -0.0747,0.01028 -0.149404,0.01818 -0.224502,0.0253 C 11.276852,30.996838 11.208869,31 11.147606,31 c -0.244659,0 -0.440308,-0.03557 -0.586155,-0.106717 -0.146242,-0.07194 -0.258493,-0.166795 -0.336752,-0.286161 -0.07826,-0.118574 -0.130037,-0.255331 -0.155728,-0.410268 -0.0253,-0.154938 -0.03794,-0.315409 -0.03794,-0.482204 0,-0.121737 0.01028,-0.260074 0.03043,-0.41264 0.02055,-0.153357 0.06719,-0.295646 0.140314,-0.42845 0.07312,-0.132804 0.181814,-0.244264 0.326475,-0.334381 0.144266,-0.09012 0.340705,-0.135175 0.588922,-0.135175 0.227663,0 0.412244,0.03399 0.553348,0.101974 0.141104,0.06877 0.250588,0.155728 0.328848,0.263236 0.07826,0.106717 0.131618,0.229245 0.160471,0.366791 0.02885,0.137547 0.04506,0.275094 0.04861,0.410269 0.0032,0.09249 -0.01186,0.166795 -0.04585,0.224501 -0.03399,0.0585 -0.101974,0.08695 -0.203948,0.08695 z m 0.509872,-0.989704 c -0.09525,0 -0.173515,0.01423 -0.234778,0.04111 -0.06087,0.02688 -0.111065,0.0664 -0.150195,0.118575 -0.03913,0.05217 -0.06719,0.116203 -0.08419,0.192091 -0.017,0.07589 -0.02885,0.161262 -0.03557,0.255331 h 1.009467 c 0,-0.07747 -0.0067,-0.152566 -0.02016,-0.225292 -0.01383,-0.07193 -0.03834,-0.136756 -0.07391,-0.194463 -0.03597,-0.05692 -0.08695,-0.102764 -0.153356,-0.136756 -0.06601,-0.0332 -0.152171,-0.05059 -0.257307,-0.05059 z"
           id="path1286" />
        <path
           class="cls-2"
           d="m 14.813936,30.928855 c -0.01383,0.0166 -0.03952,0.0253 -0.07707,0.0253 h -0.370349 c -0.06522,0 -0.09802,-0.03241 -0.09802,-0.09723 l 0.0051,-1.432383 c 0,-0.150195 -0.0245,-0.27035 -0.07391,-0.362048 -0.04941,-0.09249 -0.147032,-0.138337 -0.293274,-0.138337 -0.05099,0 -0.109484,0.0087 -0.175886,0.02609 -0.0664,0.0166 -0.132409,0.03794 -0.198811,0.06324 -0.0664,0.02609 -0.128456,0.05138 -0.186162,0.07668 -0.0581,0.0253 -0.10395,0.04664 -0.137942,0.06403 v 1.702733 c 0,0.06482 -0.03201,0.09723 -0.09684,0.09723 H 12.74876 c -0.06443,0 -0.09684,-0.03241 -0.09684,-0.09723 v -2.299559 c 0,-0.06798 0.03241,-0.101975 0.09684,-0.101975 h 0.362048 c 0.06482,0 0.09684,0.03399 0.09684,0.101975 v 0.152566 c 0.0036,0 0.0059,0.0016 0.0079,0.0032 0.0016,0.0016 0.0043,0.0024 0.0075,0.0024 0.04783,-0.03399 0.104741,-0.06877 0.171538,-0.104346 0.0664,-0.03557 0.137151,-0.06877 0.212249,-0.0996 0.0751,-0.03083 0.153356,-0.05533 0.235173,-0.07431 0.08182,-0.01818 0.162052,-0.02767 0.240707,-0.02767 0.173909,0 0.31027,0.02609 0.409082,0.07905 0.09881,0.05296 0.17391,0.123318 0.225292,0.211854 0.05099,0.08774 0.0834,0.19051 0.09723,0.308294 0.01344,0.116994 0.02016,0.240311 0.02016,0.369953 v 1.478232 c 0,0.03083 -0.0067,0.05454 -0.02055,0.07193 z"
           id="path1288" />
        <path
           class="cls-2"
           d="m 16.920219,30.760479 c 0.01028,0.05771 -0.01186,0.100393 -0.0664,0.12727 -0.04427,0.02055 -0.09605,0.03794 -0.155333,0.05138 -0.05968,0.01344 -0.120946,0.0245 -0.183791,0.0332 -0.06284,0.0079 -0.122132,0.01423 -0.178257,0.01739 -0.05612,0.0032 -0.104741,0.0055 -0.145452,0.0055 -0.149799,0 -0.266002,-0.02134 -0.3494,-0.06403 -0.0834,-0.04269 -0.145452,-0.101184 -0.186162,-0.176281 -0.04071,-0.07431 -0.0664,-0.161262 -0.07628,-0.260074 -0.01028,-0.09802 -0.01541,-0.201577 -0.01541,-0.310666 v -1.279817 h -0.254936 c -0.03755,0 -0.06284,-0.0079 -0.07668,-0.02292 -0.01344,-0.01581 -0.02016,-0.04032 -0.02016,-0.07431 v -0.249797 c 0,-0.03399 0.0067,-0.05929 0.02016,-0.07668 0.01383,-0.0166 0.03913,-0.0253 0.07668,-0.0253 h 0.260074 v -0.525681 c 0,-0.03715 0.0091,-0.06324 0.02806,-0.07905 0.01858,-0.01502 0.0415,-0.02609 0.06877,-0.03241 l 0.341496,-0.09249 c 0.06798,-0.0166 0.101974,0.004 0.101974,0.06166 v 0.667971 h 0.545839 c 0.04071,0 0.06719,0.0087 0.07905,0.0253 0.01186,0.01739 0.01779,0.04111 0.01779,0.07114 v 0.255331 c 0,0.03399 -0.0059,0.0585 -0.01779,0.07431 -0.01186,0.01502 -0.03834,0.02292 -0.07905,0.02292 h -0.545839 v 1.26954 c 0,0.06798 0.0051,0.120947 0.01542,0.1581 0.01028,0.03715 0.02806,0.06561 0.05375,0.08379 0.0253,0.01897 0.06008,0.03004 0.104346,0.0332 0.04427,0.004 0.100393,0.0055 0.168376,0.0055 0.03715,0 0.09091,-0.0016 0.160471,-0.0055 0.06996,-0.0032 0.130037,-0.0079 0.181025,-0.01502 0.02727,-0.0032 0.04782,0 0.06126,0.01028 0.01383,0.01028 0.02371,0.03083 0.03083,0.06087 z"
           id="path1290" />
        <path
           class="cls-2"
           d="m 0.07154009,35.291733 c 0,-0.217387 0.01699571,-0.431612 0.05098713,-0.642675 0.0339914,-0.211063 0.10118377,-0.398411 0.20157705,-0.563625 0.099998,-0.164424 0.23952095,-0.298018 0.41817355,-0.399992 0.17825735,-0.101974 0.41382578,-0.153357 0.70631018,-0.153357 0.060868,0 0.1316179,0.0024 0.2114582,0.0079 0.07984,0.0047 0.1624474,0.01344 0.247426,0.0253 0.084979,0.01186 0.1683761,0.02767 0.2497974,0.04585 0.081421,0.01897 0.1565187,0.0419 0.2245015,0.06877 0.040711,0.01739 0.068773,0.03794 0.084188,0.06166 0.015019,0.02372 0.019367,0.05613 0.012648,0.09644 l -0.045849,0.209482 c -0.00711,0.03083 -0.018972,0.05296 -0.035968,0.0664 -0.016996,0.01344 -0.049011,0.0166 -0.096836,0.01028 -0.1256892,-0.01739 -0.2608644,-0.03241 -0.4051303,-0.04585 -0.1446612,-0.01423 -0.2833936,-0.02055 -0.415802,-0.02055 -0.1735144,0 -0.3126421,0.03241 -0.4181736,0.09644 -0.10553151,0.06482 -0.18616233,0.153357 -0.2422877,0.265608 -0.0561254,0.112251 -0.0924883,0.241892 -0.109484,0.389715 -0.0169957,0.147824 -0.0256912,0.305133 -0.0256912,0.471928 0,0.166795 0.0102765,0.323314 0.0308294,0.469556 0.0201577,0.145451 0.0592874,0.272722 0.11699374,0.379439 0.0581016,0.107508 0.13873244,0.191301 0.24228776,0.252169 0.1039505,0.06166 0.2387304,0.09249 0.4055256,0.09249 0.1494041,0 0.288927,-0.0071 0.4181735,-0.02055 0.1292465,-0.01344 0.2632359,-0.02925 0.4027588,-0.04585 0.047825,-0.0071 0.07984,-0.004 0.096836,0.01028 0.016996,0.01344 0.030829,0.03715 0.041106,0.07115 l 0.040711,0.193672 c 0.020158,0.0751 -0.0087,0.129641 -0.086559,0.163633 -0.061264,0.02688 -0.1335942,0.0498 -0.2169918,0.06877 -0.083397,0.01818 -0.1683761,0.03478 -0.2549356,0.04822 -0.08656,0.01344 -0.1715382,0.02292 -0.2549357,0.02767 C 1.5817869,36.997629 1.5094563,37 1.448588,37 1.1628229,37 0.93081164,36.95178 0.75215905,36.854548 0.5739017,36.758108 0.43437877,36.629256 0.33398549,36.469576 0.23398747,36.309895 0.16481888,36.12808 0.12766546,35.924132 0.0901168,35.720183 0.07154009,35.50912 0.07154009,35.291733 Z"
           id="path1292" />
        <path
           class="cls-2"
           d="m 4.4726389,36.663248 c -0.1292465,0.09881 -0.2746981,0.178652 -0.436355,0.239521 -0.1612617,0.06166 -0.3288473,0.09249 -0.5019664,0.09249 -0.1363609,0 -0.2494022,-0.01818 -0.3391237,-0.05375 -0.090117,-0.03557 -0.1616569,-0.08537 -0.214225,-0.147823 C 2.9280058,36.730446 2.8908518,36.655349 2.868718,36.566813 2.846584,36.478273 2.835517,36.379465 2.835517,36.271167 2.831957,35.971568 2.910219,35.754971 3.0698997,35.620587 3.2299756,35.486202 3.4710775,35.41901 3.7943913,35.41901 h 0.6525563 v -0.133595 c 0,-0.07589 -0.00751,-0.139918 -0.022925,-0.192881 -0.015415,-0.05375 -0.043477,-0.09723 -0.084188,-0.131223 -0.040711,-0.03478 -0.095255,-0.0585 -0.1632379,-0.07194 -0.067983,-0.01423 -0.1545424,-0.02134 -0.2600739,-0.02134 -0.040711,0 -0.090907,0.0024 -0.1501947,0.0055 -0.059683,0.0032 -0.1209462,0.0071 -0.1837908,0.01028 -0.062845,0.0032 -0.1256892,0.0087 -0.1885338,0.01502 -0.06324,0.0071 -0.1197605,0.01186 -0.1711429,0.01581 -0.050987,0.0063 -0.085769,0.0071 -0.1043458,0.0024 -0.018577,-0.0055 -0.03162,-0.02688 -0.038339,-0.06403 l -0.045849,-0.186558 c -0.00672,-0.0332 -0.00356,-0.06087 0.010276,-0.083 0.013438,-0.02213 0.049011,-0.04427 0.1071125,-0.06798 0.054149,-0.02055 0.11897,-0.03715 0.193672,-0.05059 0.074702,-0.01344 0.1513804,-0.0245 0.2296398,-0.0332 0.078259,-0.0079 0.1553329,-0.01502 0.2320112,-0.01976 0.076283,-0.0047 0.1454517,-0.0079 0.20632,-0.0079 0.2209443,0 0.3972254,0.02213 0.5280528,0.0664 0.1308275,0.04427 0.230035,0.106717 0.2984131,0.186557 0.067983,0.07984 0.1118555,0.177862 0.1324085,0.293275 0.020553,0.115413 0.030434,0.244264 0.030434,0.387344 v 0.984171 c 0,0.05138 0.00277,0.09091 0.00791,0.120155 0.00514,0.02846 0.013439,0.05059 0.025296,0.0664 0.011857,0.01502 0.029644,0.02609 0.053754,0.03241 0.023715,0.0071 0.056125,0.01265 0.096836,0.01581 0.037153,0.0032 0.062845,0.01028 0.076283,0.02055 0.013834,0.01028 0.020553,0.02846 0.020553,0.05613 v 0.214225 c 0,0.05771 -0.040711,0.09328 -0.1225272,0.106717 -0.040711,0.0071 -0.081421,0.01265 -0.122132,0.01818 -0.040711,0.0047 -0.07984,0.0071 -0.117389,0.0071 -0.11897,0 -0.2150155,-0.02213 -0.2881366,-0.0664 C 4.5599929,36.869567 4.5097962,36.787358 4.482524,36.668783 Z M 4.4418095,35.816624 H 3.8196874 c -0.1292465,0 -0.2312208,0.03004 -0.3059228,0.08933 -0.074702,0.06008 -0.1122508,0.17312 -0.1122508,0.339124 0,0.112251 0.022924,0.18972 0.068773,0.232407 0.045849,0.04269 0.128456,0.06324 0.247426,0.06324 0.054544,0 0.1138317,-0.0063 0.1786526,-0.01976 0.064426,-0.01344 0.1288512,-0.03241 0.193672,-0.05613 0.064426,-0.02371 0.1272703,-0.05059 0.1885339,-0.07905 0.061264,-0.02925 0.115808,-0.05692 0.1632379,-0.08458 z"
           id="path1294" />
        <path
           class="cls-2"
           d="m 6.3081757,36.85692 c 0,0.06482 -0.03241,0.09723 -0.097626,0.09723 H 5.8398055 c -0.065216,0 -0.097626,-0.03241 -0.097626,-0.09723 v -2.299559 c 0,-0.06798 0.03241,-0.101975 0.097626,-0.101975 H 6.205411 c 0.068378,0 0.1027647,0.03399 0.1027647,0.101975 v 0.224501 l 0.010277,0.01028 c 0.037153,-0.03399 0.08656,-0.07114 0.1478232,-0.109879 0.061264,-0.03873 0.1264797,-0.0751 0.1964388,-0.106717 0.069564,-0.03241 0.1403134,-0.06245 0.2114582,-0.08933 0.07154,-0.02767 0.137942,-0.04585 0.1988103,-0.05613 0.033991,-0.0071 0.061264,-0.0055 0.081817,0.0047 0.020553,0.01028 0.033991,0.03715 0.040711,0.08142 l 0.035572,0.342285 c 0.00356,0.03715 0.00198,0.06403 -0.00474,0.08142 -0.00711,0.0166 -0.037549,0.03004 -0.092093,0.04031 -0.071145,0.01423 -0.1462422,0.03004 -0.2241063,0.04901 -0.078259,0.01818 -0.1549376,0.03873 -0.2296397,0.06087 -0.074702,0.02213 -0.1446612,0.04348 -0.2090868,0.06403 -0.064426,0.02055 -0.11897,0.04031 -0.1632379,0.06087 z"
           id="path1296" />
        <path
           class="cls-2"
           d="m 9.6535642,36.85692 c 0,0.03083 -0.00593,0.05454 -0.018182,0.07193 -0.011857,0.0166 -0.036363,0.0253 -0.073912,0.0253 H 9.1942847 c -0.060868,0 -0.091698,-0.03004 -0.091698,-0.09091 v -0.161262 c -0.00316,0 -0.00593,-7.9e-4 -0.00751,-0.0024 -0.00198,-0.0016 -0.00435,-0.0024 -0.00791,-0.0024 -0.043873,0.03004 -0.096836,0.06324 -0.1580997,0.09802 -0.060868,0.03557 -0.1272702,0.06877 -0.1988103,0.09881 -0.071145,0.03004 -0.1450564,0.05455 -0.2217347,0.07352 -0.076283,0.01818 -0.1521709,0.02767 -0.226873,0.02767 -0.1667951,0 -0.3035513,-0.03004 -0.4106638,-0.08933 C 7.7638782,36.846643 7.6788996,36.76206 7.616055,36.652971 7.5532104,36.544673 7.5089425,36.41266 7.4836466,36.257722 c -0.025691,-0.154147 -0.038339,-0.328847 -0.038339,-0.522519 0,-0.207111 0.014229,-0.393668 0.043477,-0.558092 0.028853,-0.165214 0.080631,-0.305132 0.1553329,-0.420545 0.074702,-0.116203 0.1774669,-0.203158 0.3086896,-0.263236 0.1308274,-0.05929 0.299994,-0.08933 0.5071046,-0.08933 0.211063,0 0.4217308,0.03952 0.6323985,0.117784 0.00356,0 0.00514,-7.9e-4 0.00514,-0.0024 0,-0.0024 0.00198,-0.0032 0.00514,-0.0032 V 33.46094 c 0,-0.03399 0.00593,-0.05929 0.017786,-0.07668 0.011857,-0.0166 0.038339,-0.0253 0.07905,-0.0253 h 0.3620482 c 0.041106,0 0.066402,0.0095 0.076678,0.02767 0.010276,0.01897 0.015415,0.04348 0.015415,0.07431 z M 9.0974487,34.981068 c -0.1193653,-0.03399 -0.2260825,-0.05692 -0.3201518,-0.06956 -0.094069,-0.01186 -0.1833956,-0.01739 -0.2691646,-0.01739 -0.092093,0 -0.1707477,0.01344 -0.2355685,0.04111 -0.064821,0.02688 -0.1162033,0.07273 -0.1537519,0.137546 -0.037549,0.06482 -0.064821,0.150986 -0.081817,0.258493 -0.016996,0.107508 -0.025691,0.241102 -0.025691,0.401573 0,0.163633 0.00751,0.295647 0.022925,0.39683 0.015415,0.100394 0.040315,0.177072 0.074307,0.230035 0.034387,0.05296 0.075493,0.08854 0.1229225,0.107508 0.047825,0.01897 0.1059267,0.02767 0.1743048,0.02767 0.051382,0 0.109484,-0.0079 0.1743049,-0.0253 0.064821,-0.01739 0.1296417,-0.03715 0.1948578,-0.06166 0.064821,-0.02371 0.125294,-0.04822 0.1818146,-0.07352 0.056125,-0.02609 0.10316,-0.04901 0.1407087,-0.06956 z"
           id="path1298" />
      </g>
      <g
         id="g1330">
        <rect
           class="cls-2"
           x="0"
           y="4"
           width="20"
           height="13.333519"
           id="rect1302" />
        <g
           id="g1328">
          <polygon
             class="cls-3"
             points="10.417893,6.9051538 10.257294,6.4070958 10.68593,6.0991143 10.157569,6.0991143 9.9958635,5.5949986 9.8341648,6.0996636 9.3060788,6.0991143 9.7344404,6.4070958 9.5738418,6.9051538 9.9958635,6.5971723 "
             id="polygon1304" />
          <polygon
             class="cls-3"
             points="8.2336585,7.4919137 8.0733279,6.9938557 8.5016895,6.6858743 7.973336,6.6858743 7.8116302,6.1812084 7.6499244,6.6864243 7.1218379,6.6858743 7.5502071,6.9938557 7.389876,7.4919137 7.8119048,7.1839314 "
             id="polygon1306" />
          <polygon
             class="cls-3"
             points="5.524089,8.2874877 5.9524507,8.5954692 5.7918521,9.0935272 6.2138738,8.785545 6.6359026,9.0935272 6.475304,8.5954692 6.9036661,8.2874877 6.3755796,8.2874877 6.2138738,7.7828148 6.0521751,8.2880378 "
             id="polygon1308" />
          <polygon
             class="cls-3"
             points="5.8890942,10.776671 6.3174558,10.468696 5.7893697,10.468696 5.6276639,9.9640232 5.4659652,10.469796 4.9376042,10.468696 5.3662408,10.776671 5.2056422,11.274729 5.6276639,10.966754 6.0494177,11.274729 "
             id="polygon1310" />
          <polygon
             class="cls-3"
             points="6.0521751,12.657062 5.524089,12.656512 5.9524507,12.964494 5.7918521,13.462552 6.2138738,13.15402 6.6359026,13.462552 6.475304,12.964494 6.9036661,12.656512 6.3755796,12.656512 6.2138738,12.151839 "
             id="polygon1312" />
          <polygon
             class="cls-3"
             points="7.6535065,14.258119 7.1251454,14.257569 7.553507,14.56555 7.3931835,15.063608 7.8152122,14.755627 8.2369589,15.063608 8.0766354,14.56555 8.5049975,14.257569 7.9766359,14.257569 7.8149372,13.753453 "
             id="polygon1314" />
          <polygon
             class="cls-3"
             points="9.8347149,14.838271 9.3063538,14.837721 9.7347154,15.145702 9.5743919,15.64376 9.9964206,15.335779 10.418167,15.64376 10.257569,15.145702 10.686205,14.837721 10.157844,14.837721 9.9961456,14.333047 "
             id="polygon1316" />
          <polygon
             class="cls-3"
             points="12.015648,14.258119 11.487837,14.257569 11.915924,14.56555 11.7556,15.063608 12.177622,14.755627 12.599651,15.063608 12.438777,14.56555 12.867414,14.257569 12.339053,14.257569 12.177622,13.753453 "
             id="polygon1318" />
          <polygon
             class="cls-3"
             points="13.616705,12.657062 13.088894,12.656512 13.51753,12.964494 13.356657,13.462552 13.778685,13.15402 14.200707,13.462552 14.039834,12.964494 14.46847,12.656512 13.940659,12.656512 13.778685,12.151839 "
             id="polygon1320" />
          <polygon
             class="cls-3"
             points="14.358281,9.9579647 14.196857,10.463181 13.668496,10.462631 14.097132,10.770613 13.936809,11.268671 14.358281,10.960139 14.780309,11.268671 14.619986,10.770613 15.048622,10.462631 14.520261,10.462631 "
             id="polygon1322" />
          <polygon
             class="cls-3"
             points="14.200707,9.0869122 14.039834,8.5888543 14.46847,8.2814229 13.940659,8.2814229 13.778685,7.776757 13.616705,8.281973 13.088894,8.2814229 13.51753,8.5888543 13.356657,9.0869122 13.778685,8.7789308 "
             id="polygon1324" />
          <polygon
             class="cls-3"
             points="11.493895,6.6858743 11.921982,6.9944058 11.761658,7.4924629 12.184237,7.1839314 12.605716,7.4924629 12.445386,6.9944058 12.874022,6.6858743 12.345111,6.6858743 12.183687,6.1817585 12.022257,6.6869815 "
             id="polygon1326" />
        </g>
      </g>
    </g>
  </g>
</svg>
