<?xml version="1.0" encoding="UTF-8" standalone="no"?>
<svg
   id="Capa_2"
   viewBox="0 0 33 6"
   version="1.1"
   width="660"
   height="120"
   xmlns="http://www.w3.org/2000/svg"
   xmlns:svg="http://www.w3.org/2000/svg">
  <defs
     id="defs4">
    <style
       id="style2">
      .cls-1 {
        fill: none;
      }

      .cls-2 {
        fill: #039;
      }

      .cls-3 {
        fill: #fff;
      }
    </style>
  </defs>
  <g
     id="Vertical_version"
     transform="translate(-4,-4)">
    <g
       id="g78"
       style="display:inline">
      <g
         id="g44">
        <path
           class="cls-2"
           d="M 17,4.0720036 C 17,4.0240012 17.024001,4 17.072307,4 h 1.327966 c 0.04588,0 0.06866,0.022482 0.06866,0.06775 v 0.2214795 c 0,0.042838 -0.024,0.064408 -0.07231,0.064408 h -0.984962 v 0.6243354 h 0.873159 c 0.048,0 0.07231,0.021571 0.07231,0.065016 v 0.2236063 c 0,0.043445 -0.0243,0.065016 -0.07231,0.065016 h -0.873159 v 0.7109221 h 1.010178 c 0.04344,0 0.06502,0.022786 0.06502,0.068662 V 6.331156 c 0,0.043445 -0.02279,0.065016 -0.06836,0.065016 H 17.072307 C 17.024001,6.396172 17,6.3746012 17,6.331156 Z"
           id="path6"
           style="fill:#000000" />
        <path
           class="cls-2"
           d="m 20.305788,6.396172 h -0.256115 c -0.02643,0 -0.04466,-0.00608 -0.05408,-0.017925 -0.0097,-0.012153 -0.01458,-0.028862 -0.01458,-0.050737 V 6.2157071 l -0.0073,-0.00365 c -0.03585,0.024001 -0.07747,0.048914 -0.124259,0.07413 -0.04709,0.025216 -0.09692,0.04861 -0.14978,0.070181 -0.05317,0.021875 -0.107854,0.039192 -0.164363,0.05256 -0.05651,0.013064 -0.112411,0.019748 -0.167704,0.019748 -0.122741,0 -0.219657,-0.017014 -0.290446,-0.050433 -0.07109,-0.033723 -0.124563,-0.080814 -0.160717,-0.1409692 -0.03615,-0.059851 -0.05894,-0.1309433 -0.06866,-0.212669 -0.0094,-0.082029 -0.01428,-0.1698313 -0.01428,-0.2637095 V 4.6999848 c 0,-0.048002 0.02309,-0.072004 0.06927,-0.072004 h 0.265836 c 0.04344,0 0.06532,0.024001 0.06532,0.072004 v 1.0141273 c 0,0.055294 0.0036,0.1045116 0.01094,0.1479569 0.007,0.043445 0.02036,0.079903 0.0395,0.1099802 0.01914,0.030077 0.04527,0.053775 0.07899,0.070485 0.03342,0.01671 0.07778,0.025216 0.132766,0.025216 0.03828,0 0.08082,-0.00608 0.127602,-0.017925 0.04679,-0.012153 0.09266,-0.027039 0.138235,-0.045268 0.04557,-0.017925 0.0875,-0.036154 0.125778,-0.054079 0.03828,-0.017925 0.06927,-0.033116 0.09327,-0.044964 V 4.6999848 c 0,-0.021571 0.0049,-0.038888 0.01458,-0.052256 0.0094,-0.013368 0.02765,-0.019748 0.05408,-0.019748 h 0.256115 c 0.04587,0 0.06866,0.024001 0.06866,0.072004 v 1.6275255 c 0,0.045876 -0.02279,0.068662 -0.06866,0.068662 z"
           id="path8"
           style="fill:#000000" />
        <path
           class="cls-2"
           d="m 21.226037,6.3275103 c 0,0.045876 -0.02309,0.068662 -0.06927,0.068662 h -0.26219 c -0.04618,0 -0.06927,-0.022786 -0.06927,-0.068662 V 4.6999848 c 0,-0.048002 0.02309,-0.072004 0.06927,-0.072004 h 0.258545 c 0.04861,0 0.07292,0.024001 0.07292,0.072004 v 0.1588941 l 0.0073,0.00729 c 0.02643,-0.024305 0.06107,-0.050129 0.104512,-0.077776 0.04344,-0.027647 0.08963,-0.052863 0.138842,-0.075649 0.04952,-0.022786 0.09935,-0.044053 0.14978,-0.063193 0.05074,-0.01914 0.09752,-0.032508 0.140969,-0.039799 0.024,-0.00486 0.04314,-0.00365 0.05773,0.00365 0.01428,0.00729 0.024,0.026432 0.02886,0.057724 l 0.02522,0.241835 c 0.0024,0.026432 0.0012,0.045572 -0.0036,0.057724 -0.0049,0.012153 -0.02643,0.021571 -0.06502,0.028862 -0.05043,0.00972 -0.1036,0.020963 -0.158894,0.034331 -0.05529,0.013368 -0.109373,0.027647 -0.162236,0.043141 -0.05286,0.015798 -0.102385,0.030685 -0.147957,0.045268 -0.04588,0.014279 -0.08416,0.028862 -0.115449,0.043141 z"
           id="path10"
           style="fill:#000000" />
        <path
           class="cls-2"
           d="m 23.604284,5.4832143 c 0,0.1032964 -0.0067,0.2105423 -0.01975,0.3211302 -0.01337,0.1105879 -0.04618,0.2123652 -0.09904,0.3050281 -0.05286,0.092663 -0.132159,0.1683123 -0.237582,0.227252 -0.105727,0.05894 -0.252164,0.08841 -0.439313,0.08841 -0.180161,0 -0.321738,-0.02947 -0.425034,-0.08841 -0.102993,-0.05894 -0.180465,-0.1345891 -0.232113,-0.227252 -0.05165,-0.092663 -0.08355,-0.1944402 -0.0954,-0.3050281 -0.01215,-0.1105879 -0.01792,-0.2178338 -0.01792,-0.3211302 0,-0.084156 0.0076,-0.1780343 0.02339,-0.2816345 0.0155,-0.1032963 0.04982,-0.2002126 0.102385,-0.2904451 0.05286,-0.090232 0.130336,-0.1658818 0.232417,-0.227252 0.102081,-0.06137 0.239404,-0.092055 0.412274,-0.092055 0.1753,0 0.315054,0.026432 0.419262,0.079295 0.104511,0.052863 0.184414,0.1221328 0.239404,0.2075042 0.05529,0.085371 0.09205,0.1810724 0.10998,0.2867993 0.01792,0.1060307 0.02704,0.2117576 0.02704,0.3177881 z m -0.400729,0.025216 c 0,-0.096309 -0.0049,-0.1798572 -0.01428,-0.2509494 -0.0097,-0.070788 -0.02886,-0.1297281 -0.05772,-0.1768191 -0.02886,-0.046787 -0.06866,-0.082333 -0.119095,-0.1063345 -0.05043,-0.024001 -0.116664,-0.036154 -0.198389,-0.036154 -0.07717,0 -0.139754,0.012153 -0.187757,0.036154 -0.04831,0.024001 -0.08598,0.060155 -0.113626,0.1081574 -0.02765,0.048306 -0.04709,0.1078536 -0.05772,0.1786419 -0.01094,0.071092 -0.01641,0.1534255 -0.01641,0.2473037 0,0.096309 0.0055,0.1798572 0.01641,0.2506456 0.01063,0.071092 0.02917,0.1300319 0.0559,0.1771229 0.02643,0.046787 0.0635,0.082333 0.111803,0.1063345 0.048,0.024001 0.110588,0.036154 0.187757,0.036154 0.08172,0 0.14826,-0.011545 0.200212,-0.034331 0.05165,-0.022786 0.09206,-0.057724 0.120918,-0.1048155 0.02886,-0.046787 0.048,-0.1063345 0.05772,-0.1786419 0.0094,-0.072004 0.01428,-0.1561598 0.01428,-0.2524685 z"
           id="path12"
           style="fill:#000000" />
        <path
           class="cls-2"
           d="m 25.520431,5.5011393 c 0,0.1467416 -0.01094,0.2779888 -0.03251,0.3934376 -0.02157,0.1154489 -0.05955,0.2129728 -0.113626,0.292268 -0.05408,0.079295 -0.127601,0.1394501 -0.220264,0.1804648 -0.09266,0.041015 -0.209935,0.06137 -0.351815,0.06137 -0.06015,0 -0.129424,-0.00608 -0.207504,-0.017925 -0.07808,-0.012153 -0.159502,-0.032508 -0.243658,-0.06137 l -0.0036,0.00334 v 0.6352727 c 0,0.01914 -0.0039,0.036154 -0.01246,0.050433 -0.0085,0.014583 -0.02704,0.021875 -0.0559,0.021875 h -0.256418 c -0.02886,0 -0.0474,-0.00608 -0.0559,-0.018229 -0.0085,-0.011849 -0.01246,-0.030077 -0.01246,-0.054079 V 4.6999848 c 0,-0.048002 0.02279,-0.072004 0.06836,-0.072004 h 0.256418 c 0.02643,0 0.04375,0.00638 0.05226,0.019748 0.0085,0.013368 0.01276,0.030685 0.01276,0.052256 V 4.808446 l 0.01063,0.00699 c 0.03129,-0.021571 0.06927,-0.044964 0.113626,-0.070181 0.04466,-0.02552 0.09206,-0.048914 0.142792,-0.070485 0.05043,-0.021571 0.102081,-0.039799 0.154944,-0.054079 0.05286,-0.014583 0.106031,-0.021571 0.158894,-0.021571 0.11788,0 0.215404,0.021571 0.292268,0.064712 0.07687,0.043445 0.137627,0.1042078 0.182288,0.1822877 0.04436,0.078384 0.07565,0.1728695 0.09388,0.2834574 0.01792,0.1105879 0.02704,0.2345435 0.02704,0.3715631 z m -0.407716,-0.00365 c 0,-0.1154488 -0.0055,-0.2081118 -0.01641,-0.2776849 -0.01063,-0.069877 -0.02826,-0.1239556 -0.05226,-0.1625399 -0.024,-0.03828 -0.05347,-0.064408 -0.08841,-0.077472 -0.03494,-0.013368 -0.07656,-0.020052 -0.124563,-0.020052 -0.03615,0 -0.07687,0.00608 -0.12274,0.018229 -0.04557,0.012153 -0.09084,0.025824 -0.135197,0.041319 -0.04466,0.015798 -0.08659,0.033116 -0.126386,0.05256 -0.0398,0.01914 -0.07292,0.03585 -0.09935,0.050433 v 0.9023241 c 0.08203,0.024001 0.155856,0.040103 0.222087,0.04861 0.06623,0.00851 0.130336,0.012456 0.192921,0.012456 0.06502,0 0.119703,-0.00881 0.164363,-0.027039 0.04436,-0.017925 0.08051,-0.049825 0.108157,-0.095397 0.02765,-0.045876 0.0477,-0.1066383 0.05955,-0.1822877 0.01215,-0.075953 0.01823,-0.1701352 0.01823,-0.2834574 z"
           id="path14"
           style="fill:#000000" />
        <path
           class="cls-2"
           d="m 26.213429,5.6202339 c 0.0024,0.091448 0.01246,0.1674009 0.03068,0.227252 0.01793,0.060459 0.04496,0.1078536 0.08112,0.1427921 0.03615,0.034938 0.08051,0.059547 0.133677,0.073827 0.05286,0.014583 0.116664,0.021571 0.191099,0.021571 0.06502,0 0.14188,-0.00456 0.230897,-0.014279 0.08902,-0.00972 0.168616,-0.017925 0.23819,-0.025216 0.03372,-0.00486 0.05712,-0.00425 0.07048,0.00182 0.01306,0.00608 0.02218,0.025824 0.02704,0.059547 l 0.02157,0.1190947 c 0.0049,0.026432 0.0043,0.048002 -0.0018,0.065016 -0.0058,0.01671 -0.02582,0.032204 -0.05955,0.046787 -0.03585,0.014279 -0.07808,0.027039 -0.126082,0.037977 -0.04831,0.010633 -0.09874,0.019748 -0.151603,0.027039 -0.05286,0.00729 -0.106031,0.013064 -0.158894,0.017925 -0.05286,0.00486 -0.100866,0.00729 -0.144311,0.00729 -0.173173,0 -0.311712,-0.025216 -0.415008,-0.075953 -0.103601,-0.050433 -0.182896,-0.1175756 -0.23819,-0.2020355 -0.05529,-0.084156 -0.09205,-0.1810725 -0.10998,-0.2904451 -0.01823,-0.1093726 -0.02704,-0.2229986 -0.02704,-0.340878 0,-0.08689 0.007,-0.1841106 0.02157,-0.2925718 0.01428,-0.1081574 0.04739,-0.2093271 0.09935,-0.3029014 0.05165,-0.093878 0.128513,-0.1728695 0.230898,-0.2363664 0.102081,-0.063801 0.241227,-0.095701 0.416831,-0.095701 0.161021,0 0.291661,0.024001 0.391615,0.072004 0.09965,0.048306 0.177123,0.110284 0.232721,0.1859334 0.05529,0.075953 0.09327,0.1625399 0.113626,0.25976 0.02035,0.097524 0.0319,0.1944403 0.03433,0.2907489 0.0024,0.064712 -0.0085,0.1178794 -0.03251,0.1585903 -0.024,0.041015 -0.07231,0.06137 -0.144311,0.06137 z m 0.360929,-0.6999848 c -0.06745,0 -0.12274,0.00942 -0.166185,0.028558 -0.04314,0.01914 -0.07869,0.047091 -0.106335,0.084156 -0.02765,0.037065 -0.0477,0.082333 -0.05955,0.1358043 -0.01215,0.053775 -0.02036,0.1142337 -0.02522,0.1807687 h 0.714568 c 0,-0.054686 -0.0049,-0.1078536 -0.01458,-0.1591979 -0.0097,-0.051344 -0.02704,-0.09722 -0.05226,-0.1376273 -0.02522,-0.040711 -0.06137,-0.072915 -0.108157,-0.096612 -0.04709,-0.024001 -0.107854,-0.03585 -0.182288,-0.03585 z"
           id="path16"
           style="fill:#000000" />
        <path
           class="cls-2"
           d="m 28.790065,6.1904907 c -0.09145,0.069877 -0.19444,0.1263861 -0.308674,0.1695275 -0.114233,0.043445 -0.23272,0.065016 -0.355461,0.065016 -0.09631,0 -0.176211,-0.01276 -0.240012,-0.037977 -0.0638,-0.025216 -0.114233,-0.060155 -0.151602,-0.1045116 -0.03707,-0.04466 -0.0635,-0.098132 -0.07929,-0.160717 -0.0155,-0.062585 -0.02339,-0.1321586 -0.02339,-0.2093271 -0.0024,-0.2114537 0.05286,-0.3648792 0.165882,-0.4599727 0.113018,-0.095093 0.284065,-0.1424882 0.512532,-0.1424882 h 0.461796 v -0.09479 c 0,-0.053471 -0.0052,-0.099043 -0.0161,-0.1367158 -0.01094,-0.037673 -0.03069,-0.068358 -0.05955,-0.092663 -0.02886,-0.024305 -0.06745,-0.041319 -0.115449,-0.051041 -0.04831,-0.00972 -0.109676,-0.014583 -0.18411,-0.014583 -0.02886,0 -0.06441,0.00122 -0.106335,0.00365 -0.04223,0.00243 -0.08537,0.00486 -0.130032,0.00699 -0.04466,0.00243 -0.08902,0.00608 -0.133374,0.010937 -0.04466,0.00486 -0.08507,0.00851 -0.120917,0.010937 -0.03615,0.00486 -0.06076,0.00516 -0.07413,0.00182 -0.01306,-0.00365 -0.02218,-0.018836 -0.02704,-0.045268 L 27.772299,4.777459 c -0.0049,-0.024001 -0.0024,-0.043445 0.0073,-0.05894 0.0094,-0.015494 0.03494,-0.031597 0.07565,-0.048306 0.03858,-0.014279 0.08416,-0.026128 0.137324,-0.035546 0.05286,-0.00972 0.106942,-0.017317 0.162236,-0.023394 0.05529,-0.00577 0.110284,-0.010633 0.164362,-0.014279 0.05408,-0.00334 0.102689,-0.00516 0.146134,-0.00516 0.15616,0 0.280723,0.015494 0.373386,0.046787 0.09266,0.031293 0.163148,0.075346 0.21115,0.1318548 0.048,0.056509 0.0793,0.1257785 0.09388,0.2075042 0.01428,0.081726 0.02157,0.1731733 0.02157,0.274343 v 0.696339 c 0,0.036154 0.0018,0.064408 0.0055,0.084764 0.0036,0.020659 0.0097,0.036154 0.01792,0.047091 0.0085,0.010633 0.02127,0.018533 0.03798,0.023394 0.01671,0.00486 0.0398,0.00851 0.06866,0.010633 0.02643,0.00243 0.04436,0.00729 0.05408,0.014583 0.0097,0.00729 0.01458,0.020355 0.01458,0.039799 v 0.1516027 c 0,0.040711 -0.02917,0.065927 -0.08689,0.075649 -0.02886,0.00486 -0.05772,0.00911 -0.08659,0.01276 -0.02886,0.00334 -0.05651,0.00516 -0.08294,0.00516 -0.08416,0 -0.15221,-0.015494 -0.203859,-0.046787 -0.05165,-0.031293 -0.08719,-0.089017 -0.106334,-0.1731733 z m -0.02157,-0.599119 h -0.440529 c -0.09145,0 -0.163451,0.021267 -0.216315,0.063193 -0.05317,0.04223 -0.0796,0.1221328 -0.0796,0.2400121 0,0.079295 0.01641,0.1339815 0.04891,0.164059 0.03251,0.030077 0.09084,0.045268 0.174996,0.045268 0.03828,0 0.08051,-0.00486 0.126386,-0.014583 0.04557,-0.00942 0.09114,-0.022786 0.13702,-0.039496 0.04557,-0.017014 0.09023,-0.035546 0.133374,-0.055902 0.04344,-0.020659 0.08203,-0.040407 0.115753,-0.059547 z"
           id="path18"
           style="fill:#000000" />
        <path
           class="cls-2"
           d="m 31.139146,6.378247 c -0.0097,0.011849 -0.02795,0.017925 -0.05469,0.017925 h -0.262191 c -0.04618,0 -0.06927,-0.022786 -0.06927,-0.068662 l 0.0036,-1.0141273 c 0,-0.1057269 -0.01732,-0.1910983 -0.05226,-0.2561143 -0.03494,-0.065016 -0.104208,-0.097524 -0.207504,-0.097524 -0.03615,0 -0.07747,0.00608 -0.124563,0.018229 -0.04679,0.012153 -0.09388,0.027039 -0.140666,0.044964 -0.04679,0.018229 -0.09084,0.036154 -0.131854,0.054079 -0.04071,0.018229 -0.07322,0.033116 -0.09722,0.045268 V 6.32751 c 0,0.045876 -0.02309,0.068662 -0.06866,0.068662 h -0.256115 c -0.04587,0 -0.06866,-0.022786 -0.06866,-0.068662 V 4.6999848 c 0,-0.048002 0.02279,-0.072004 0.06866,-0.072004 h 0.256115 c 0.04557,0 0.06866,0.024001 0.06866,0.072004 V 4.808446 c 0.0021,0 0.0039,6.076e-4 0.0052,0.00152 0.0012,0.00152 0.003,0.00182 0.0055,0.00182 0.03372,-0.024001 0.07443,-0.04861 0.121525,-0.073827 0.04679,-0.025216 0.09692,-0.04861 0.150084,-0.070485 0.05317,-0.021571 0.108461,-0.038888 0.166489,-0.052256 0.05803,-0.013064 0.114537,-0.019748 0.170135,-0.019748 0.123044,0 0.219657,0.018533 0.289534,0.055902 0.07018,0.037369 0.123348,0.087194 0.159502,0.1497797 0.03615,0.062585 0.05894,0.1351967 0.06866,0.2181376 0.0097,0.083245 0.01458,0.170439 0.01458,0.2618867 v 1.0463315 c 0,0.021875 -0.0049,0.038584 -0.01458,0.050737 z"
           id="path20"
           style="fill:#000000" />
        <path
           class="cls-2"
           d="m 17.772292,10 c -0.04557,0 -0.09874,-0.00182 -0.158894,-0.00547 -0.06016,-0.00365 -0.122133,-0.00972 -0.18563,-0.017925 -0.0638,-0.00851 -0.126993,-0.019444 -0.189579,-0.032508 -0.06258,-0.013368 -0.116664,-0.02947 -0.162236,-0.048914 -0.04101,-0.01671 -0.06441,-0.033419 -0.07048,-0.050433 -0.0061,-0.01671 -0.0067,-0.037369 -0.0018,-0.06137 l 0.03251,-0.1479568 c 0.0073,-0.031293 0.01732,-0.049218 0.03069,-0.054079 0.01306,-0.00486 0.03555,-0.00486 0.06684,0 0.04557,0.00486 0.09722,0.01033 0.154944,0.016102 0.05773,0.00608 0.115753,0.011545 0.173477,0.016406 0.05773,0.00486 0.113626,0.00911 0.167705,0.012456 0.05408,0.00365 0.101474,0.00547 0.142488,0.00547 0.308066,0 0.4621,-0.1057268 0.4621,-0.3174844 0,-0.065016 -0.0073,-0.118487 -0.02188,-0.160717 -0.01428,-0.041926 -0.03828,-0.077472 -0.072,-0.1063345 -0.03372,-0.028862 -0.07778,-0.051648 -0.131854,-0.068662 C 17.95458,8.9618715 17.886526,8.9460732 17.8048,8.931794 17.69877,8.9102233 17.597296,8.8862221 17.499772,8.8594866 17.402552,8.8330548 17.316269,8.7959897 17.241835,8.7476834 17.167097,8.699681 17.108461,8.6358803 17.065016,8.5565851 17.021571,8.4769862 17,8.3761203 17,8.2533799 17,8.0249127 17.07291,7.8502203 17.218441,7.7299104 17.363968,7.6099043 17.56418,7.5494455 17.819383,7.5494455 c 0.03342,0 0.07747,0.00152 0.131551,0.00365 0.05408,0.00243 0.111803,0.00668 0.173174,0.01276 0.06137,0.00608 0.123348,0.015798 0.185933,0.028862 0.06259,0.013368 0.12031,0.030685 0.173173,0.052256 0.04101,0.017014 0.06441,0.033723 0.07049,0.050433 0.0058,0.017014 0.0067,0.037369 0.0018,0.06137 l -0.03615,0.1479569 c -0.0073,0.028862 -0.01793,0.046483 -0.03251,0.05256 -0.01428,0.00608 -0.03858,0.0076 -0.07231,0.00516 -0.08173,-0.011849 -0.171351,-0.022786 -0.268571,-0.032204 -0.09752,-0.00972 -0.200516,-0.014583 -0.308674,-0.014583 -0.154033,0 -0.261583,0.028255 -0.322953,0.084764 -0.06137,0.056509 -0.09205,0.1355005 -0.09205,0.2363664 0,0.057724 0.0079,0.1042078 0.02339,0.1391463 0.0158,0.034635 0.04041,0.062889 0.07413,0.084764 0.03342,0.021571 0.07747,0.039192 0.131551,0.052256 0.05408,0.013368 0.120917,0.027039 0.200212,0.041622 0.103601,0.021571 0.203555,0.045572 0.29956,0.072004 0.09631,0.026432 0.181072,0.065016 0.254595,0.1154489 0.07322,0.050737 0.132159,0.1178794 0.176819,0.2020355 0.04436,0.08446 0.06684,0.1950479 0.06684,0.3320675 0,0.1373234 -0.0243,0.251557 -0.07231,0.3430047 -0.048,0.091448 -0.112411,0.1652742 -0.192922,0.2217834 -0.08081,0.056509 -0.174084,0.096916 -0.279811,0.1209175 C 17.998329,9.9878475 17.887741,10 17.772292,10 Z"
           id="path22"
           style="fill:#000000" />
        <path
           class="cls-2"
           d="m 20.107094,9.8304724 c 0.0073,0.040711 -0.0082,0.070788 -0.04679,0.090232 -0.03129,0.014279 -0.06805,0.026432 -0.10998,0.03585 -0.04223,0.00972 -0.08568,0.017621 -0.130032,0.023697 -0.04466,0.00577 -0.08659,0.010026 -0.126386,0.012456 -0.0395,0.00243 -0.07383,0.00365 -0.102689,0.00365 -0.106031,0 -0.188364,-0.015191 -0.247304,-0.044964 -0.05894,-0.030077 -0.102689,-0.0717 -0.131551,-0.1245632 -0.02917,-0.052863 -0.04709,-0.1142337 -0.05438,-0.1841106 -0.007,-0.069877 -0.01063,-0.1430959 -0.01063,-0.2202643 V 8.5167857 h -0.180465 c -0.02643,0 -0.04466,-0.00547 -0.05408,-0.016406 -0.0097,-0.010633 -0.01458,-0.028255 -0.01458,-0.052256 V 8.2713049 c 0,-0.024001 0.0049,-0.041926 0.01458,-0.054079 0.0094,-0.012153 0.02765,-0.017925 0.05408,-0.017925 h 0.184111 V 7.8274343 c 0,-0.026432 0.0064,-0.044964 0.01975,-0.055902 0.01306,-0.010937 0.02947,-0.018533 0.04861,-0.023394 l 0.241835,-0.065016 c 0.048,-0.012153 0.07231,0.00243 0.07231,0.043445 v 0.4727328 h 0.386147 c 0.02886,0 0.04739,0.00577 0.0559,0.017925 0.0082,0.012152 0.01246,0.028862 0.01246,0.050433 V 8.448124 c 0,0.024001 -0.0043,0.041622 -0.01246,0.052256 -0.0085,0.010937 -0.02704,0.016406 -0.0559,0.016406 h -0.386147 v 0.8986784 c 0,0.048002 0.0036,0.085371 0.01063,0.1118031 0.0073,0.026432 0.02005,0.04618 0.03798,0.059547 0.01793,0.013064 0.04284,0.020963 0.07413,0.023394 0.03099,0.00243 0.07079,0.00365 0.119094,0.00365 0.02643,0 0.06411,-0.00122 0.113626,-0.00365 0.04922,-0.00243 0.09206,-0.00608 0.127906,-0.010937 0.01944,-0.00213 0.03372,0 0.04345,0.00729 0.0094,0.00729 0.01671,0.021571 0.02157,0.043445 z"
           id="path24"
           style="fill:#000000" />
        <path
           class="cls-2"
           d="m 21.770773,9.967492 h -0.256114 c -0.02643,0 -0.04466,-0.00608 -0.05408,-0.017925 -0.0097,-0.012152 -0.01458,-0.028862 -0.01458,-0.050737 V 9.7870272 l -0.0073,-0.00365 c -0.03585,0.024001 -0.07747,0.048914 -0.12426,0.07413 -0.04709,0.025216 -0.09692,0.04861 -0.149779,0.070181 -0.05317,0.021875 -0.107854,0.039192 -0.164363,0.05256 C 20.943795,9.9933161 20.887893,10 20.832599,10 20.709859,10 20.612942,9.982987 20.542154,9.949567 20.471064,9.915844 20.417591,9.868753 20.381437,9.8085978 c -0.03615,-0.059851 -0.05894,-0.1309433 -0.06866,-0.212669 -0.0094,-0.08203 -0.01428,-0.1698314 -0.01428,-0.2637095 V 8.2713049 c 0,-0.048003 0.02309,-0.072004 0.06927,-0.072004 h 0.265837 c 0.04345,0 0.06532,0.024001 0.06532,0.072004 v 1.0141273 c 0,0.055294 0.0036,0.1045116 0.01094,0.1479568 0.007,0.043445 0.02035,0.079903 0.03949,0.1099803 0.01914,0.030077 0.04527,0.053775 0.07899,0.070485 0.03342,0.01671 0.07778,0.025216 0.132766,0.025216 0.03828,0 0.08081,-0.00608 0.127601,-0.017925 0.04679,-0.012152 0.09266,-0.027039 0.138235,-0.045268 0.04557,-0.017925 0.0875,-0.036154 0.125779,-0.054079 0.03828,-0.017925 0.06927,-0.033116 0.09327,-0.044964 V 8.2713049 c 0,-0.021571 0.0049,-0.038888 0.01458,-0.052256 0.0094,-0.013368 0.02765,-0.019748 0.05408,-0.019748 h 0.256114 c 0.04588,0 0.06866,0.024001 0.06866,0.072004 v 1.6275254 c 0,0.045876 -0.02279,0.068662 -0.06866,0.068662 z"
           id="path26"
           style="fill:#000000" />
        <path
           class="cls-2"
           d="m 23.744645,9.8988303 c 0,0.021874 -0.0043,0.038584 -0.01246,0.050737 -0.0085,0.011849 -0.02613,0.017925 -0.05256,0.017925 h -0.25976 c -0.04314,0 -0.06502,-0.021267 -0.06502,-0.064105 V 9.7891539 c -0.0024,0 -0.0043,-6.076e-4 -0.0052,-0.00182 -0.0015,-0.00122 -0.003,-0.00182 -0.0055,-0.00182 -0.03129,0.021571 -0.06866,0.044661 -0.111803,0.069877 -0.04345,0.024913 -0.09023,0.048002 -0.140969,0.069573 -0.05043,0.021267 -0.102689,0.038584 -0.156768,0.051648 -0.05438,0.013064 -0.107853,0.019748 -0.160717,0.019748 -0.117879,0 -0.214795,-0.020963 -0.290445,-0.063193 C 22.407565,9.891235 22.34741,9.8316877 22.303053,9.7545192 22.258393,9.6776546 22.2271,9.584384 22.209175,9.4750114 22.19125,9.365335 22.182136,9.2419869 22.182136,9.1049673 c 0,-0.1467416 0.01003,-0.2782925 0.03069,-0.3952605 0.02035,-0.1166641 0.05712,-0.2157071 0.10998,-0.2977366 0.05286,-0.081726 0.125779,-0.1437035 0.218442,-0.1856296 0.09266,-0.04223 0.212365,-0.063193 0.359106,-0.063193 0.149172,0 0.298345,0.027647 0.447517,0.082941 0.0021,0 0.0033,-6.076e-4 0.0033,-0.00182 0,-0.00122 0.0012,-0.00182 0.0036,-0.00182 V 7.4953669 c 0,-0.024001 0.0043,-0.041926 0.01276,-0.054079 0.0085,-0.011849 0.02704,-0.017925 0.0559,-0.017925 h 0.256114 c 0.02886,0 0.04709,0.00668 0.05438,0.019748 0.007,0.013368 0.01063,0.030685 0.01063,0.052256 z M 23.351208,8.5711682 c -0.08446,-0.024305 -0.16011,-0.040407 -0.226341,-0.048914 -0.06653,-0.00851 -0.130032,-0.01276 -0.190491,-0.01276 -0.06532,0 -0.120917,0.00972 -0.166793,0.029166 -0.04588,0.01914 -0.08203,0.051648 -0.108765,0.097524 -0.02673,0.045876 -0.04588,0.1069421 -0.05803,0.1828953 -0.01215,0.075953 -0.01823,0.1707429 -0.01823,0.2840651 0,0.1160565 0.0055,0.2096308 0.01641,0.280723 0.01094,0.071092 0.02856,0.1254747 0.05256,0.1628437 0.0243,0.037369 0.05317,0.062889 0.08719,0.075953 0.03372,0.013368 0.07474,0.020052 0.123044,0.020052 0.03646,0 0.07747,-0.00608 0.123348,-0.018229 0.04588,-0.011849 0.09175,-0.026432 0.137931,-0.043445 0.04588,-0.01671 0.08871,-0.034331 0.128513,-0.052256 0.0401,-0.018229 0.07322,-0.034635 0.09965,-0.048914 z"
           id="path28"
           style="fill:#000000" />
        <path
           class="cls-2"
           d="m 24.506304,9.191554 c 0.0024,0.091448 0.01246,0.1674009 0.03068,0.227252 0.01793,0.060459 0.04497,0.1078536 0.08112,0.1427921 0.03615,0.034938 0.08051,0.059547 0.133678,0.073827 0.05286,0.014583 0.116664,0.021571 0.191098,0.021571 0.06502,0 0.141881,-0.00456 0.230898,-0.014279 0.08902,-0.00972 0.168616,-0.017925 0.238189,-0.025216 0.03372,-0.00486 0.05712,-0.00425 0.07049,0.00182 0.01306,0.00608 0.02218,0.025824 0.02704,0.059547 l 0.02157,0.1190947 c 0.0049,0.026432 0.0043,0.048002 -0.0018,0.065016 -0.0058,0.01671 -0.02582,0.032204 -0.05955,0.046787 -0.03585,0.014279 -0.07808,0.027039 -0.126083,0.037977 -0.04831,0.010633 -0.09874,0.019748 -0.151602,0.027039 -0.05286,0.00729 -0.106031,0.013064 -0.158894,0.017925 C 24.980252,9.9975695 24.93225,10 24.888804,10 24.715631,10 24.577093,9.974783 24.473796,9.924047 24.370196,9.873614 24.290901,9.8064714 24.235607,9.7220114 c -0.05529,-0.084156 -0.09206,-0.1810724 -0.10998,-0.290445 -0.01823,-0.1093727 -0.02704,-0.2229987 -0.02704,-0.3408781 0,-0.08689 0.007,-0.1841106 0.02157,-0.2925717 0.01428,-0.1081574 0.0474,-0.2093271 0.09935,-0.3029015 0.05165,-0.093878 0.128513,-0.1728695 0.230898,-0.2363664 0.102081,-0.063801 0.241227,-0.095701 0.416831,-0.095701 0.161021,0 0.29166,0.024001 0.391615,0.072004 0.09965,0.048306 0.177122,0.1102841 0.23272,0.1859335 0.05529,0.075953 0.09327,0.1625399 0.113626,0.25976 0.02036,0.097524 0.0319,0.1944402 0.03433,0.2907489 0.0024,0.064712 -0.0085,0.1178794 -0.03251,0.1585903 -0.024,0.041015 -0.07231,0.06137 -0.144311,0.06137 z m 0.36093,-0.6999848 c -0.06745,0 -0.122741,0.00942 -0.166186,0.028558 -0.04314,0.01914 -0.07869,0.047091 -0.106334,0.084156 -0.02765,0.037065 -0.0477,0.082333 -0.05955,0.1358043 -0.01215,0.053775 -0.02035,0.1142336 -0.02522,0.1807687 h 0.714568 c 0,-0.054686 -0.0049,-0.1078536 -0.01458,-0.159198 -0.0097,-0.051344 -0.02704,-0.09722 -0.05226,-0.1376272 -0.02522,-0.040711 -0.06137,-0.072915 -0.108158,-0.096613 -0.04709,-0.024001 -0.107853,-0.03585 -0.182287,-0.03585 z"
           id="path30"
           style="fill:#000000" />
        <path
           class="cls-2"
           d="m 27.483366,9.9495671 c -0.0097,0.011849 -0.02795,0.017925 -0.05469,0.017925 h -0.262191 c -0.04618,0 -0.06927,-0.022786 -0.06927,-0.068662 l 0.0036,-1.0141273 c 0,-0.1057268 -0.01732,-0.1910983 -0.05226,-0.2561142 -0.03494,-0.065016 -0.104208,-0.097524 -0.207504,-0.097524 -0.03615,0 -0.07747,0.00608 -0.124563,0.018229 -0.04679,0.012152 -0.09388,0.027039 -0.140666,0.044964 -0.04679,0.018229 -0.09084,0.036154 -0.131855,0.054079 -0.04071,0.018229 -0.07322,0.033116 -0.09722,0.045268 v 1.2052256 c 0,0.045876 -0.02309,0.068662 -0.06866,0.068662 h -0.256115 c -0.04587,0 -0.06866,-0.022786 -0.06866,-0.068662 V 8.2713049 c 0,-0.048003 0.02279,-0.072004 0.06866,-0.072004 h 0.256115 c 0.04557,0 0.06866,0.024001 0.06866,0.072004 v 0.1084612 c 0.0021,0 0.0039,6.076e-4 0.0052,0.00152 0.0012,0.00152 0.003,0.00182 0.0055,0.00182 0.03372,-0.024001 0.07443,-0.04861 0.121525,-0.073826 0.04679,-0.025217 0.09692,-0.04861 0.150084,-0.070485 0.05317,-0.021571 0.108461,-0.038888 0.166489,-0.052256 0.05803,-0.013064 0.114537,-0.019748 0.170135,-0.019748 0.123044,0 0.219657,0.018532 0.289534,0.055901 0.07018,0.037369 0.123348,0.087194 0.159502,0.1497798 0.03615,0.062585 0.05894,0.1351967 0.06866,0.2181376 0.0097,0.083245 0.01458,0.170439 0.01458,0.2618867 v 1.0463314 c 0,0.021874 -0.0049,0.038584 -0.01458,0.050737 z"
           id="path32"
           style="fill:#000000" />
        <path
           class="cls-2"
           d="m 28.973872,9.8304724 c 0.0073,0.040711 -0.0082,0.070788 -0.04679,0.090232 -0.03129,0.014279 -0.06805,0.026432 -0.10998,0.03585 -0.04223,0.00972 -0.08568,0.017621 -0.130032,0.023697 -0.04466,0.00577 -0.08659,0.010026 -0.126386,0.012456 -0.0395,0.00243 -0.07383,0.00365 -0.102689,0.00365 -0.106031,0 -0.188364,-0.015191 -0.247304,-0.044964 -0.05894,-0.030077 -0.102689,-0.0717 -0.131551,-0.1245632 C 28.04997,9.7739672 28.03205,9.7125965 28.02476,9.6427196 28.01776,9.5728426 28.01413,9.4996237 28.01413,9.4224553 V 8.5167857 h -0.180465 c -0.02643,0 -0.04466,-0.00547 -0.05408,-0.016406 -0.0097,-0.010633 -0.01458,-0.028255 -0.01458,-0.052256 V 8.2713049 c 0,-0.024001 0.0049,-0.041926 0.01458,-0.054079 0.0094,-0.012153 0.02765,-0.017925 0.05408,-0.017925 h 0.184111 V 7.8274343 c 0,-0.026432 0.0064,-0.044964 0.01975,-0.055902 0.01306,-0.010937 0.02947,-0.018533 0.04861,-0.023394 l 0.241835,-0.065016 c 0.048,-0.012153 0.07231,0.00243 0.07231,0.043445 v 0.4727328 h 0.386147 c 0.02886,0 0.04739,0.00577 0.0559,0.017925 0.0082,0.012152 0.01246,0.028862 0.01246,0.050433 V 8.448124 c 0,0.024001 -0.0043,0.041622 -0.01246,0.052256 -0.0085,0.010937 -0.02704,0.016406 -0.0559,0.016406 h -0.386147 v 0.8986784 c 0,0.048002 0.0036,0.085371 0.01063,0.1118031 0.0073,0.026432 0.02005,0.04618 0.03798,0.059547 0.01793,0.013064 0.04284,0.020963 0.07413,0.023394 0.03099,0.00243 0.07079,0.00365 0.119094,0.00365 0.02643,0 0.06411,-0.00122 0.113626,-0.00365 0.04922,-0.00243 0.09206,-0.00608 0.127906,-0.010937 0.01944,-0.00213 0.03372,0 0.04345,0.00729 0.0094,0.00729 0.01671,0.021571 0.02157,0.043445 z"
           id="path34"
           style="fill:#000000" />
        <path
           class="cls-2"
           d="m 30.218897,8.7911287 c 0,-0.1540332 0.01215,-0.3056358 0.03615,-0.4548079 0.024,-0.1491721 0.0717,-0.2819383 0.142488,-0.3989062 0.07109,-0.1166642 0.169831,-0.2108462 0.295914,-0.2831536 0.126386,-0.072307 0.292875,-0.1081574 0.500076,-0.1081574 0.04314,0 0.09297,0.00182 0.14978,0.00516 0.05651,0.00365 0.114841,0.00972 0.174996,0.018229 0.06015,0.00851 0.119094,0.01914 0.176819,0.032508 0.05772,0.013064 0.110588,0.02947 0.15859,0.04861 0.02886,0.012153 0.04891,0.026432 0.05955,0.043445 0.01094,0.01671 0.01398,0.039496 0.0091,0.068358 l -0.03251,0.1479568 c -0.0049,0.021875 -0.01306,0.037369 -0.02522,0.047091 -0.01215,0.00942 -0.03494,0.011849 -0.06866,0.00699 -0.08902,-0.011849 -0.184719,-0.022786 -0.2868,-0.032204 -0.102385,-0.00972 -0.200212,-0.014583 -0.294091,-0.014583 -0.12274,0 -0.221479,0.022786 -0.295913,0.068662 -0.07474,0.045572 -0.131855,0.1081574 -0.171351,0.1874526 -0.0398,0.079599 -0.06562,0.1716542 -0.07778,0.2761658 -0.01185,0.1048155 -0.01792,0.216011 -0.01792,0.3338904 0,0.1178793 0.0073,0.2284672 0.02157,0.3320674 0.01458,0.1032964 0.04223,0.1929212 0.08294,0.2688744 0.04102,0.075649 0.09813,0.1351967 0.171654,0.1786419 0.07322,0.043141 0.16892,0.064712 0.286799,0.064712 0.105727,0 0.204467,-0.00456 0.295914,-0.014279 0.09145,-0.00972 0.186541,-0.020356 0.284977,-0.032508 0.03372,-0.00486 0.05651,-0.00243 0.06866,0.00729 0.01215,0.00972 0.02157,0.026432 0.02886,0.050433 l 0.02886,0.1370196 c 0.01458,0.053167 -0.0061,0.091448 -0.06137,0.1157527 -0.04314,0.01914 -0.09449,0.035242 -0.153426,0.04861 -0.05894,0.013368 -0.119095,0.024609 -0.180465,0.034331 -0.06137,0.00942 -0.121525,0.016102 -0.180465,0.019748 C 31.287711,9.9981771 31.23667,10 31.193529,10 30.991189,10 30.82713,9.9656691 30.700744,9.8970074 30.574358,9.8286496 30.475923,9.7378095 30.404831,9.6247911 30.334042,9.5114689 30.285128,9.3829561 30.258697,9.238645 c -0.02643,-0.1446149 -0.0398,-0.2934832 -0.0398,-0.4475163 z"
           id="path36"
           style="fill:#000000" />
        <path
           class="cls-2"
           d="m 33.333587,9.7618107 c -0.09145,0.069877 -0.194441,0.1263862 -0.308674,0.1695276 -0.114234,0.043445 -0.232721,0.065016 -0.355461,0.065016 -0.09631,0 -0.176212,-0.01276 -0.240013,-0.037977 -0.0638,-0.025216 -0.114233,-0.060155 -0.151602,-0.1045116 -0.03706,-0.044661 -0.0635,-0.098131 -0.07929,-0.160717 -0.0155,-0.062585 -0.02339,-0.1321586 -0.02339,-0.209327 -0.0024,-0.2114538 0.05286,-0.3648793 0.165882,-0.4599727 0.113018,-0.095093 0.284065,-0.1424882 0.512532,-0.1424882 h 0.461796 v -0.09479 c 0,-0.053471 -0.0052,-0.099043 -0.0161,-0.1367158 -0.01094,-0.037673 -0.03068,-0.068358 -0.05955,-0.092663 -0.02886,-0.024305 -0.06745,-0.041319 -0.115449,-0.051041 -0.04831,-0.00972 -0.109676,-0.014583 -0.18411,-0.014583 -0.02886,0 -0.06441,0.00122 -0.106335,0.00365 -0.04223,0.00243 -0.08537,0.00486 -0.130032,0.00699 -0.04466,0.00243 -0.08902,0.00608 -0.133373,0.010937 -0.04466,0.00486 -0.08507,0.00851 -0.120918,0.010937 -0.03615,0.00486 -0.06076,0.00516 -0.07413,0.00182 C 32.36231,8.522252 32.35319,8.507066 32.34833,8.480634 L 32.31582,8.3487793 c -0.0049,-0.024001 -0.0024,-0.043445 0.0073,-0.05894 0.0094,-0.015495 0.03494,-0.031597 0.07565,-0.048306 0.03859,-0.014279 0.08416,-0.026128 0.137324,-0.035546 0.05286,-0.00972 0.106942,-0.017317 0.162236,-0.023394 0.05529,-0.00577 0.110284,-0.010633 0.164363,-0.014279 0.05408,-0.00334 0.102688,-0.00516 0.146134,-0.00516 0.156159,0 0.280723,0.015495 0.373386,0.046787 0.09266,0.031293 0.163147,0.075346 0.211149,0.1318548 0.048,0.056509 0.0793,0.1257785 0.09388,0.2075041 0.01428,0.081726 0.02157,0.1731734 0.02157,0.274343 v 0.6963391 c 0,0.036154 0.0018,0.064408 0.0055,0.084764 0.0036,0.020659 0.0097,0.036154 0.01792,0.047091 0.0085,0.010633 0.02127,0.018533 0.03798,0.023394 0.01671,0.00486 0.0398,0.00851 0.06866,0.010633 0.02643,0.00243 0.04436,0.00729 0.05408,0.014583 0.0097,0.00729 0.01458,0.020356 0.01458,0.0398 v 0.1516026 c 0,0.040711 -0.02917,0.065927 -0.08689,0.075649 -0.02886,0.00486 -0.05773,0.00911 -0.08659,0.01276 -0.02886,0.00334 -0.05651,0.00516 -0.08294,0.00516 -0.08416,0 -0.15221,-0.015495 -0.203858,-0.046787 -0.05165,-0.031293 -0.0872,-0.089017 -0.106335,-0.1731733 z m -0.02157,-0.5991189 h -0.440529 c -0.09145,0 -0.163451,0.021267 -0.216315,0.063193 -0.05317,0.04223 -0.0796,0.1221327 -0.0796,0.2400121 0,0.079295 0.01641,0.1339815 0.04891,0.1640589 0.03251,0.030077 0.09084,0.045268 0.174997,0.045268 0.03828,0 0.08051,-0.00486 0.126386,-0.014583 0.04557,-0.00942 0.09114,-0.022786 0.137019,-0.039496 0.04557,-0.017013 0.09023,-0.035546 0.133374,-0.055902 0.04344,-0.020659 0.08203,-0.040407 0.115753,-0.059547 z"
           id="path38"
           style="fill:#000000" />
        <path
           class="cls-2"
           d="m 34.63269,9.8988303 c 0,0.045876 -0.02309,0.068662 -0.06927,0.068662 h -0.26219 c -0.04618,0 -0.06927,-0.022786 -0.06927,-0.068662 V 8.2713049 c 0,-0.048003 0.02309,-0.072004 0.06927,-0.072004 h 0.258545 c 0.04861,0 0.07291,0.024001 0.07291,0.072004 V 8.430199 l 0.0073,0.00729 c 0.02643,-0.024305 0.06107,-0.050129 0.104511,-0.077776 0.04345,-0.027647 0.08962,-0.052863 0.138843,-0.075649 0.04952,-0.022786 0.09935,-0.044053 0.14978,-0.063193 0.05074,-0.01914 0.09752,-0.032508 0.140969,-0.039799 0.024,-0.00486 0.04314,-0.00365 0.05772,0.00365 0.01428,0.00729 0.024,0.026432 0.02886,0.057724 l 0.02522,0.241835 c 0.0024,0.026432 0.0012,0.045572 -0.0036,0.057724 -0.0049,0.012153 -0.02643,0.021571 -0.06502,0.028862 -0.05043,0.00972 -0.1036,0.020963 -0.158894,0.034331 -0.05529,0.013368 -0.109373,0.027647 -0.162236,0.043141 -0.05286,0.015798 -0.102385,0.030685 -0.147957,0.045268 -0.04588,0.014279 -0.08416,0.028862 -0.115449,0.043142 z"
           id="path40"
           style="fill:#000000" />
        <path
           class="cls-2"
           d="m 37,9.8988303 c 0,0.021874 -0.0043,0.038584 -0.01246,0.050737 -0.0085,0.011849 -0.02613,0.017925 -0.05256,0.017925 h -0.25976 c -0.04314,0 -0.06502,-0.021267 -0.06502,-0.064105 V 9.7891539 c -0.0024,0 -0.0043,-6.076e-4 -0.0052,-0.00182 -0.0015,-0.00122 -0.003,-0.00182 -0.0055,-0.00182 -0.03129,0.021571 -0.06866,0.044661 -0.111803,0.069877 -0.04345,0.024913 -0.09023,0.048002 -0.14097,0.069573 -0.05043,0.021267 -0.102688,0.038584 -0.156767,0.051648 -0.05438,0.013064 -0.107854,0.019748 -0.160717,0.019748 -0.117879,0 -0.214796,-0.020963 -0.290445,-0.063193 -0.07595,-0.041926 -0.136108,-0.1014735 -0.180465,-0.178642 -0.04466,-0.076865 -0.07595,-0.1701352 -0.09388,-0.2795078 -0.01793,-0.1096764 -0.02704,-0.2330245 -0.02704,-0.3700441 0,-0.1467416 0.01002,-0.2782925 0.03068,-0.3952605 0.02036,-0.1166641 0.05712,-0.2157071 0.10998,-0.2977366 0.05286,-0.081726 0.125778,-0.1437035 0.218441,-0.1856296 0.09266,-0.04223 0.212365,-0.063193 0.359107,-0.063193 0.149172,0 0.298344,0.027647 0.447516,0.082941 0.0021,0 0.0033,-6.076e-4 0.0033,-0.00182 0,-0.00122 0.0012,-0.00182 0.0036,-0.00182 V 7.4953669 c 0,-0.024001 0.0043,-0.041926 0.01276,-0.054079 0.0085,-0.011849 0.02704,-0.017925 0.0559,-0.017925 h 0.256114 c 0.02886,0 0.04709,0.00668 0.05438,0.019748 C 36.996354,7.4564788 37,7.4737961 37,7.4953669 Z M 36.606562,8.5711682 c -0.08446,-0.024305 -0.160109,-0.040407 -0.22634,-0.048914 -0.06654,-0.00851 -0.130032,-0.01276 -0.190491,-0.01276 -0.06532,0 -0.120917,0.00972 -0.166793,0.029166 -0.04588,0.01914 -0.08203,0.051648 -0.108765,0.097524 -0.02674,0.045876 -0.04588,0.1069421 -0.05803,0.1828953 -0.01215,0.075953 -0.01823,0.1707429 -0.01823,0.2840651 0,0.1160565 0.0055,0.2096308 0.01641,0.280723 0.01094,0.071092 0.02856,0.1254747 0.05256,0.1628437 0.0243,0.037369 0.05317,0.062889 0.0872,0.075953 0.03372,0.013368 0.07474,0.020052 0.123044,0.020052 0.03646,0 0.07747,-0.00608 0.123348,-0.018229 0.04588,-0.011849 0.09175,-0.026432 0.137931,-0.043445 0.04588,-0.01671 0.08871,-0.034331 0.128513,-0.052256 0.0401,-0.018229 0.07322,-0.034635 0.09965,-0.048914 z"
           id="path42"
           style="fill:#000000" />
      </g>
      <g
         id="g74"
         style="display:inline;stroke:none;stroke-width:0.0503468;stroke-dasharray:none;stroke-opacity:1"
         transform="matrix(0.99445081,0,0,0.99167845,0.04723023,0.0334583)">
        <rect
           class="cls-2"
           x="4"
           y="4.0250001"
           width="8.9998751"
           height="6"
           id="rect46"
           style="display:inline;fill:#ffffff;stroke:#000000;stroke-width:0.0503468;stroke-dasharray:none;stroke-opacity:1" />
        <g
           id="g72"
           style="stroke:none;stroke-width:0.0503468;stroke-dasharray:none;stroke-opacity:1">
          <polygon
             class="cls-3"
             points="8.4980761,4.7177394 8.4253127,4.9448355 8.1876773,4.9445883 8.3804373,5.0831781 8.308169,5.307301 8.4980761,5.1687113 8.6879867,5.307301 8.6157181,5.0831781 8.8086019,4.9445883 8.5708427,4.9445883 "
             id="polygon48"
             style="fill:#000000;stroke:none;stroke-width:0.0503468;stroke-dasharray:none;stroke-opacity:1" />
          <polygon
             class="cls-3"
             points="7.5151848,4.9815302 7.4424182,5.2088742 7.2047826,5.2086266 7.397546,5.3472164 7.325398,5.5713393 7.5153083,5.4327492 7.7050949,5.5713393 7.6329471,5.3472164 7.8257072,5.2086266 7.5879514,5.2086266 "
             id="polygon50"
             style="fill:#000000;stroke:none;stroke-width:0.0503468;stroke-dasharray:none;stroke-opacity:1" />
          <polygon
             class="cls-3"
             points="6.9861147,6.2920554 6.9138463,6.0679324 7.1066066,5.9293427 6.868971,5.9293427 6.7962044,5.702243 6.723441,5.9295902 6.4858055,5.9293427 6.6785656,6.0679324 6.6062972,6.2920554 6.7962044,6.1534653 "
             id="polygon52"
             style="fill:#000000;stroke:none;stroke-width:0.0503468;stroke-dasharray:none;stroke-opacity:1" />
          <polygon
             class="cls-3"
             points="6.4596502,6.9113679 6.221891,6.9108728 6.4147748,7.0494594 6.3425065,7.2735824 6.5324136,7.1349958 6.7222002,7.2735824 6.6500556,7.0494594 6.8428156,6.9108728 6.6051802,6.9108728 6.5324136,6.6837732 "
             id="polygon54"
             style="fill:#000000;stroke:none;stroke-width:0.0503468;stroke-dasharray:none;stroke-opacity:1" />
          <polygon
             class="cls-3"
             points="6.7962044,8.1192519 6.9861147,8.2580892 6.9138463,8.0339662 7.1066066,7.8953765 6.868971,7.8953765 6.7962044,7.6682768 6.723441,7.895624 6.4858055,7.8953765 6.6785656,8.0339662 6.6062972,8.2580892 "
             id="polygon56"
             style="fill:#000000;stroke:none;stroke-width:0.0503468;stroke-dasharray:none;stroke-opacity:1" />
          <polygon
             class="cls-3"
             points="7.5167967,8.8399648 7.70658,8.9785545 7.6344354,8.7544316 7.8271957,8.6158418 7.5894363,8.6158418 7.5166729,8.3889929 7.4440301,8.6160894 7.2062709,8.6158418 7.3990309,8.7544316 7.3268863,8.9785545 "
             id="polygon58"
             style="fill:#000000;stroke:none;stroke-width:0.0503468;stroke-dasharray:none;stroke-opacity:1" />
          <polygon
             class="cls-3"
             points="8.4983268,9.1010296 8.6881102,9.2396191 8.6158418,9.0154964 8.8087256,8.8769066 8.5709665,8.8769066 8.498203,8.6498067 8.4255602,8.8771542 8.187801,8.8769066 8.3805611,9.0154964 8.3084165,9.2396191 "
             id="polygon60"
             style="fill:#000000;stroke:none;stroke-width:0.0503468;stroke-dasharray:none;stroke-opacity:1" />
          <polygon
             class="cls-3"
             points="9.4798538,8.8399648 9.6697641,8.9785545 9.597372,8.7544316 9.7902558,8.6158418 9.5524966,8.6158418 9.4798538,8.3889929 9.4069666,8.6160894 9.169455,8.6158418 9.3620912,8.7544316 9.2899466,8.9785545 "
             id="polygon62"
             style="fill:#000000;stroke:none;stroke-width:0.0503468;stroke-dasharray:none;stroke-opacity:1" />
          <polygon
             class="cls-3"
             points="10.200322,8.1192519 10.390229,8.2580892 10.317837,8.0339662 10.510721,7.8953765 10.273209,7.8953765 10.200322,7.6682768 10.127432,7.895624 9.8899206,7.8953765 10.082804,8.0339662 10.010412,8.2580892 "
             id="polygon64"
             style="fill:#000000;stroke:none;stroke-width:0.0503468;stroke-dasharray:none;stroke-opacity:1" />
          <polygon
             class="cls-3"
             points="10.271477,7.2708564 10.461137,7.1320191 10.651047,7.2708564 10.578902,7.0467334 10.771786,6.9081437 10.534027,6.9081437 10.461137,6.6810469 10.388497,6.9083909 10.150738,6.9081437 10.343621,7.0467334 "
             id="polygon66"
             style="fill:#000000;stroke:none;stroke-width:0.0503468;stroke-dasharray:none;stroke-opacity:1" />
          <polygon
             class="cls-3"
             points="10.200322,5.6995171 10.127432,5.9268611 9.8899206,5.9266135 10.082804,6.0649557 10.010412,6.2890787 10.200322,6.150489 10.390229,6.2890787 10.317837,6.0649557 10.510721,5.9266135 10.273209,5.9266135 "
             id="polygon68"
             style="fill:#000000;stroke:none;stroke-width:0.0503468;stroke-dasharray:none;stroke-opacity:1" />
          <polygon
             class="cls-3"
             points="9.6724932,5.5715865 9.6003457,5.3474639 9.7932293,5.2086266 9.5552226,5.2086266 9.4825829,4.9817777 9.4099404,5.2091249 9.1721809,5.2086266 9.3648172,5.3474639 9.2926726,5.5715865 9.4828305,5.4327492 "
             id="polygon70"
             style="fill:#000000;stroke:none;stroke-width:0.0503468;stroke-dasharray:none;stroke-opacity:1" />
        </g>
      </g>
    </g>
  </g>
</svg>
