<?xml version="1.0" encoding="UTF-8" standalone="no"?>
<!-- Created with Inkscape (http://www.inkscape.org/) -->

<svg
   xmlns:dc="http://purl.org/dc/elements/1.1/"
   xmlns:cc="http://creativecommons.org/ns#"
   xmlns:rdf="http://www.w3.org/1999/02/22-rdf-syntax-ns#"
   xmlns:svg="http://www.w3.org/2000/svg"
   xmlns="http://www.w3.org/2000/svg"
   xmlns:sodipodi="http://sodipodi.sourceforge.net/DTD/sodipodi-0.dtd"
   xmlns:inkscape="http://www.inkscape.org/namespaces/inkscape"
   width="28.506495mm"
   height="37.760109mm"
   viewBox="0 0 28.506495 37.760109"
   version="1.1"
   id="svg3813"
   inkscape:version="0.92.1 r15371"
   sodipodi:docname="zebra-1.svg">
  <defs
     id="defs3807" />
  <sodipodi:namedview
     id="base"
     pagecolor="#ffffff"
     bordercolor="#666666"
     borderopacity="1.0"
     inkscape:pageopacity="0.0"
     inkscape:pageshadow="2"
     inkscape:zoom="0.98994949"
     inkscape:cx="211.43012"
     inkscape:cy="5.5226623"
     inkscape:document-units="mm"
     inkscape:current-layer="layer1"
     showgrid="false"
     inkscape:window-width="1680"
     inkscape:window-height="1013"
     inkscape:window-x="1920"
     inkscape:window-y="0"
     inkscape:window-maximized="1" />
  <metadata
     id="metadata3810">
    <rdf:RDF>
      <cc:Work
         rdf:about="">
        <dc:format>image/svg+xml</dc:format>
        <dc:type
           rdf:resource="http://purl.org/dc/dcmitype/StillImage" />
        <dc:title></dc:title>
      </cc:Work>
    </rdf:RDF>
  </metadata>
  <g
     inkscape:label="Calque 1"
     inkscape:groupmode="layer"
     id="layer1"
     transform="translate(-7.6693582,-6.7330412)">
    <g
       id="g3845">
      <path
         id="path4"
         d="m 12.703732,16.8516 c 0.64744,-0.42201 1.66079,0.563034 2.16773,0.140759 0.53473,-0.422011 0.0281,-1.379009 0.33761,-1.885686 0.11272,-0.225161 0.50668,-0.0844 0.73184,0 0.19711,0.05636 0.36592,0.140758 0.50668,0.197114 0.16907,0.08467 0.33787,0.140759 0.47863,0.140759 0.14076,0 0.22516,-0.112448 0.25347,-0.168804 0.25347,-0.478632 0.28152,-1.013355 0.42227,-1.491986 0.028,-0.112448 0.16881,-0.140758 0.25321,-0.0844 0.42228,0.197115 0.957,0.985309 1.15411,0.647436 0.22516,-0.365919 0.36592,-0.788194 0.45032,-1.210469 0.0844,-0.591079 0.0844,-1.182158 0.0564,-1.773238 0,-0.02805 -0.0283,-0.0844 -0.0564,-0.112448 -0.39396,-0.309562 -2.39236,0.59108 -2.58974,0.703792 -0.14049,0.0844 -0.28151,0.140758 -0.42227,0.22516 -1.32292,0.760148 -2.58974,1.576123 -3.74386,2.505075 -0.22516,0.197115 -1.54807,1.379273 -2.16746,2.167203 -0.28126,0.365919 -0.42201,0.619389 -0.30957,0.732102 0.11272,0.08467 0.19738,0.169069 0.30957,0.225425 0.30956,0.22516 0.61939,0.450321 0.92895,0.619125 2.7305,1.350698 0.19711,-0.873125 1.23851,-1.576917 z"
         style="clip-rule:evenodd;fill-rule:evenodd;stroke-width:0.26458332"
         inkscape:connector-curvature="0" />
      <path
         id="path6"
         d="m 21.542672,25.549513 c -0.59108,-1.210469 -1.37927,-2.279915 -2.08333,-3.434027 -0.78819,-1.266825 -1.52003,-2.589477 -1.85764,-4.19444 -0.11271,-0.590814 0.25321,-3.067844 -0.90091,-1.322917 -0.0844,0.112448 -0.16907,0.253207 -0.25347,0.365919 -0.22542,0.422275 -0.42227,0.81624 -0.59081,1.210469 -0.73184,1.773237 -0.76015,3.96875 -0.0847,5.798608 0.19685,0.506677 0.42228,0.985044 0.67548,1.435629 0.84429,1.463411 1.97035,2.758546 3.01175,4.1656 0.81624,1.126067 1.57639,2.364846 2.02698,3.828257 0.0278,0.05636 0.0564,0.141023 0.0564,0.197379 0.14049,0.59055 0.11245,1.126067 0.28125,1.632479 0.0281,0.112713 0.22516,-0.08414 0.25321,-0.169069 0.53472,-1.829329 0.61912,-4.081462 0.50694,-5.967677 -0.11271,-1.350433 -0.50668,-2.4765 -1.04114,-3.54621 z"
         style="clip-rule:evenodd;fill-rule:evenodd;stroke-width:0.26458332"
         inkscape:connector-curvature="0" />
      <path
         id="path8"
         d="m 19.459342,33.543898 c -0.957,-1.041929 -2.02671,-2.083064 -3.01175,-3.181085 -0.64717,-0.703263 -1.23852,-1.463411 -1.74519,-2.251604 -1.29488,-2.083065 -1.18216,-3.884348 -0.98505,-6.305286 0,-0.141023 0.64717,-3.349889 0.30956,-3.237177 -1.26682,0.450321 -2.53338,3.7719 -2.8149,4.897967 -1.06944,4.504002 0.25321,8.360039 3.40598,11.512814 0.73184,0.731838 1.32292,1.378744 1.82986,1.970352 1.49199,1.744663 2.16747,3.180292 3.01175,5.657586 0.16907,0.534723 0.33761,1.097492 0.53499,1.745192 0.0561,0.112712 0.16881,0.140493 0.16881,0.140493 0.2532,-0.225425 0.45058,-0.478631 0.59107,-0.731308 0.33761,-0.619654 0.59082,-1.182423 0.7882,-1.745721 0.78793,-2.11111 0.64717,-3.828256 0,-5.348023 -0.4789,-1.126066 -1.23852,-2.139421 -2.08333,-3.1242 z"
         style="clip-rule:evenodd;fill-rule:evenodd;stroke-width:0.26458332"
         inkscape:connector-curvature="0" />
      <path
         id="path10"
         d="m 9.7200324,18.259184 c -0.16907,-0.0844 -0.30957,-0.112713 -0.47863,-0.05636 -0.25347,0.0844 -0.47837,0.39423 -0.67575,0.619125 -0.33761,0.478632 -1.15385,1.069711 -0.81597,1.407319 0.1688,0.197115 0.84428,0.422275 1.49172,0.591079 0.47863,0.141023 0.9572596,0.225425 1.2948696,0.225425 0.11271,-0.02805 0.19738,-0.02805 0.28151,-0.05636 0.0844,-0.05609 -0.0563,-0.70352 -0.28151,-1.350955 -0.25321,-0.61939 -0.5627696,-1.266825 -0.8162396,-1.379273 z"
         style="clip-rule:evenodd;fill-rule:evenodd;stroke-width:0.26458332"
         inkscape:connector-curvature="0" />
      <path
         id="path12"
         d="m 23.146842,25.690271 c 0.28125,-0.590814 0.45032,-1.294606 0.53472,-1.998398 0.0564,-0.478631 0.0844,-0.985308 0,-1.463675 0,-0.0844 -0.0281,-0.168804 -0.0281,-0.253471 -0.36591,-1.857639 -1.09775,-3.631141 -1.49198,-5.376333 -0.33761,-1.435629 0.75988,-2.730236 0.33761,-4.137819 -0.25321,-0.788194 -0.70353,-1.379008 -0.84429,-2.083065 -0.0281,-0.25347 0.0281,-0.5066774 0.16907,-0.5910794 0.1688,-0.05636 0.28125,0.112713 0.33761,0.168804 0.36618,0.4786324 0.56303,0.9855734 0.90064,1.3229174 0.33761,0.337873 0.19685,-2.0547544 0.16907,-2.1391564 -0.0844,-0.506677 -0.16907,-1.0414 -0.42228,-1.491986 -0.28125,-0.534723 -0.76014,-0.816239 -1.26656,-0.900906 -0.92895,-0.112448 -1.91426,0.506942 -2.02697,1.632744 -0.0564,0.422275 -0.0283,0.84455 0.0844,1.266825 0.14076,0.5910794 0.47863,1.0697104 0.64744,1.5763874 0.19685,0.563034 0.25347,1.379273 0.0844,1.970352 -0.22543,0.788194 -0.64744,1.46394 -0.81624,2.167467 -0.0283,0.0844 -0.0564,0.169069 -0.0564,0.253471 -0.11245,0.562769 -0.11245,1.154113 -0.0283,1.632744 0,0.05609 0,0.112713 0.0283,0.140758 0.14075,0.81624 0.3376,1.604434 0.61939,2.364582 0.39396,1.0414 1.01335,1.998662 1.46394,3.011752 0.0841,0.140758 0.14049,0.309562 0.19685,0.450321 0.39396,0.985308 0.53472,1.913995 0.84455,2.814902 0.14102,0.42201 0.50667,-0.169334 0.56303,-0.338138 z"
         style="clip-rule:evenodd;fill-rule:evenodd;stroke-width:0.26458332"
         inkscape:connector-curvature="0" />
      <path
         id="path14"
         d="m 28.128942,15.753844 c -0.64717,-0.422011 -1.04166,0.365918 -0.84402,1.322917 0.0841,0.365918 0.30956,0.675746 0.42201,0.928952 0.0844,0.140758 0.25347,0.197114 0.42228,0.197114 0.33787,0 0.70379,-0.140758 0.8165,-0.365918 0.25321,-0.478367 -0.0281,-1.182159 -0.33787,-1.576124 -0.16934,-0.225425 -0.30983,-0.394229 -0.4789,-0.506941 z"
         style="clip-rule:evenodd;fill-rule:evenodd;stroke-width:0.26458332"
         inkscape:connector-curvature="0" />
      <path
         id="path18"
         d="m 32.689042,23.551115 c -0.67575,0.365919 -1.71715,0.05636 -2.42041,0.591079 -0.25347,0.19685 -0.19685,1.06971 -0.0847,1.322917 0.22542,0.422275 0.67601,0.563033 0.92948,0.816239 0.33734,0.393965 0.45005,0.928952 0.81624,1.238515 0.25294,0.225425 1.37901,0.731837 1.66052,0.253206 0.92869,-1.548077 1.29487,-0.956998 2.39237,-2.083064 0.59081,-0.562769 -0.28126,-3.996796 -1.15359,-4.531784 -0.676,-0.450321 -1.57691,-0.450321 -2.05501,-1.013354 -0.4789,-0.506677 -0.36619,-1.322917 -0.59135,-1.88595 -0.28125,-0.703527 -0.50641,-1.379273 -0.84428,-1.998398 -0.36619,-0.760148 -0.87233,-1.294871 -1.43563,-1.745192 -0.59082,-0.506677 -1.23852,-0.900642 -1.77324,-1.407319 -0.25321,-0.25347 -0.47837,-0.506941 -0.67575,-0.816239 -0.61912,-1.069711 0.0564,-3.2932694 -0.81597,-3.9690154 -0.61939,-0.506677 -1.57639,0.309563 -1.74546,0.900906 -0.3376,1.2665614 -1.01335,2.9270864 -1.2102,4.4754284 -0.0564,0.478631 -0.0564,0.928952 0,1.379272 0.0564,0.365919 0.14076,0.703528 0.30956,1.013355 0.36592,0.84455 0.8726,1.632479 1.23852,2.392627 0.14102,0.309563 0.14102,0.675481 0.0844,1.013354 -0.28126,1.154113 -0.70353,1.154113 -1.18216,2.054754 -0.11271,0.253471 -0.16907,0.534723 -0.0561,0.760148 0.81597,1.632479 2.3921,2.054754 4.05289,2.026444 0.33787,0 0.64743,0 0.9853,-0.05609 0.11272,0 0.25321,-0.05609 0.25321,-0.140758 0,-1.0414 -0.0844,-0.675481 -0.67548,-1.26656 -0.19685,-0.197115 -0.36565,-0.39423 -0.39397,-0.563034 -0.0844,-0.225425 -0.11271,-0.450585 -0.16906,-0.675481 -0.0841,-0.478631 -0.1405,-0.956998 -0.25321,-1.407583 -0.16907,-0.591079 -0.36618,-1.097757 -0.59081,-1.576388 -0.36619,-0.760148 -0.84455,-1.435629 -1.06998,-2.223558 -0.42201,-1.632744 0.11271,-2.308225 1.74546,-1.998663 0.0564,0.02831 0.11244,0.02831 0.1688,0.05609 0.28152,0.0844 0.47863,0.253471 0.64744,0.366183 0.39396,0.281252 0.70352,0.534723 0.92895,0.815975 0.0844,0.140759 0.14076,0.253471 0.19685,0.365919 0.11271,0.169069 0.16933,0.309563 0.19711,0.478631 0.19685,0.562769 0.33761,1.069446 0.42228,1.576123 0.0841,0.478632 0.11271,0.900907 0.0841,1.323182 -0.0561,0.64717 -0.25347,1.238514 -0.25347,1.829593 0,1.238515 1.3798,-0.02805 1.74572,-0.0844 0.61939,-0.112448 1.04166,1.182159 0.98504,1.576388 -0.0288,0.365918 -0.16933,0.675481 -0.39449,0.816504 z"
         style="clip-rule:evenodd;fill-rule:evenodd;stroke-width:0.26458332"
         inkscape:connector-curvature="0" />
      <rect
         y="0.063554808"
         x="0"
         height="5.8799324"
         width="0"
         id="rect3833"
         style="fill:#000000;stroke-width:0.26458332" />
    </g>
  </g>
</svg>
